G04 #@! TF.GenerationSoftware,KiCad,Pcbnew,6.0.7-f9a2dced07~116~ubuntu22.04.1*
G04 #@! TF.CreationDate,2022-10-14T15:58:08-07:00*
G04 #@! TF.ProjectId,ft2232-breakout,66743232-3332-42d6-9272-65616b6f7574,rev?*
G04 #@! TF.SameCoordinates,Original*
G04 #@! TF.FileFunction,Paste,Top*
G04 #@! TF.FilePolarity,Positive*
%FSLAX46Y46*%
G04 Gerber Fmt 4.6, Leading zero omitted, Abs format (unit mm)*
G04 Created by KiCad (PCBNEW 6.0.7-f9a2dced07~116~ubuntu22.04.1) date 2022-10-14 15:58:08*
%MOMM*%
%LPD*%
G01*
G04 APERTURE LIST*
G04 Aperture macros list*
%AMRoundRect*
0 Rectangle with rounded corners*
0 $1 Rounding radius*
0 $2 $3 $4 $5 $6 $7 $8 $9 X,Y pos of 4 corners*
0 Add a 4 corners polygon primitive as box body*
4,1,4,$2,$3,$4,$5,$6,$7,$8,$9,$2,$3,0*
0 Add four circle primitives for the rounded corners*
1,1,$1+$1,$2,$3*
1,1,$1+$1,$4,$5*
1,1,$1+$1,$6,$7*
1,1,$1+$1,$8,$9*
0 Add four rect primitives between the rounded corners*
20,1,$1+$1,$2,$3,$4,$5,0*
20,1,$1+$1,$4,$5,$6,$7,0*
20,1,$1+$1,$6,$7,$8,$9,0*
20,1,$1+$1,$8,$9,$2,$3,0*%
G04 Aperture macros list end*
%ADD10RoundRect,0.218750X0.218750X0.381250X-0.218750X0.381250X-0.218750X-0.381250X0.218750X-0.381250X0*%
%ADD11O,2.100000X1.000000*%
%ADD12R,1.600000X1.000000*%
%ADD13R,2.100000X1.000000*%
%ADD14O,1.600000X1.000000*%
%ADD15R,1.450000X0.600000*%
%ADD16R,1.450000X0.300000*%
%ADD17RoundRect,0.243750X-0.243750X-0.456250X0.243750X-0.456250X0.243750X0.456250X-0.243750X0.456250X0*%
%ADD18RoundRect,0.218750X-0.218750X-0.381250X0.218750X-0.381250X0.218750X0.381250X-0.218750X0.381250X0*%
%ADD19RoundRect,0.250000X-0.250000X-0.475000X0.250000X-0.475000X0.250000X0.475000X-0.250000X0.475000X0*%
%ADD20RoundRect,0.250000X-0.475000X0.250000X-0.475000X-0.250000X0.475000X-0.250000X0.475000X0.250000X0*%
%ADD21RoundRect,0.218750X-0.381250X0.218750X-0.381250X-0.218750X0.381250X-0.218750X0.381250X0.218750X0*%
%ADD22RoundRect,0.250000X0.250000X0.475000X-0.250000X0.475000X-0.250000X-0.475000X0.250000X-0.475000X0*%
%ADD23RoundRect,0.075000X-0.700000X-0.075000X0.700000X-0.075000X0.700000X0.075000X-0.700000X0.075000X0*%
%ADD24RoundRect,0.075000X-0.075000X-0.700000X0.075000X-0.700000X0.075000X0.700000X-0.075000X0.700000X0*%
%ADD25RoundRect,0.162500X-0.367500X-0.162500X0.367500X-0.162500X0.367500X0.162500X-0.367500X0.162500X0*%
%ADD26RoundRect,0.162500X-0.162500X0.367500X-0.162500X-0.367500X0.162500X-0.367500X0.162500X0.367500X0*%
%ADD27RoundRect,0.300000X-0.400000X-0.300000X0.400000X-0.300000X0.400000X0.300000X-0.400000X0.300000X0*%
%ADD28RoundRect,0.218750X0.381250X-0.218750X0.381250X0.218750X-0.381250X0.218750X-0.381250X-0.218750X0*%
%ADD29RoundRect,0.250000X0.475000X-0.250000X0.475000X0.250000X-0.475000X0.250000X-0.475000X-0.250000X0*%
G04 APERTURE END LIST*
D10*
G04 #@! TO.C,R10*
X62987700Y-109728000D03*
X60862700Y-109728000D03*
G04 #@! TD*
D11*
G04 #@! TO.C,J1*
X61903200Y-94320000D03*
D12*
X57723200Y-85180000D03*
X57723200Y-94820000D03*
D13*
X61903200Y-94820000D03*
D11*
X61903200Y-85680000D03*
D13*
X61903200Y-85180000D03*
D14*
X57723200Y-94320000D03*
X57723200Y-85680000D03*
D15*
X62818200Y-86750000D03*
X62818200Y-87550000D03*
D16*
X62818200Y-88750000D03*
X62818200Y-89750000D03*
X62818200Y-90250000D03*
X62818200Y-91250000D03*
D15*
X62818200Y-92450000D03*
X62818200Y-93250000D03*
X62818200Y-93250000D03*
X62818200Y-92450000D03*
D16*
X62818200Y-91750000D03*
X62818200Y-90750000D03*
X62818200Y-89250000D03*
X62818200Y-88250000D03*
D15*
X62818200Y-87550000D03*
X62818200Y-86750000D03*
G04 #@! TD*
D17*
G04 #@! TO.C,D1*
X57226100Y-67900800D03*
X59101100Y-67900800D03*
G04 #@! TD*
D18*
G04 #@! TO.C,R6*
X79764100Y-87376000D03*
X81889100Y-87376000D03*
G04 #@! TD*
D19*
G04 #@! TO.C,C13*
X103698000Y-93218000D03*
X105598000Y-93218000D03*
G04 #@! TD*
D20*
G04 #@! TO.C,C25*
X61264800Y-78685600D03*
X61264800Y-80585600D03*
G04 #@! TD*
D19*
G04 #@! TO.C,C10*
X99395200Y-79908400D03*
X101295200Y-79908400D03*
G04 #@! TD*
G04 #@! TO.C,C6*
X79851200Y-85028800D03*
X81751200Y-85028800D03*
G04 #@! TD*
D20*
G04 #@! TO.C,C23*
X86614000Y-81005400D03*
X86614000Y-82905400D03*
G04 #@! TD*
D21*
G04 #@! TO.C,R1*
X67005200Y-86059500D03*
X67005200Y-88184500D03*
G04 #@! TD*
D22*
G04 #@! TO.C,C5*
X85739000Y-87376000D03*
X83839000Y-87376000D03*
G04 #@! TD*
D23*
G04 #@! TO.C,U3*
X89325000Y-86250000D03*
X89325000Y-86750000D03*
X89325000Y-87250000D03*
X89325000Y-87750000D03*
X89325000Y-88250000D03*
X89325000Y-88750000D03*
X89325000Y-89250000D03*
X89325000Y-89750000D03*
X89325000Y-90250000D03*
X89325000Y-90750000D03*
X89325000Y-91250000D03*
X89325000Y-91750000D03*
X89325000Y-92250000D03*
X89325000Y-92750000D03*
X89325000Y-93250000D03*
X89325000Y-93750000D03*
D24*
X91250000Y-95675000D03*
X91750000Y-95675000D03*
X92250000Y-95675000D03*
X92750000Y-95675000D03*
X93250000Y-95675000D03*
X93750000Y-95675000D03*
X94250000Y-95675000D03*
X94750000Y-95675000D03*
X95250000Y-95675000D03*
X95750000Y-95675000D03*
X96250000Y-95675000D03*
X96750000Y-95675000D03*
X97250000Y-95675000D03*
X97750000Y-95675000D03*
X98250000Y-95675000D03*
X98750000Y-95675000D03*
D23*
X100675000Y-93750000D03*
X100675000Y-93250000D03*
X100675000Y-92750000D03*
X100675000Y-92250000D03*
X100675000Y-91750000D03*
X100675000Y-91250000D03*
X100675000Y-90750000D03*
X100675000Y-90250000D03*
X100675000Y-89750000D03*
X100675000Y-89250000D03*
X100675000Y-88750000D03*
X100675000Y-88250000D03*
X100675000Y-87750000D03*
X100675000Y-87250000D03*
X100675000Y-86750000D03*
X100675000Y-86250000D03*
D24*
X98750000Y-84325000D03*
X98250000Y-84325000D03*
X97750000Y-84325000D03*
X97250000Y-84325000D03*
X96750000Y-84325000D03*
X96250000Y-84325000D03*
X95750000Y-84325000D03*
X95250000Y-84325000D03*
X94750000Y-84325000D03*
X94250000Y-84325000D03*
X93750000Y-84325000D03*
X93250000Y-84325000D03*
X92750000Y-84325000D03*
X92250000Y-84325000D03*
X91750000Y-84325000D03*
X91250000Y-84325000D03*
G04 #@! TD*
D25*
G04 #@! TO.C,U4*
X68242000Y-66101700D03*
X68242000Y-67051700D03*
X68242000Y-68001700D03*
X70442000Y-68001700D03*
X70442000Y-67051700D03*
X70442000Y-66101700D03*
G04 #@! TD*
D20*
G04 #@! TO.C,C15*
X91440000Y-100650000D03*
X91440000Y-102550000D03*
G04 #@! TD*
D26*
G04 #@! TO.C,U2*
X72324000Y-102818000D03*
X71374000Y-102818000D03*
X70424000Y-102818000D03*
X70424000Y-105018000D03*
X72324000Y-105018000D03*
G04 #@! TD*
D21*
G04 #@! TO.C,R13*
X65887600Y-62534800D03*
X65887600Y-64659800D03*
G04 #@! TD*
D27*
G04 #@! TO.C,Y1*
X82114200Y-82805400D03*
X84314200Y-82805400D03*
X84314200Y-81105400D03*
X82114200Y-81105400D03*
G04 #@! TD*
D20*
G04 #@! TO.C,C8*
X85500200Y-91546400D03*
X85500200Y-93446400D03*
G04 #@! TD*
D10*
G04 #@! TO.C,R4*
X62886100Y-67900800D03*
X60761100Y-67900800D03*
G04 #@! TD*
D21*
G04 #@! TO.C,R14*
X73152000Y-67263500D03*
X73152000Y-69388500D03*
G04 #@! TD*
D18*
G04 #@! TO.C,FB1*
X75877900Y-85054200D03*
X78002900Y-85054200D03*
G04 #@! TD*
D21*
G04 #@! TO.C,R12*
X72745600Y-63326500D03*
X72745600Y-65451500D03*
G04 #@! TD*
D19*
G04 #@! TO.C,C9*
X99380000Y-82042000D03*
X101280000Y-82042000D03*
G04 #@! TD*
D28*
G04 #@! TO.C,R15*
X65887600Y-69384200D03*
X65887600Y-67259200D03*
G04 #@! TD*
D22*
G04 #@! TO.C,C20*
X121600000Y-112776000D03*
X119700000Y-112776000D03*
G04 #@! TD*
G04 #@! TO.C,C22*
X121600000Y-59944000D03*
X119700000Y-59944000D03*
G04 #@! TD*
D21*
G04 #@! TO.C,R2*
X67005200Y-91901500D03*
X67005200Y-94026500D03*
G04 #@! TD*
D20*
G04 #@! TO.C,C2*
X112776000Y-59248000D03*
X112776000Y-61148000D03*
G04 #@! TD*
D28*
G04 #@! TO.C,FB3*
X59486800Y-101900500D03*
X59486800Y-99775500D03*
G04 #@! TD*
D22*
G04 #@! TO.C,C21*
X121600000Y-79756000D03*
X119700000Y-79756000D03*
G04 #@! TD*
D17*
G04 #@! TO.C,D5*
X56618900Y-107391200D03*
X58493900Y-107391200D03*
G04 #@! TD*
D22*
G04 #@! TO.C,C19*
X121600000Y-97536000D03*
X119700000Y-97536000D03*
G04 #@! TD*
D19*
G04 #@! TO.C,C16*
X99395200Y-77622400D03*
X101295200Y-77622400D03*
G04 #@! TD*
D22*
G04 #@! TO.C,C18*
X70292000Y-63627000D03*
X68392000Y-63627000D03*
G04 #@! TD*
D29*
G04 #@! TO.C,C3*
X66802000Y-103058000D03*
X66802000Y-101158000D03*
G04 #@! TD*
D18*
G04 #@! TO.C,R11*
X60862700Y-107391200D03*
X62987700Y-107391200D03*
G04 #@! TD*
D21*
G04 #@! TO.C,R3*
X57962800Y-78573100D03*
X57962800Y-80698100D03*
G04 #@! TD*
D28*
G04 #@! TO.C,R7*
X86236800Y-99908900D03*
X86236800Y-97783900D03*
G04 #@! TD*
D22*
G04 #@! TO.C,C1*
X75626000Y-120000000D03*
X73726000Y-120000000D03*
G04 #@! TD*
D18*
G04 #@! TO.C,FB2*
X78900500Y-91531200D03*
X81025500Y-91531200D03*
G04 #@! TD*
D29*
G04 #@! TO.C,C26*
X61976000Y-101788000D03*
X61976000Y-99888000D03*
G04 #@! TD*
D22*
G04 #@! TO.C,C4*
X72324000Y-107728000D03*
X70424000Y-107728000D03*
G04 #@! TD*
D19*
G04 #@! TO.C,C14*
X105730000Y-89408000D03*
X107630000Y-89408000D03*
G04 #@! TD*
D20*
G04 #@! TO.C,C7*
X83061800Y-91546400D03*
X83061800Y-93446400D03*
G04 #@! TD*
D22*
G04 #@! TO.C,C11*
X86526400Y-95442800D03*
X84626400Y-95442800D03*
G04 #@! TD*
D29*
G04 #@! TO.C,C17*
X94618800Y-81214000D03*
X94618800Y-79314000D03*
G04 #@! TD*
G04 #@! TO.C,C12*
X88646000Y-84008000D03*
X88646000Y-82108000D03*
G04 #@! TD*
G04 #@! TO.C,C31*
X79502000Y-82992000D03*
X79502000Y-81092000D03*
G04 #@! TD*
M02*
