M48
; DRILL file {KiCad 6.0.7-f9a2dced07~116~ubuntu22.04.1} date Wed 12 Oct 2022 04:01:36 PM
; FORMAT={-:-/ absolute / metric / decimal}
; #@! TF.CreationDate,2022-10-12T16:01:36-07:00
; #@! TF.GenerationSoftware,Kicad,Pcbnew,6.0.7-f9a2dced07~116~ubuntu22.04.1
; #@! TF.FileFunction,MixedPlating,1,2
FMAT,2
METRIC
; #@! TA.AperFunction,Plated,PTH,ViaDrill
T1C0.250
; #@! TA.AperFunction,Plated,PTH,ComponentDrill
T2C0.600
; #@! TA.AperFunction,Plated,PTH,ComponentDrill
T3C1.000
; #@! TA.AperFunction,NonPlated,NPTH,ComponentDrill
T4C0.650
; #@! TA.AperFunction,NonPlated,NPTH,ComponentDrill
T5C3.200
%
G90
G05
T1
X56.642Y-78.486
X57.15Y-69.342
X59.944Y-78.486
X64.262Y-86.614
X64.262Y-93.472
X67.056Y-66.587
X67.31Y-63.733
X69.088Y-69.342
X69.088Y-107.696
X71.12Y-69.342
X72.39Y-119.888
X76.962Y-88.392
X76.962Y-90.678
X77.724Y-83.058
X77.978Y-81.026
X78.74Y-87.376
X80.772Y-81.026
X81.03Y-117.852
X81.534Y-93.472
X82.804Y-85.09
X83.058Y-87.376
X83.312Y-95.504
X83.57Y-120.4
X84.836Y-84.074
X86.868Y-85.09
X86.868Y-91.186
X87.122Y-84.074
X87.376Y-92.71
X88.138Y-98.806
X88.65Y-115.566
X89.916Y-82.804
X89.916Y-102.616
X90.17Y-84.074
X90.17Y-97.028
X90.932Y-91.948
X91.171Y-93.13
X91.186Y-86.36
X91.186Y-88.138
X91.186Y-90.932
X92.202Y-86.106
X93.218Y-79.248
X94.234Y-89.916
X95.25Y-93.98
X96.266Y-90.678
X97.525Y-86.227
X98.552Y-92.71
X98.806Y-67.818
X98.806Y-88.392
X98.806Y-90.17
X100.33Y-78.74
X100.33Y-81.026
X101.346Y-83.566
X101.35Y-63.758
X103.89Y-69.846
X106.426Y-66.294
X106.68Y-93.218
X107.442Y-87.884
X109.728Y-63.754
X109.728Y-66.294
X109.728Y-67.818
X109.728Y-69.85
X110.998Y-111.125
X111.252Y-61.214
X111.887Y-110.109
X113.792Y-118.618
X115.062Y-70.612
X115.57Y-120.396
X118.364Y-59.944
X119.38Y-111.252
X119.634Y-78.232
X119.634Y-96.012
X124.968Y-61.214
X124.968Y-70.612
T3
X70.87Y-55.0
X70.87Y-125.0
X73.41Y-55.0
X73.41Y-125.0
X75.95Y-55.0
X75.95Y-125.0
X78.49Y-55.0
X78.49Y-125.0
X81.03Y-55.0
X81.03Y-125.0
X83.57Y-55.0
X83.57Y-125.0
X86.11Y-55.0
X86.11Y-125.0
X88.65Y-55.0
X88.65Y-125.0
X91.19Y-55.0
X91.19Y-125.0
X93.73Y-55.0
X93.73Y-125.0
X96.27Y-55.0
X96.27Y-125.0
X98.81Y-55.0
X98.81Y-125.0
X101.35Y-55.0
X101.35Y-125.0
X103.89Y-55.0
X103.89Y-125.0
X106.43Y-55.0
X106.43Y-125.0
X108.97Y-55.0
X108.97Y-125.0
X111.51Y-55.0
X111.51Y-125.0
X114.05Y-55.0
X114.05Y-125.0
X116.59Y-55.0
X116.59Y-125.0
X119.13Y-55.0
X119.13Y-125.0
X130.0Y-54.44
X130.0Y-56.98
X130.0Y-59.52
X130.0Y-62.06
X130.0Y-64.6
X130.0Y-67.14
X130.0Y-69.68
X130.0Y-74.76
X130.0Y-77.3
X130.0Y-79.84
X130.0Y-82.38
X130.0Y-84.92
X130.0Y-87.46
X130.0Y-92.54
X130.0Y-95.08
X130.0Y-97.62
X130.0Y-100.16
X130.0Y-102.7
X130.0Y-105.24
X130.0Y-110.32
X130.0Y-112.86
X130.0Y-115.4
X130.0Y-117.94
X130.0Y-120.48
X130.0Y-123.02
X130.0Y-125.56
T4
X61.373Y-87.11
X61.373Y-92.89
T5
X60.0Y-55.0
X60.0Y-125.0
X115.0Y-65.0
X115.0Y-115.0
T2
G00X58.023Y-85.68
M15
G01X57.423Y-85.68
M16
G05
G00X58.023Y-94.32
M15
G01X57.423Y-94.32
M16
G05
G00X62.453Y-85.68
M15
G01X61.353Y-85.68
M16
G05
G00X62.453Y-94.32
M15
G01X61.353Y-94.32
M16
G05
T0
M30
