G04 #@! TF.GenerationSoftware,KiCad,Pcbnew,6.0.7-f9a2dced07~116~ubuntu22.04.1*
G04 #@! TF.CreationDate,2022-10-12T16:01:38-07:00*
G04 #@! TF.ProjectId,tigard,74696761-7264-42e6-9b69-6361645f7063,rev?*
G04 #@! TF.SameCoordinates,Original*
G04 #@! TF.FileFunction,Legend,Top*
G04 #@! TF.FilePolarity,Positive*
%FSLAX46Y46*%
G04 Gerber Fmt 4.6, Leading zero omitted, Abs format (unit mm)*
G04 Created by KiCad (PCBNEW 6.0.7-f9a2dced07~116~ubuntu22.04.1) date 2022-10-12 16:01:38*
%MOMM*%
%LPD*%
G01*
G04 APERTURE LIST*
%ADD10C,0.400000*%
%ADD11C,0.500000*%
%ADD12C,1.000000*%
%ADD13C,0.250000*%
%ADD14C,0.120000*%
%ADD15C,0.010000*%
G04 APERTURE END LIST*
D10*
X77523809Y-72183761D02*
X78761904Y-72183761D01*
X78095238Y-72945666D01*
X78380952Y-72945666D01*
X78571428Y-73040904D01*
X78666666Y-73136142D01*
X78761904Y-73326619D01*
X78761904Y-73802809D01*
X78666666Y-73993285D01*
X78571428Y-74088523D01*
X78380952Y-74183761D01*
X77809523Y-74183761D01*
X77619047Y-74088523D01*
X77523809Y-73993285D01*
X79619047Y-73993285D02*
X79714285Y-74088523D01*
X79619047Y-74183761D01*
X79523809Y-74088523D01*
X79619047Y-73993285D01*
X79619047Y-74183761D01*
X80380952Y-72183761D02*
X81619047Y-72183761D01*
X80952380Y-72945666D01*
X81238095Y-72945666D01*
X81428571Y-73040904D01*
X81523809Y-73136142D01*
X81619047Y-73326619D01*
X81619047Y-73802809D01*
X81523809Y-73993285D01*
X81428571Y-74088523D01*
X81238095Y-74183761D01*
X80666666Y-74183761D01*
X80476190Y-74088523D01*
X80380952Y-73993285D01*
X82285714Y-72850428D02*
X82761904Y-74183761D01*
X83238095Y-72850428D01*
X85523809Y-74183761D02*
X85523809Y-72183761D01*
X87904761Y-72088523D02*
X86190476Y-74659952D01*
X88952380Y-72183761D02*
X89333333Y-72183761D01*
X89523809Y-72279000D01*
X89714285Y-72469476D01*
X89809523Y-72850428D01*
X89809523Y-73517095D01*
X89714285Y-73898047D01*
X89523809Y-74088523D01*
X89333333Y-74183761D01*
X88952380Y-74183761D01*
X88761904Y-74088523D01*
X88571428Y-73898047D01*
X88476190Y-73517095D01*
X88476190Y-72850428D01*
X88571428Y-72469476D01*
X88761904Y-72279000D01*
X88952380Y-72183761D01*
X92190476Y-73421857D02*
X93714285Y-73421857D01*
X92952380Y-74183761D02*
X92952380Y-72659952D01*
X97142857Y-72183761D02*
X96190476Y-72183761D01*
X96095238Y-73136142D01*
X96190476Y-73040904D01*
X96380952Y-72945666D01*
X96857142Y-72945666D01*
X97047619Y-73040904D01*
X97142857Y-73136142D01*
X97238095Y-73326619D01*
X97238095Y-73802809D01*
X97142857Y-73993285D01*
X97047619Y-74088523D01*
X96857142Y-74183761D01*
X96380952Y-74183761D01*
X96190476Y-74088523D01*
X96095238Y-73993285D01*
X97904761Y-72850428D02*
X98380952Y-74183761D01*
X98857142Y-72850428D01*
X100857142Y-72183761D02*
X102000000Y-72183761D01*
X101428571Y-74183761D02*
X101428571Y-72183761D01*
X102952380Y-74183761D02*
X102761904Y-74088523D01*
X102666666Y-73993285D01*
X102571428Y-73802809D01*
X102571428Y-73231380D01*
X102666666Y-73040904D01*
X102761904Y-72945666D01*
X102952380Y-72850428D01*
X103238095Y-72850428D01*
X103428571Y-72945666D01*
X103523809Y-73040904D01*
X103619047Y-73231380D01*
X103619047Y-73802809D01*
X103523809Y-73993285D01*
X103428571Y-74088523D01*
X103238095Y-74183761D01*
X102952380Y-74183761D01*
X104761904Y-74183761D02*
X104571428Y-74088523D01*
X104476190Y-73898047D01*
X104476190Y-72183761D01*
X106285714Y-74088523D02*
X106095238Y-74183761D01*
X105714285Y-74183761D01*
X105523809Y-74088523D01*
X105428571Y-73898047D01*
X105428571Y-73136142D01*
X105523809Y-72945666D01*
X105714285Y-72850428D01*
X106095238Y-72850428D01*
X106285714Y-72945666D01*
X106380952Y-73136142D01*
X106380952Y-73326619D01*
X105428571Y-73517095D01*
X107238095Y-74183761D02*
X107238095Y-72850428D01*
X107238095Y-73231380D02*
X107333333Y-73040904D01*
X107428571Y-72945666D01*
X107619047Y-72850428D01*
X107809523Y-72850428D01*
X109333333Y-74183761D02*
X109333333Y-73136142D01*
X109238095Y-72945666D01*
X109047619Y-72850428D01*
X108666666Y-72850428D01*
X108476190Y-72945666D01*
X109333333Y-74088523D02*
X109142857Y-74183761D01*
X108666666Y-74183761D01*
X108476190Y-74088523D01*
X108380952Y-73898047D01*
X108380952Y-73707571D01*
X108476190Y-73517095D01*
X108666666Y-73421857D01*
X109142857Y-73421857D01*
X109333333Y-73326619D01*
X110285714Y-72850428D02*
X110285714Y-74183761D01*
X110285714Y-73040904D02*
X110380952Y-72945666D01*
X110571428Y-72850428D01*
X110857142Y-72850428D01*
X111047619Y-72945666D01*
X111142857Y-73136142D01*
X111142857Y-74183761D01*
X111809523Y-72850428D02*
X112571428Y-72850428D01*
X112095238Y-72183761D02*
X112095238Y-73898047D01*
X112190476Y-74088523D01*
X112380952Y-74183761D01*
X112571428Y-74183761D01*
D11*
X92772552Y-112706984D02*
X93580674Y-111898862D01*
X94489811Y-113818152D02*
X92671536Y-111999877D01*
X92570521Y-111696831D01*
X92671536Y-111393786D01*
X92873567Y-111191755D01*
X93984735Y-111494801D02*
X94792857Y-110686679D01*
X93580674Y-110484648D02*
X95398948Y-112302923D01*
X95701994Y-112403938D01*
X96005040Y-112302923D01*
X96207070Y-112100892D01*
X94893872Y-109575511D02*
X94893872Y-109373481D01*
X94994887Y-109070435D01*
X95499964Y-108565359D01*
X95803009Y-108464343D01*
X96005040Y-108464343D01*
X96308086Y-108565359D01*
X96510116Y-108767389D01*
X96712147Y-109171450D01*
X96712147Y-111595816D01*
X98025345Y-110282618D01*
X96914177Y-107555206D02*
X96914177Y-107353175D01*
X97015192Y-107050130D01*
X97520269Y-106545053D01*
X97823314Y-106444038D01*
X98025345Y-106444038D01*
X98328391Y-106545053D01*
X98530421Y-106747084D01*
X98732452Y-107151145D01*
X98732452Y-109575511D01*
X100045650Y-108262313D01*
X98631436Y-105433886D02*
X99944635Y-104120687D01*
X100045650Y-105635916D01*
X100348696Y-105332870D01*
X100651742Y-105231855D01*
X100853772Y-105231855D01*
X101156818Y-105332870D01*
X101661894Y-105837947D01*
X101762909Y-106140992D01*
X101762909Y-106343023D01*
X101661894Y-106646069D01*
X101055803Y-107252160D01*
X100752757Y-107353175D01*
X100550726Y-107353175D01*
X100954787Y-103514596D02*
X100954787Y-103312565D01*
X101055803Y-103009520D01*
X101560879Y-102504443D01*
X101863925Y-102403428D01*
X102065955Y-102403428D01*
X102369001Y-102504443D01*
X102571031Y-102706474D01*
X102773062Y-103110535D01*
X102773062Y-105534901D01*
X104086260Y-104221703D01*
X104793367Y-103110535D02*
X104995398Y-103110535D01*
X104995398Y-103312565D01*
X104793367Y-103312565D01*
X104793367Y-103110535D01*
X104995398Y-103312565D01*
X104288291Y-101191245D02*
X105096413Y-100383123D01*
X103884230Y-100181092D02*
X105702504Y-101999367D01*
X106005550Y-102100382D01*
X106308596Y-101999367D01*
X106510626Y-101797337D01*
X107520779Y-100787184D02*
X107217733Y-100888199D01*
X107015703Y-100888199D01*
X106712657Y-100787184D01*
X106106565Y-100181092D01*
X106005550Y-99878047D01*
X106005550Y-99676016D01*
X106106565Y-99372970D01*
X106409611Y-99069925D01*
X106712657Y-98968909D01*
X106914687Y-98968909D01*
X107217733Y-99069925D01*
X107823825Y-99676016D01*
X107924840Y-99979062D01*
X107924840Y-100181092D01*
X107823825Y-100484138D01*
X107520779Y-100787184D01*
X109137023Y-99170940D02*
X107722809Y-97756726D01*
X107924840Y-97958757D02*
X107924840Y-97756726D01*
X108025855Y-97453681D01*
X108328901Y-97150635D01*
X108631947Y-97049620D01*
X108934992Y-97150635D01*
X110046160Y-98261803D01*
X108934992Y-97150635D02*
X108833977Y-96847589D01*
X108934992Y-96544543D01*
X109238038Y-96241498D01*
X109541084Y-96140482D01*
X109844130Y-96241498D01*
X110955298Y-97352665D01*
X111965450Y-96342513D02*
X109844130Y-94221192D01*
X111359359Y-95332360D02*
X112773572Y-95534391D01*
X111359359Y-94120177D02*
X111359359Y-95736421D01*
X113480679Y-94423223D02*
X113682709Y-94423223D01*
X113682709Y-94625253D01*
X113480679Y-94625253D01*
X113480679Y-94423223D01*
X113682709Y-94625253D01*
X114692862Y-93615101D02*
X113278648Y-92200887D01*
X112571542Y-91493781D02*
X112571542Y-91695811D01*
X112773572Y-91695811D01*
X112773572Y-91493781D01*
X112571542Y-91493781D01*
X112773572Y-91695811D01*
X114288801Y-91190735D02*
X115703014Y-92604948D01*
X114490831Y-91392765D02*
X114490831Y-91190735D01*
X114591847Y-90887689D01*
X114894892Y-90584643D01*
X115197938Y-90483628D01*
X115500984Y-90584643D01*
X116612152Y-91695811D01*
X101087118Y-109808857D02*
X101491179Y-109404796D01*
X101794224Y-109303780D01*
X102198285Y-109303780D01*
X102703362Y-109606826D01*
X103410468Y-110313933D01*
X103713514Y-110819009D01*
X103713514Y-111223070D01*
X103612499Y-111526116D01*
X103208438Y-111930177D01*
X102905392Y-112031192D01*
X102501331Y-112031192D01*
X101996255Y-111728146D01*
X101289148Y-111021040D01*
X100986102Y-110515963D01*
X100986102Y-110111902D01*
X101087118Y-109808857D01*
X105834835Y-109101750D02*
X105733819Y-109404796D01*
X105329758Y-109808857D01*
X105026712Y-109909872D01*
X104824682Y-109909872D01*
X104521636Y-109808857D01*
X103915545Y-109202765D01*
X103814529Y-108899719D01*
X103814529Y-108697689D01*
X103915545Y-108394643D01*
X104319606Y-107990582D01*
X104622651Y-107889567D01*
X105127728Y-107182460D02*
X105935850Y-106374338D01*
X104723667Y-106172307D02*
X106541941Y-107990582D01*
X106844987Y-108091597D01*
X107148033Y-107990582D01*
X107350063Y-107788551D01*
X106036865Y-105263170D02*
X106036865Y-105061140D01*
X106137880Y-104758094D01*
X106642957Y-104253018D01*
X106946002Y-104152002D01*
X107148033Y-104152002D01*
X107451079Y-104253018D01*
X107653109Y-104455048D01*
X107855140Y-104859109D01*
X107855140Y-107283475D01*
X109168338Y-105970277D01*
X108360216Y-102535758D02*
X108562246Y-102333728D01*
X108865292Y-102232712D01*
X109067323Y-102232712D01*
X109370368Y-102333728D01*
X109875445Y-102636774D01*
X110380521Y-103141850D01*
X110683567Y-103646926D01*
X110784582Y-103949972D01*
X110784582Y-104152002D01*
X110683567Y-104455048D01*
X110481536Y-104657079D01*
X110178490Y-104758094D01*
X109976460Y-104758094D01*
X109673414Y-104657079D01*
X109168338Y-104354033D01*
X108663262Y-103848957D01*
X108360216Y-103343880D01*
X108259201Y-103040835D01*
X108259201Y-102838804D01*
X108360216Y-102535758D01*
X110077475Y-101222560D02*
X110077475Y-101020529D01*
X110178490Y-100717484D01*
X110683567Y-100212407D01*
X110986613Y-100111392D01*
X111188643Y-100111392D01*
X111491689Y-100212407D01*
X111693719Y-100414438D01*
X111895750Y-100818499D01*
X111895750Y-103242865D01*
X113208948Y-101929667D01*
X112097780Y-99202255D02*
X112097780Y-99000224D01*
X112198796Y-98697179D01*
X112703872Y-98192102D01*
X113006918Y-98091087D01*
X113208948Y-98091087D01*
X113511994Y-98192102D01*
X113714024Y-98394133D01*
X113916055Y-98798194D01*
X113916055Y-101222560D01*
X115229253Y-99909362D01*
D12*
X71651857Y-99439333D02*
X71651857Y-101106000D01*
X74270904Y-101106000D02*
X69270904Y-101106000D01*
X69270904Y-98725047D01*
X69270904Y-97534571D02*
X69270904Y-94677428D01*
X74270904Y-96106000D02*
X69270904Y-96106000D01*
X69747095Y-93248857D02*
X69509000Y-93010761D01*
X69270904Y-92534571D01*
X69270904Y-91344095D01*
X69509000Y-90867904D01*
X69747095Y-90629809D01*
X70223285Y-90391714D01*
X70699476Y-90391714D01*
X71413761Y-90629809D01*
X74270904Y-93486952D01*
X74270904Y-90391714D01*
X69747095Y-88486952D02*
X69509000Y-88248857D01*
X69270904Y-87772666D01*
X69270904Y-86582190D01*
X69509000Y-86106000D01*
X69747095Y-85867904D01*
X70223285Y-85629809D01*
X70699476Y-85629809D01*
X71413761Y-85867904D01*
X74270904Y-88725047D01*
X74270904Y-85629809D01*
X69270904Y-83963142D02*
X69270904Y-80867904D01*
X71175666Y-82534571D01*
X71175666Y-81820285D01*
X71413761Y-81344095D01*
X71651857Y-81106000D01*
X72128047Y-80867904D01*
X73318523Y-80867904D01*
X73794714Y-81106000D01*
X74032809Y-81344095D01*
X74270904Y-81820285D01*
X74270904Y-83248857D01*
X74032809Y-83725047D01*
X73794714Y-83963142D01*
X69747095Y-78963142D02*
X69509000Y-78725047D01*
X69270904Y-78248857D01*
X69270904Y-77058380D01*
X69509000Y-76582190D01*
X69747095Y-76344095D01*
X70223285Y-76106000D01*
X70699476Y-76106000D01*
X71413761Y-76344095D01*
X74270904Y-79201238D01*
X74270904Y-76106000D01*
X74270904Y-73963142D02*
X69270904Y-73963142D01*
X71651857Y-73963142D02*
X71651857Y-71106000D01*
X74270904Y-71106000D02*
X69270904Y-71106000D01*
X119618000Y-109378571D02*
X119618000Y-106521428D01*
X121332285Y-109950000D02*
X115332285Y-107950000D01*
X121332285Y-105950000D01*
X118189428Y-71961428D02*
X118475142Y-71104285D01*
X118760857Y-70818571D01*
X119332285Y-70532857D01*
X120189428Y-70532857D01*
X120760857Y-70818571D01*
X121046571Y-71104285D01*
X121332285Y-71675714D01*
X121332285Y-73961428D01*
X115332285Y-73961428D01*
X115332285Y-71961428D01*
X115618000Y-71390000D01*
X115903714Y-71104285D01*
X116475142Y-70818571D01*
X117046571Y-70818571D01*
X117618000Y-71104285D01*
X117903714Y-71390000D01*
X118189428Y-71961428D01*
X118189428Y-73961428D01*
D10*
X124390952Y-88235523D02*
X123757619Y-87330761D01*
X123305238Y-88235523D02*
X123305238Y-86335523D01*
X124029047Y-86335523D01*
X124210000Y-86426000D01*
X124300476Y-86516476D01*
X124390952Y-86697428D01*
X124390952Y-86968857D01*
X124300476Y-87149809D01*
X124210000Y-87240285D01*
X124029047Y-87330761D01*
X123305238Y-87330761D01*
X124933809Y-86335523D02*
X126019523Y-86335523D01*
X125476666Y-88235523D02*
X125476666Y-86335523D01*
X126562380Y-88145047D02*
X126833809Y-88235523D01*
X127286190Y-88235523D01*
X127467142Y-88145047D01*
X127557619Y-88054571D01*
X127648095Y-87873619D01*
X127648095Y-87692666D01*
X127557619Y-87511714D01*
X127467142Y-87421238D01*
X127286190Y-87330761D01*
X126924285Y-87240285D01*
X126743333Y-87149809D01*
X126652857Y-87059333D01*
X126562380Y-86878380D01*
X126562380Y-86697428D01*
X126652857Y-86516476D01*
X126743333Y-86426000D01*
X126924285Y-86335523D01*
X127376666Y-86335523D01*
X127648095Y-86426000D01*
X125152952Y-106015523D02*
X124519619Y-105110761D01*
X124067238Y-106015523D02*
X124067238Y-104115523D01*
X124791047Y-104115523D01*
X124972000Y-104206000D01*
X125062476Y-104296476D01*
X125152952Y-104477428D01*
X125152952Y-104748857D01*
X125062476Y-104929809D01*
X124972000Y-105020285D01*
X124791047Y-105110761D01*
X124067238Y-105110761D01*
X125695809Y-104115523D02*
X126781523Y-104115523D01*
X126238666Y-106015523D02*
X126238666Y-104115523D01*
X127324380Y-105925047D02*
X127595809Y-106015523D01*
X128048190Y-106015523D01*
X128229142Y-105925047D01*
X128319619Y-105834571D01*
X128410095Y-105653619D01*
X128410095Y-105472666D01*
X128319619Y-105291714D01*
X128229142Y-105201238D01*
X128048190Y-105110761D01*
X127686285Y-105020285D01*
X127505333Y-104929809D01*
X127414857Y-104839333D01*
X127324380Y-104658380D01*
X127324380Y-104477428D01*
X127414857Y-104296476D01*
X127505333Y-104206000D01*
X127686285Y-104115523D01*
X128138666Y-104115523D01*
X128410095Y-104206000D01*
X124429142Y-73726000D02*
X124248190Y-73635523D01*
X123976761Y-73635523D01*
X123705333Y-73726000D01*
X123524380Y-73906952D01*
X123433904Y-74087904D01*
X123343428Y-74449809D01*
X123343428Y-74721238D01*
X123433904Y-75083142D01*
X123524380Y-75264095D01*
X123705333Y-75445047D01*
X123976761Y-75535523D01*
X124157714Y-75535523D01*
X124429142Y-75445047D01*
X124519619Y-75354571D01*
X124519619Y-74721238D01*
X124157714Y-74721238D01*
X125333904Y-75535523D02*
X125333904Y-73635523D01*
X126419619Y-75535523D01*
X126419619Y-73635523D01*
X127324380Y-75535523D02*
X127324380Y-73635523D01*
X127776761Y-73635523D01*
X128048190Y-73726000D01*
X128229142Y-73906952D01*
X128319619Y-74087904D01*
X128410095Y-74449809D01*
X128410095Y-74721238D01*
X128319619Y-75083142D01*
X128229142Y-75264095D01*
X128048190Y-75445047D01*
X127776761Y-75535523D01*
X127324380Y-75535523D01*
X121443428Y-81255523D02*
X122529142Y-81255523D01*
X121986285Y-83155523D02*
X121986285Y-81255523D01*
X122981523Y-81255523D02*
X124248190Y-83155523D01*
X124248190Y-81255523D02*
X122981523Y-83155523D01*
X124972000Y-83155523D02*
X124972000Y-81255523D01*
X125424380Y-81255523D01*
X125695809Y-81346000D01*
X125876761Y-81526952D01*
X125967238Y-81707904D01*
X126057714Y-82069809D01*
X126057714Y-82341238D01*
X125967238Y-82703142D01*
X125876761Y-82884095D01*
X125695809Y-83065047D01*
X125424380Y-83155523D01*
X124972000Y-83155523D01*
X126872000Y-81888857D02*
X128319619Y-82431714D01*
X126872000Y-82974571D01*
X125152952Y-77894571D02*
X125062476Y-77985047D01*
X124791047Y-78075523D01*
X124610095Y-78075523D01*
X124338666Y-77985047D01*
X124157714Y-77804095D01*
X124067238Y-77623142D01*
X123976761Y-77261238D01*
X123976761Y-76989809D01*
X124067238Y-76627904D01*
X124157714Y-76446952D01*
X124338666Y-76266000D01*
X124610095Y-76175523D01*
X124791047Y-76175523D01*
X125062476Y-76266000D01*
X125152952Y-76356476D01*
X125695809Y-76175523D02*
X126781523Y-76175523D01*
X126238666Y-78075523D02*
X126238666Y-76175523D01*
X127324380Y-77985047D02*
X127595809Y-78075523D01*
X128048190Y-78075523D01*
X128229142Y-77985047D01*
X128319619Y-77894571D01*
X128410095Y-77713619D01*
X128410095Y-77532666D01*
X128319619Y-77351714D01*
X128229142Y-77261238D01*
X128048190Y-77170761D01*
X127686285Y-77080285D01*
X127505333Y-76989809D01*
X127414857Y-76899333D01*
X127324380Y-76718380D01*
X127324380Y-76537428D01*
X127414857Y-76356476D01*
X127505333Y-76266000D01*
X127686285Y-76175523D01*
X128138666Y-76175523D01*
X128410095Y-76266000D01*
X122348190Y-85695523D02*
X121714857Y-84790761D01*
X121262476Y-85695523D02*
X121262476Y-83795523D01*
X121986285Y-83795523D01*
X122167238Y-83886000D01*
X122257714Y-83976476D01*
X122348190Y-84157428D01*
X122348190Y-84428857D01*
X122257714Y-84609809D01*
X122167238Y-84700285D01*
X121986285Y-84790761D01*
X121262476Y-84790761D01*
X122981523Y-83795523D02*
X124248190Y-85695523D01*
X124248190Y-83795523D02*
X122981523Y-85695523D01*
X124972000Y-85695523D02*
X124972000Y-83795523D01*
X125424380Y-83795523D01*
X125695809Y-83886000D01*
X125876761Y-84066952D01*
X125967238Y-84247904D01*
X126057714Y-84609809D01*
X126057714Y-84881238D01*
X125967238Y-85243142D01*
X125876761Y-85424095D01*
X125695809Y-85605047D01*
X125424380Y-85695523D01*
X124972000Y-85695523D01*
X128319619Y-84428857D02*
X126872000Y-84971714D01*
X128319619Y-85514571D01*
X123976761Y-78715523D02*
X125152952Y-78715523D01*
X124519619Y-79439333D01*
X124791047Y-79439333D01*
X124972000Y-79529809D01*
X125062476Y-79620285D01*
X125152952Y-79801238D01*
X125152952Y-80253619D01*
X125062476Y-80434571D01*
X124972000Y-80525047D01*
X124791047Y-80615523D01*
X124248190Y-80615523D01*
X124067238Y-80525047D01*
X123976761Y-80434571D01*
X125786285Y-79348857D02*
X126238666Y-80615523D01*
X126691047Y-79348857D01*
X127233904Y-78715523D02*
X128410095Y-78715523D01*
X127776761Y-79439333D01*
X128048190Y-79439333D01*
X128229142Y-79529809D01*
X128319619Y-79620285D01*
X128410095Y-79801238D01*
X128410095Y-80253619D01*
X128319619Y-80434571D01*
X128229142Y-80525047D01*
X128048190Y-80615523D01*
X127505333Y-80615523D01*
X127324380Y-80525047D01*
X127233904Y-80434571D01*
X122348190Y-103475523D02*
X121714857Y-102570761D01*
X121262476Y-103475523D02*
X121262476Y-101575523D01*
X121986285Y-101575523D01*
X122167238Y-101666000D01*
X122257714Y-101756476D01*
X122348190Y-101937428D01*
X122348190Y-102208857D01*
X122257714Y-102389809D01*
X122167238Y-102480285D01*
X121986285Y-102570761D01*
X121262476Y-102570761D01*
X122981523Y-101575523D02*
X124248190Y-103475523D01*
X124248190Y-101575523D02*
X122981523Y-103475523D01*
X124972000Y-103475523D02*
X124972000Y-101575523D01*
X125424380Y-101575523D01*
X125695809Y-101666000D01*
X125876761Y-101846952D01*
X125967238Y-102027904D01*
X126057714Y-102389809D01*
X126057714Y-102661238D01*
X125967238Y-103023142D01*
X125876761Y-103204095D01*
X125695809Y-103385047D01*
X125424380Y-103475523D01*
X124972000Y-103475523D01*
X128319619Y-102208857D02*
X126872000Y-102751714D01*
X128319619Y-103294571D01*
X121443428Y-99035523D02*
X122529142Y-99035523D01*
X121986285Y-100935523D02*
X121986285Y-99035523D01*
X122981523Y-99035523D02*
X124248190Y-100935523D01*
X124248190Y-99035523D02*
X122981523Y-100935523D01*
X124972000Y-100935523D02*
X124972000Y-99035523D01*
X125424380Y-99035523D01*
X125695809Y-99126000D01*
X125876761Y-99306952D01*
X125967238Y-99487904D01*
X126057714Y-99849809D01*
X126057714Y-100121238D01*
X125967238Y-100483142D01*
X125876761Y-100664095D01*
X125695809Y-100845047D01*
X125424380Y-100935523D01*
X124972000Y-100935523D01*
X126872000Y-99668857D02*
X128319619Y-100211714D01*
X126872000Y-100754571D01*
X123976761Y-96495523D02*
X125152952Y-96495523D01*
X124519619Y-97219333D01*
X124791047Y-97219333D01*
X124972000Y-97309809D01*
X125062476Y-97400285D01*
X125152952Y-97581238D01*
X125152952Y-98033619D01*
X125062476Y-98214571D01*
X124972000Y-98305047D01*
X124791047Y-98395523D01*
X124248190Y-98395523D01*
X124067238Y-98305047D01*
X123976761Y-98214571D01*
X125786285Y-97128857D02*
X126238666Y-98395523D01*
X126691047Y-97128857D01*
X127233904Y-96495523D02*
X128410095Y-96495523D01*
X127776761Y-97219333D01*
X128048190Y-97219333D01*
X128229142Y-97309809D01*
X128319619Y-97400285D01*
X128410095Y-97581238D01*
X128410095Y-98033619D01*
X128319619Y-98214571D01*
X128229142Y-98305047D01*
X128048190Y-98395523D01*
X127505333Y-98395523D01*
X127324380Y-98305047D01*
X127233904Y-98214571D01*
X125152952Y-95674571D02*
X125062476Y-95765047D01*
X124791047Y-95855523D01*
X124610095Y-95855523D01*
X124338666Y-95765047D01*
X124157714Y-95584095D01*
X124067238Y-95403142D01*
X123976761Y-95041238D01*
X123976761Y-94769809D01*
X124067238Y-94407904D01*
X124157714Y-94226952D01*
X124338666Y-94046000D01*
X124610095Y-93955523D01*
X124791047Y-93955523D01*
X125062476Y-94046000D01*
X125152952Y-94136476D01*
X125695809Y-93955523D02*
X126781523Y-93955523D01*
X126238666Y-95855523D02*
X126238666Y-93955523D01*
X127324380Y-95765047D02*
X127595809Y-95855523D01*
X128048190Y-95855523D01*
X128229142Y-95765047D01*
X128319619Y-95674571D01*
X128410095Y-95493619D01*
X128410095Y-95312666D01*
X128319619Y-95131714D01*
X128229142Y-95041238D01*
X128048190Y-94950761D01*
X127686285Y-94860285D01*
X127505333Y-94769809D01*
X127414857Y-94679333D01*
X127324380Y-94498380D01*
X127324380Y-94317428D01*
X127414857Y-94136476D01*
X127505333Y-94046000D01*
X127686285Y-93955523D01*
X128138666Y-93955523D01*
X128410095Y-94046000D01*
X124429142Y-91506000D02*
X124248190Y-91415523D01*
X123976761Y-91415523D01*
X123705333Y-91506000D01*
X123524380Y-91686952D01*
X123433904Y-91867904D01*
X123343428Y-92229809D01*
X123343428Y-92501238D01*
X123433904Y-92863142D01*
X123524380Y-93044095D01*
X123705333Y-93225047D01*
X123976761Y-93315523D01*
X124157714Y-93315523D01*
X124429142Y-93225047D01*
X124519619Y-93134571D01*
X124519619Y-92501238D01*
X124157714Y-92501238D01*
X125333904Y-93315523D02*
X125333904Y-91415523D01*
X126419619Y-93315523D01*
X126419619Y-91415523D01*
X127324380Y-93315523D02*
X127324380Y-91415523D01*
X127776761Y-91415523D01*
X128048190Y-91506000D01*
X128229142Y-91686952D01*
X128319619Y-91867904D01*
X128410095Y-92229809D01*
X128410095Y-92501238D01*
X128319619Y-92863142D01*
X128229142Y-93044095D01*
X128048190Y-93225047D01*
X127776761Y-93315523D01*
X127324380Y-93315523D01*
X125152952Y-60114571D02*
X125062476Y-60205047D01*
X124791047Y-60295523D01*
X124610095Y-60295523D01*
X124338666Y-60205047D01*
X124157714Y-60024095D01*
X124067238Y-59843142D01*
X123976761Y-59481238D01*
X123976761Y-59209809D01*
X124067238Y-58847904D01*
X124157714Y-58666952D01*
X124338666Y-58486000D01*
X124610095Y-58395523D01*
X124791047Y-58395523D01*
X125062476Y-58486000D01*
X125152952Y-58576476D01*
X125695809Y-58395523D02*
X126781523Y-58395523D01*
X126238666Y-60295523D02*
X126238666Y-58395523D01*
X127324380Y-60205047D02*
X127595809Y-60295523D01*
X128048190Y-60295523D01*
X128229142Y-60205047D01*
X128319619Y-60114571D01*
X128410095Y-59933619D01*
X128410095Y-59752666D01*
X128319619Y-59571714D01*
X128229142Y-59481238D01*
X128048190Y-59390761D01*
X127686285Y-59300285D01*
X127505333Y-59209809D01*
X127414857Y-59119333D01*
X127324380Y-58938380D01*
X127324380Y-58757428D01*
X127414857Y-58576476D01*
X127505333Y-58486000D01*
X127686285Y-58395523D01*
X128138666Y-58395523D01*
X128410095Y-58486000D01*
X125152952Y-70455523D02*
X124519619Y-69550761D01*
X124067238Y-70455523D02*
X124067238Y-68555523D01*
X124791047Y-68555523D01*
X124972000Y-68646000D01*
X125062476Y-68736476D01*
X125152952Y-68917428D01*
X125152952Y-69188857D01*
X125062476Y-69369809D01*
X124972000Y-69460285D01*
X124791047Y-69550761D01*
X124067238Y-69550761D01*
X125695809Y-68555523D02*
X126781523Y-68555523D01*
X126238666Y-70455523D02*
X126238666Y-68555523D01*
X127324380Y-70365047D02*
X127595809Y-70455523D01*
X128048190Y-70455523D01*
X128229142Y-70365047D01*
X128319619Y-70274571D01*
X128410095Y-70093619D01*
X128410095Y-69912666D01*
X128319619Y-69731714D01*
X128229142Y-69641238D01*
X128048190Y-69550761D01*
X127686285Y-69460285D01*
X127505333Y-69369809D01*
X127414857Y-69279333D01*
X127324380Y-69098380D01*
X127324380Y-68917428D01*
X127414857Y-68736476D01*
X127505333Y-68646000D01*
X127686285Y-68555523D01*
X128138666Y-68555523D01*
X128410095Y-68646000D01*
X122348190Y-65375523D02*
X121714857Y-64470761D01*
X121262476Y-65375523D02*
X121262476Y-63475523D01*
X121986285Y-63475523D01*
X122167238Y-63566000D01*
X122257714Y-63656476D01*
X122348190Y-63837428D01*
X122348190Y-64108857D01*
X122257714Y-64289809D01*
X122167238Y-64380285D01*
X121986285Y-64470761D01*
X121262476Y-64470761D01*
X122981523Y-63475523D02*
X124248190Y-65375523D01*
X124248190Y-63475523D02*
X122981523Y-65375523D01*
X124972000Y-65375523D02*
X124972000Y-63475523D01*
X125424380Y-63475523D01*
X125695809Y-63566000D01*
X125876761Y-63746952D01*
X125967238Y-63927904D01*
X126057714Y-64289809D01*
X126057714Y-64561238D01*
X125967238Y-64923142D01*
X125876761Y-65104095D01*
X125695809Y-65285047D01*
X125424380Y-65375523D01*
X124972000Y-65375523D01*
X128319619Y-64108857D02*
X126872000Y-64651714D01*
X128319619Y-65194571D01*
X123976761Y-67915523D02*
X123976761Y-66015523D01*
X124429142Y-66015523D01*
X124700571Y-66106000D01*
X124881523Y-66286952D01*
X124972000Y-66467904D01*
X125062476Y-66829809D01*
X125062476Y-67101238D01*
X124972000Y-67463142D01*
X124881523Y-67644095D01*
X124700571Y-67825047D01*
X124429142Y-67915523D01*
X123976761Y-67915523D01*
X125605333Y-66015523D02*
X126691047Y-66015523D01*
X126148190Y-67915523D02*
X126148190Y-66015523D01*
X128410095Y-67915523D02*
X127776761Y-67010761D01*
X127324380Y-67915523D02*
X127324380Y-66015523D01*
X128048190Y-66015523D01*
X128229142Y-66106000D01*
X128319619Y-66196476D01*
X128410095Y-66377428D01*
X128410095Y-66648857D01*
X128319619Y-66829809D01*
X128229142Y-66920285D01*
X128048190Y-67010761D01*
X127324380Y-67010761D01*
X121443428Y-60935523D02*
X122529142Y-60935523D01*
X121986285Y-62835523D02*
X121986285Y-60935523D01*
X122981523Y-60935523D02*
X124248190Y-62835523D01*
X124248190Y-60935523D02*
X122981523Y-62835523D01*
X124972000Y-62835523D02*
X124972000Y-60935523D01*
X125424380Y-60935523D01*
X125695809Y-61026000D01*
X125876761Y-61206952D01*
X125967238Y-61387904D01*
X126057714Y-61749809D01*
X126057714Y-62021238D01*
X125967238Y-62383142D01*
X125876761Y-62564095D01*
X125695809Y-62745047D01*
X125424380Y-62835523D01*
X124972000Y-62835523D01*
X126872000Y-61568857D02*
X128319619Y-62111714D01*
X126872000Y-62654571D01*
X124429142Y-53406000D02*
X124248190Y-53315523D01*
X123976761Y-53315523D01*
X123705333Y-53406000D01*
X123524380Y-53586952D01*
X123433904Y-53767904D01*
X123343428Y-54129809D01*
X123343428Y-54401238D01*
X123433904Y-54763142D01*
X123524380Y-54944095D01*
X123705333Y-55125047D01*
X123976761Y-55215523D01*
X124157714Y-55215523D01*
X124429142Y-55125047D01*
X124519619Y-55034571D01*
X124519619Y-54401238D01*
X124157714Y-54401238D01*
X125333904Y-55215523D02*
X125333904Y-53315523D01*
X126419619Y-55215523D01*
X126419619Y-53315523D01*
X127324380Y-55215523D02*
X127324380Y-53315523D01*
X127776761Y-53315523D01*
X128048190Y-53406000D01*
X128229142Y-53586952D01*
X128319619Y-53767904D01*
X128410095Y-54129809D01*
X128410095Y-54401238D01*
X128319619Y-54763142D01*
X128229142Y-54944095D01*
X128048190Y-55125047D01*
X127776761Y-55215523D01*
X127324380Y-55215523D01*
X123976761Y-55855523D02*
X125152952Y-55855523D01*
X124519619Y-56579333D01*
X124791047Y-56579333D01*
X124972000Y-56669809D01*
X125062476Y-56760285D01*
X125152952Y-56941238D01*
X125152952Y-57393619D01*
X125062476Y-57574571D01*
X124972000Y-57665047D01*
X124791047Y-57755523D01*
X124248190Y-57755523D01*
X124067238Y-57665047D01*
X123976761Y-57574571D01*
X125786285Y-56488857D02*
X126238666Y-57755523D01*
X126691047Y-56488857D01*
X127233904Y-55855523D02*
X128410095Y-55855523D01*
X127776761Y-56579333D01*
X128048190Y-56579333D01*
X128229142Y-56669809D01*
X128319619Y-56760285D01*
X128410095Y-56941238D01*
X128410095Y-57393619D01*
X128319619Y-57574571D01*
X128229142Y-57665047D01*
X128048190Y-57755523D01*
X127505333Y-57755523D01*
X127324380Y-57665047D01*
X127233904Y-57574571D01*
X123976761Y-123795523D02*
X123976761Y-121895523D01*
X124429142Y-121895523D01*
X124700571Y-121986000D01*
X124881523Y-122166952D01*
X124972000Y-122347904D01*
X125062476Y-122709809D01*
X125062476Y-122981238D01*
X124972000Y-123343142D01*
X124881523Y-123524095D01*
X124700571Y-123705047D01*
X124429142Y-123795523D01*
X123976761Y-123795523D01*
X125605333Y-121895523D02*
X126691047Y-121895523D01*
X126148190Y-123795523D02*
X126148190Y-121895523D01*
X128410095Y-123795523D02*
X127776761Y-122890761D01*
X127324380Y-123795523D02*
X127324380Y-121895523D01*
X128048190Y-121895523D01*
X128229142Y-121986000D01*
X128319619Y-122076476D01*
X128410095Y-122257428D01*
X128410095Y-122528857D01*
X128319619Y-122709809D01*
X128229142Y-122800285D01*
X128048190Y-122890761D01*
X127324380Y-122890761D01*
X121443428Y-116815523D02*
X122529142Y-116815523D01*
X121986285Y-118715523D02*
X121986285Y-116815523D01*
X122981523Y-116815523D02*
X124248190Y-118715523D01*
X124248190Y-116815523D02*
X122981523Y-118715523D01*
X124972000Y-118715523D02*
X124972000Y-116815523D01*
X125424380Y-116815523D01*
X125695809Y-116906000D01*
X125876761Y-117086952D01*
X125967238Y-117267904D01*
X126057714Y-117629809D01*
X126057714Y-117901238D01*
X125967238Y-118263142D01*
X125876761Y-118444095D01*
X125695809Y-118625047D01*
X125424380Y-118715523D01*
X124972000Y-118715523D01*
X126872000Y-117448857D02*
X128319619Y-117991714D01*
X126872000Y-118534571D01*
X124429142Y-109286000D02*
X124248190Y-109195523D01*
X123976761Y-109195523D01*
X123705333Y-109286000D01*
X123524380Y-109466952D01*
X123433904Y-109647904D01*
X123343428Y-110009809D01*
X123343428Y-110281238D01*
X123433904Y-110643142D01*
X123524380Y-110824095D01*
X123705333Y-111005047D01*
X123976761Y-111095523D01*
X124157714Y-111095523D01*
X124429142Y-111005047D01*
X124519619Y-110914571D01*
X124519619Y-110281238D01*
X124157714Y-110281238D01*
X125333904Y-111095523D02*
X125333904Y-109195523D01*
X126419619Y-111095523D01*
X126419619Y-109195523D01*
X127324380Y-111095523D02*
X127324380Y-109195523D01*
X127776761Y-109195523D01*
X128048190Y-109286000D01*
X128229142Y-109466952D01*
X128319619Y-109647904D01*
X128410095Y-110009809D01*
X128410095Y-110281238D01*
X128319619Y-110643142D01*
X128229142Y-110824095D01*
X128048190Y-111005047D01*
X127776761Y-111095523D01*
X127324380Y-111095523D01*
X125152952Y-115994571D02*
X125062476Y-116085047D01*
X124791047Y-116175523D01*
X124610095Y-116175523D01*
X124338666Y-116085047D01*
X124157714Y-115904095D01*
X124067238Y-115723142D01*
X123976761Y-115361238D01*
X123976761Y-115089809D01*
X124067238Y-114727904D01*
X124157714Y-114546952D01*
X124338666Y-114366000D01*
X124610095Y-114275523D01*
X124791047Y-114275523D01*
X125062476Y-114366000D01*
X125152952Y-114456476D01*
X125695809Y-114275523D02*
X126781523Y-114275523D01*
X126238666Y-116175523D02*
X126238666Y-114275523D01*
X127324380Y-116085047D02*
X127595809Y-116175523D01*
X128048190Y-116175523D01*
X128229142Y-116085047D01*
X128319619Y-115994571D01*
X128410095Y-115813619D01*
X128410095Y-115632666D01*
X128319619Y-115451714D01*
X128229142Y-115361238D01*
X128048190Y-115270761D01*
X127686285Y-115180285D01*
X127505333Y-115089809D01*
X127414857Y-114999333D01*
X127324380Y-114818380D01*
X127324380Y-114637428D01*
X127414857Y-114456476D01*
X127505333Y-114366000D01*
X127686285Y-114275523D01*
X128138666Y-114275523D01*
X128410095Y-114366000D01*
X122348190Y-121255523D02*
X121714857Y-120350761D01*
X121262476Y-121255523D02*
X121262476Y-119355523D01*
X121986285Y-119355523D01*
X122167238Y-119446000D01*
X122257714Y-119536476D01*
X122348190Y-119717428D01*
X122348190Y-119988857D01*
X122257714Y-120169809D01*
X122167238Y-120260285D01*
X121986285Y-120350761D01*
X121262476Y-120350761D01*
X122981523Y-119355523D02*
X124248190Y-121255523D01*
X124248190Y-119355523D02*
X122981523Y-121255523D01*
X124972000Y-121255523D02*
X124972000Y-119355523D01*
X125424380Y-119355523D01*
X125695809Y-119446000D01*
X125876761Y-119626952D01*
X125967238Y-119807904D01*
X126057714Y-120169809D01*
X126057714Y-120441238D01*
X125967238Y-120803142D01*
X125876761Y-120984095D01*
X125695809Y-121165047D01*
X125424380Y-121255523D01*
X124972000Y-121255523D01*
X128319619Y-119988857D02*
X126872000Y-120531714D01*
X128319619Y-121074571D01*
X125152952Y-126335523D02*
X124519619Y-125430761D01*
X124067238Y-126335523D02*
X124067238Y-124435523D01*
X124791047Y-124435523D01*
X124972000Y-124526000D01*
X125062476Y-124616476D01*
X125152952Y-124797428D01*
X125152952Y-125068857D01*
X125062476Y-125249809D01*
X124972000Y-125340285D01*
X124791047Y-125430761D01*
X124067238Y-125430761D01*
X125695809Y-124435523D02*
X126781523Y-124435523D01*
X126238666Y-126335523D02*
X126238666Y-124435523D01*
X127324380Y-126245047D02*
X127595809Y-126335523D01*
X128048190Y-126335523D01*
X128229142Y-126245047D01*
X128319619Y-126154571D01*
X128410095Y-125973619D01*
X128410095Y-125792666D01*
X128319619Y-125611714D01*
X128229142Y-125521238D01*
X128048190Y-125430761D01*
X127686285Y-125340285D01*
X127505333Y-125249809D01*
X127414857Y-125159333D01*
X127324380Y-124978380D01*
X127324380Y-124797428D01*
X127414857Y-124616476D01*
X127505333Y-124526000D01*
X127686285Y-124435523D01*
X128138666Y-124435523D01*
X128410095Y-124526000D01*
X123976761Y-111735523D02*
X125152952Y-111735523D01*
X124519619Y-112459333D01*
X124791047Y-112459333D01*
X124972000Y-112549809D01*
X125062476Y-112640285D01*
X125152952Y-112821238D01*
X125152952Y-113273619D01*
X125062476Y-113454571D01*
X124972000Y-113545047D01*
X124791047Y-113635523D01*
X124248190Y-113635523D01*
X124067238Y-113545047D01*
X123976761Y-113454571D01*
X125786285Y-112368857D02*
X126238666Y-113635523D01*
X126691047Y-112368857D01*
X127233904Y-111735523D02*
X128410095Y-111735523D01*
X127776761Y-112459333D01*
X128048190Y-112459333D01*
X128229142Y-112549809D01*
X128319619Y-112640285D01*
X128410095Y-112821238D01*
X128410095Y-113273619D01*
X128319619Y-113454571D01*
X128229142Y-113545047D01*
X128048190Y-113635523D01*
X127505333Y-113635523D01*
X127324380Y-113545047D01*
X127233904Y-113454571D01*
X69672380Y-121732000D02*
X69491428Y-121641523D01*
X69220000Y-121641523D01*
X68948571Y-121732000D01*
X68767619Y-121912952D01*
X68677142Y-122093904D01*
X68586666Y-122455809D01*
X68586666Y-122727238D01*
X68677142Y-123089142D01*
X68767619Y-123270095D01*
X68948571Y-123451047D01*
X69220000Y-123541523D01*
X69400952Y-123541523D01*
X69672380Y-123451047D01*
X69762857Y-123360571D01*
X69762857Y-122727238D01*
X69400952Y-122727238D01*
X70577142Y-123541523D02*
X70577142Y-121641523D01*
X71662857Y-123541523D01*
X71662857Y-121641523D01*
X72567619Y-123541523D02*
X72567619Y-121641523D01*
X73020000Y-121641523D01*
X73291428Y-121732000D01*
X73472380Y-121912952D01*
X73562857Y-122093904D01*
X73653333Y-122455809D01*
X73653333Y-122727238D01*
X73562857Y-123089142D01*
X73472380Y-123270095D01*
X73291428Y-123451047D01*
X73020000Y-123541523D01*
X72567619Y-123541523D01*
X74954095Y-121641523D02*
X76130285Y-121641523D01*
X75496952Y-122365333D01*
X75768380Y-122365333D01*
X75949333Y-122455809D01*
X76039809Y-122546285D01*
X76130285Y-122727238D01*
X76130285Y-123179619D01*
X76039809Y-123360571D01*
X75949333Y-123451047D01*
X75768380Y-123541523D01*
X75225523Y-123541523D01*
X75044571Y-123451047D01*
X74954095Y-123360571D01*
X76763619Y-122274857D02*
X77216000Y-123541523D01*
X77668380Y-122274857D01*
X78211238Y-121641523D02*
X79387428Y-121641523D01*
X78754095Y-122365333D01*
X79025523Y-122365333D01*
X79206476Y-122455809D01*
X79296952Y-122546285D01*
X79387428Y-122727238D01*
X79387428Y-123179619D01*
X79296952Y-123360571D01*
X79206476Y-123451047D01*
X79025523Y-123541523D01*
X78482666Y-123541523D01*
X78301714Y-123451047D01*
X78211238Y-123360571D01*
X117678380Y-56581000D02*
X117497428Y-56490523D01*
X117226000Y-56490523D01*
X116954571Y-56581000D01*
X116773619Y-56761952D01*
X116683142Y-56942904D01*
X116592666Y-57304809D01*
X116592666Y-57576238D01*
X116683142Y-57938142D01*
X116773619Y-58119095D01*
X116954571Y-58300047D01*
X117226000Y-58390523D01*
X117406952Y-58390523D01*
X117678380Y-58300047D01*
X117768857Y-58209571D01*
X117768857Y-57576238D01*
X117406952Y-57576238D01*
X118583142Y-58390523D02*
X118583142Y-56490523D01*
X119668857Y-58390523D01*
X119668857Y-56490523D01*
X120573619Y-58390523D02*
X120573619Y-56490523D01*
X121026000Y-56490523D01*
X121297428Y-56581000D01*
X121478380Y-56761952D01*
X121568857Y-56942904D01*
X121659333Y-57304809D01*
X121659333Y-57576238D01*
X121568857Y-57938142D01*
X121478380Y-58119095D01*
X121297428Y-58300047D01*
X121026000Y-58390523D01*
X120573619Y-58390523D01*
X110514095Y-56490523D02*
X111690285Y-56490523D01*
X111056952Y-57214333D01*
X111328380Y-57214333D01*
X111509333Y-57304809D01*
X111599809Y-57395285D01*
X111690285Y-57576238D01*
X111690285Y-58028619D01*
X111599809Y-58209571D01*
X111509333Y-58300047D01*
X111328380Y-58390523D01*
X110785523Y-58390523D01*
X110604571Y-58300047D01*
X110514095Y-58209571D01*
X112323619Y-57123857D02*
X112776000Y-58390523D01*
X113228380Y-57123857D01*
X113771238Y-56490523D02*
X114947428Y-56490523D01*
X114314095Y-57214333D01*
X114585523Y-57214333D01*
X114766476Y-57304809D01*
X114856952Y-57395285D01*
X114947428Y-57576238D01*
X114947428Y-58028619D01*
X114856952Y-58209571D01*
X114766476Y-58300047D01*
X114585523Y-58390523D01*
X114042666Y-58390523D01*
X113861714Y-58300047D01*
X113771238Y-58209571D01*
X106561714Y-57225714D02*
X106471238Y-57497142D01*
X106380761Y-57587619D01*
X106199809Y-57678095D01*
X105928380Y-57678095D01*
X105747428Y-57587619D01*
X105656952Y-57497142D01*
X105566476Y-57316190D01*
X105566476Y-56592380D01*
X107466476Y-56592380D01*
X107466476Y-57225714D01*
X107376000Y-57406666D01*
X107285523Y-57497142D01*
X107104571Y-57587619D01*
X106923619Y-57587619D01*
X106742666Y-57497142D01*
X106652190Y-57406666D01*
X106561714Y-57225714D01*
X106561714Y-56592380D01*
X105566476Y-58492380D02*
X107466476Y-58492380D01*
X107466476Y-58944761D01*
X107376000Y-59216190D01*
X107195047Y-59397142D01*
X107014095Y-59487619D01*
X106652190Y-59578095D01*
X106380761Y-59578095D01*
X106018857Y-59487619D01*
X105837904Y-59397142D01*
X105656952Y-59216190D01*
X105566476Y-58944761D01*
X105566476Y-58492380D01*
X105566476Y-61387619D02*
X105566476Y-60301904D01*
X105566476Y-60844761D02*
X107466476Y-60844761D01*
X107195047Y-60663809D01*
X107014095Y-60482857D01*
X106923619Y-60301904D01*
X107556952Y-63559047D02*
X105114095Y-61930476D01*
X107466476Y-63920952D02*
X107466476Y-65006666D01*
X105566476Y-64463809D02*
X107466476Y-64463809D01*
X105566476Y-65640000D02*
X107466476Y-65640000D01*
X107466476Y-66092380D01*
X107376000Y-66363809D01*
X107195047Y-66544761D01*
X107014095Y-66635238D01*
X106652190Y-66725714D01*
X106380761Y-66725714D01*
X106018857Y-66635238D01*
X105837904Y-66544761D01*
X105656952Y-66363809D01*
X105566476Y-66092380D01*
X105566476Y-65640000D01*
X105566476Y-67540000D02*
X107466476Y-67540000D01*
X76081714Y-57225714D02*
X75991238Y-57497142D01*
X75900761Y-57587619D01*
X75719809Y-57678095D01*
X75448380Y-57678095D01*
X75267428Y-57587619D01*
X75176952Y-57497142D01*
X75086476Y-57316190D01*
X75086476Y-56592380D01*
X76986476Y-56592380D01*
X76986476Y-57225714D01*
X76896000Y-57406666D01*
X76805523Y-57497142D01*
X76624571Y-57587619D01*
X76443619Y-57587619D01*
X76262666Y-57497142D01*
X76172190Y-57406666D01*
X76081714Y-57225714D01*
X76081714Y-56592380D01*
X75267428Y-59578095D02*
X75176952Y-59487619D01*
X75086476Y-59216190D01*
X75086476Y-59035238D01*
X75176952Y-58763809D01*
X75357904Y-58582857D01*
X75538857Y-58492380D01*
X75900761Y-58401904D01*
X76172190Y-58401904D01*
X76534095Y-58492380D01*
X76715047Y-58582857D01*
X76896000Y-58763809D01*
X76986476Y-59035238D01*
X76986476Y-59216190D01*
X76896000Y-59487619D01*
X76805523Y-59578095D01*
X76986476Y-61297142D02*
X76986476Y-60392380D01*
X76081714Y-60301904D01*
X76172190Y-60392380D01*
X76262666Y-60573333D01*
X76262666Y-61025714D01*
X76172190Y-61206666D01*
X76081714Y-61297142D01*
X75900761Y-61387619D01*
X75448380Y-61387619D01*
X75267428Y-61297142D01*
X75176952Y-61206666D01*
X75086476Y-61025714D01*
X75086476Y-60573333D01*
X75176952Y-60392380D01*
X75267428Y-60301904D01*
X86241714Y-57225714D02*
X86151238Y-57497142D01*
X86060761Y-57587619D01*
X85879809Y-57678095D01*
X85608380Y-57678095D01*
X85427428Y-57587619D01*
X85336952Y-57497142D01*
X85246476Y-57316190D01*
X85246476Y-56592380D01*
X87146476Y-56592380D01*
X87146476Y-57225714D01*
X87056000Y-57406666D01*
X86965523Y-57497142D01*
X86784571Y-57587619D01*
X86603619Y-57587619D01*
X86422666Y-57497142D01*
X86332190Y-57406666D01*
X86241714Y-57225714D01*
X86241714Y-56592380D01*
X85427428Y-59578095D02*
X85336952Y-59487619D01*
X85246476Y-59216190D01*
X85246476Y-59035238D01*
X85336952Y-58763809D01*
X85517904Y-58582857D01*
X85698857Y-58492380D01*
X86060761Y-58401904D01*
X86332190Y-58401904D01*
X86694095Y-58492380D01*
X86875047Y-58582857D01*
X87056000Y-58763809D01*
X87146476Y-59035238D01*
X87146476Y-59216190D01*
X87056000Y-59487619D01*
X86965523Y-59578095D01*
X85246476Y-61387619D02*
X85246476Y-60301904D01*
X85246476Y-60844761D02*
X87146476Y-60844761D01*
X86875047Y-60663809D01*
X86694095Y-60482857D01*
X86603619Y-60301904D01*
X101481714Y-57225714D02*
X101391238Y-57497142D01*
X101300761Y-57587619D01*
X101119809Y-57678095D01*
X100848380Y-57678095D01*
X100667428Y-57587619D01*
X100576952Y-57497142D01*
X100486476Y-57316190D01*
X100486476Y-56592380D01*
X102386476Y-56592380D01*
X102386476Y-57225714D01*
X102296000Y-57406666D01*
X102205523Y-57497142D01*
X102024571Y-57587619D01*
X101843619Y-57587619D01*
X101662666Y-57497142D01*
X101572190Y-57406666D01*
X101481714Y-57225714D01*
X101481714Y-56592380D01*
X100486476Y-58492380D02*
X102386476Y-58492380D01*
X102386476Y-58944761D01*
X102296000Y-59216190D01*
X102115047Y-59397142D01*
X101934095Y-59487619D01*
X101572190Y-59578095D01*
X101300761Y-59578095D01*
X100938857Y-59487619D01*
X100757904Y-59397142D01*
X100576952Y-59216190D01*
X100486476Y-58944761D01*
X100486476Y-58492380D01*
X102386476Y-60211428D02*
X102386476Y-61387619D01*
X101662666Y-60754285D01*
X101662666Y-61025714D01*
X101572190Y-61206666D01*
X101481714Y-61297142D01*
X101300761Y-61387619D01*
X100848380Y-61387619D01*
X100667428Y-61297142D01*
X100576952Y-61206666D01*
X100486476Y-61025714D01*
X100486476Y-60482857D01*
X100576952Y-60301904D01*
X100667428Y-60211428D01*
X102476952Y-63559047D02*
X100034095Y-61930476D01*
X102386476Y-63920952D02*
X102386476Y-65006666D01*
X100486476Y-64463809D02*
X102386476Y-64463809D01*
X100486476Y-65640000D02*
X102386476Y-65640000D01*
X101029333Y-66273333D01*
X102386476Y-66906666D01*
X100486476Y-66906666D01*
X100576952Y-67720952D02*
X100486476Y-67992380D01*
X100486476Y-68444761D01*
X100576952Y-68625714D01*
X100667428Y-68716190D01*
X100848380Y-68806666D01*
X101029333Y-68806666D01*
X101210285Y-68716190D01*
X101300761Y-68625714D01*
X101391238Y-68444761D01*
X101481714Y-68082857D01*
X101572190Y-67901904D01*
X101662666Y-67811428D01*
X101843619Y-67720952D01*
X102024571Y-67720952D01*
X102205523Y-67811428D01*
X102296000Y-67901904D01*
X102386476Y-68082857D01*
X102386476Y-68535238D01*
X102296000Y-68806666D01*
X109101714Y-57225714D02*
X109011238Y-57497142D01*
X108920761Y-57587619D01*
X108739809Y-57678095D01*
X108468380Y-57678095D01*
X108287428Y-57587619D01*
X108196952Y-57497142D01*
X108106476Y-57316190D01*
X108106476Y-56592380D01*
X110006476Y-56592380D01*
X110006476Y-57225714D01*
X109916000Y-57406666D01*
X109825523Y-57497142D01*
X109644571Y-57587619D01*
X109463619Y-57587619D01*
X109282666Y-57497142D01*
X109192190Y-57406666D01*
X109101714Y-57225714D01*
X109101714Y-56592380D01*
X108106476Y-58492380D02*
X110006476Y-58492380D01*
X110006476Y-58944761D01*
X109916000Y-59216190D01*
X109735047Y-59397142D01*
X109554095Y-59487619D01*
X109192190Y-59578095D01*
X108920761Y-59578095D01*
X108558857Y-59487619D01*
X108377904Y-59397142D01*
X108196952Y-59216190D01*
X108106476Y-58944761D01*
X108106476Y-58492380D01*
X110006476Y-60754285D02*
X110006476Y-60935238D01*
X109916000Y-61116190D01*
X109825523Y-61206666D01*
X109644571Y-61297142D01*
X109282666Y-61387619D01*
X108830285Y-61387619D01*
X108468380Y-61297142D01*
X108287428Y-61206666D01*
X108196952Y-61116190D01*
X108106476Y-60935238D01*
X108106476Y-60754285D01*
X108196952Y-60573333D01*
X108287428Y-60482857D01*
X108468380Y-60392380D01*
X108830285Y-60301904D01*
X109282666Y-60301904D01*
X109644571Y-60392380D01*
X109825523Y-60482857D01*
X109916000Y-60573333D01*
X110006476Y-60754285D01*
X110096952Y-63559047D02*
X107654095Y-61930476D01*
X110006476Y-63920952D02*
X110006476Y-65006666D01*
X108106476Y-64463809D02*
X110006476Y-64463809D01*
X108287428Y-66725714D02*
X108196952Y-66635238D01*
X108106476Y-66363809D01*
X108106476Y-66182857D01*
X108196952Y-65911428D01*
X108377904Y-65730476D01*
X108558857Y-65640000D01*
X108920761Y-65549523D01*
X109192190Y-65549523D01*
X109554095Y-65640000D01*
X109735047Y-65730476D01*
X109916000Y-65911428D01*
X110006476Y-66182857D01*
X110006476Y-66363809D01*
X109916000Y-66635238D01*
X109825523Y-66725714D01*
X108106476Y-67540000D02*
X110006476Y-67540000D01*
X108106476Y-68625714D02*
X109192190Y-67811428D01*
X110006476Y-68625714D02*
X108920761Y-67540000D01*
X81161714Y-57225714D02*
X81071238Y-57497142D01*
X80980761Y-57587619D01*
X80799809Y-57678095D01*
X80528380Y-57678095D01*
X80347428Y-57587619D01*
X80256952Y-57497142D01*
X80166476Y-57316190D01*
X80166476Y-56592380D01*
X82066476Y-56592380D01*
X82066476Y-57225714D01*
X81976000Y-57406666D01*
X81885523Y-57497142D01*
X81704571Y-57587619D01*
X81523619Y-57587619D01*
X81342666Y-57497142D01*
X81252190Y-57406666D01*
X81161714Y-57225714D01*
X81161714Y-56592380D01*
X80347428Y-59578095D02*
X80256952Y-59487619D01*
X80166476Y-59216190D01*
X80166476Y-59035238D01*
X80256952Y-58763809D01*
X80437904Y-58582857D01*
X80618857Y-58492380D01*
X80980761Y-58401904D01*
X81252190Y-58401904D01*
X81614095Y-58492380D01*
X81795047Y-58582857D01*
X81976000Y-58763809D01*
X82066476Y-59035238D01*
X82066476Y-59216190D01*
X81976000Y-59487619D01*
X81885523Y-59578095D01*
X82066476Y-60211428D02*
X82066476Y-61387619D01*
X81342666Y-60754285D01*
X81342666Y-61025714D01*
X81252190Y-61206666D01*
X81161714Y-61297142D01*
X80980761Y-61387619D01*
X80528380Y-61387619D01*
X80347428Y-61297142D01*
X80256952Y-61206666D01*
X80166476Y-61025714D01*
X80166476Y-60482857D01*
X80256952Y-60301904D01*
X80347428Y-60211428D01*
X71001714Y-57225714D02*
X70911238Y-57497142D01*
X70820761Y-57587619D01*
X70639809Y-57678095D01*
X70368380Y-57678095D01*
X70187428Y-57587619D01*
X70096952Y-57497142D01*
X70006476Y-57316190D01*
X70006476Y-56592380D01*
X71906476Y-56592380D01*
X71906476Y-57225714D01*
X71816000Y-57406666D01*
X71725523Y-57497142D01*
X71544571Y-57587619D01*
X71363619Y-57587619D01*
X71182666Y-57497142D01*
X71092190Y-57406666D01*
X71001714Y-57225714D01*
X71001714Y-56592380D01*
X70187428Y-59578095D02*
X70096952Y-59487619D01*
X70006476Y-59216190D01*
X70006476Y-59035238D01*
X70096952Y-58763809D01*
X70277904Y-58582857D01*
X70458857Y-58492380D01*
X70820761Y-58401904D01*
X71092190Y-58401904D01*
X71454095Y-58492380D01*
X71635047Y-58582857D01*
X71816000Y-58763809D01*
X71906476Y-59035238D01*
X71906476Y-59216190D01*
X71816000Y-59487619D01*
X71725523Y-59578095D01*
X71906476Y-60211428D02*
X71906476Y-61478095D01*
X70006476Y-60663809D01*
X78621714Y-57225714D02*
X78531238Y-57497142D01*
X78440761Y-57587619D01*
X78259809Y-57678095D01*
X77988380Y-57678095D01*
X77807428Y-57587619D01*
X77716952Y-57497142D01*
X77626476Y-57316190D01*
X77626476Y-56592380D01*
X79526476Y-56592380D01*
X79526476Y-57225714D01*
X79436000Y-57406666D01*
X79345523Y-57497142D01*
X79164571Y-57587619D01*
X78983619Y-57587619D01*
X78802666Y-57497142D01*
X78712190Y-57406666D01*
X78621714Y-57225714D01*
X78621714Y-56592380D01*
X77807428Y-59578095D02*
X77716952Y-59487619D01*
X77626476Y-59216190D01*
X77626476Y-59035238D01*
X77716952Y-58763809D01*
X77897904Y-58582857D01*
X78078857Y-58492380D01*
X78440761Y-58401904D01*
X78712190Y-58401904D01*
X79074095Y-58492380D01*
X79255047Y-58582857D01*
X79436000Y-58763809D01*
X79526476Y-59035238D01*
X79526476Y-59216190D01*
X79436000Y-59487619D01*
X79345523Y-59578095D01*
X78893142Y-61206666D02*
X77626476Y-61206666D01*
X79616952Y-60754285D02*
X78259809Y-60301904D01*
X78259809Y-61478095D01*
X104021714Y-57225714D02*
X103931238Y-57497142D01*
X103840761Y-57587619D01*
X103659809Y-57678095D01*
X103388380Y-57678095D01*
X103207428Y-57587619D01*
X103116952Y-57497142D01*
X103026476Y-57316190D01*
X103026476Y-56592380D01*
X104926476Y-56592380D01*
X104926476Y-57225714D01*
X104836000Y-57406666D01*
X104745523Y-57497142D01*
X104564571Y-57587619D01*
X104383619Y-57587619D01*
X104202666Y-57497142D01*
X104112190Y-57406666D01*
X104021714Y-57225714D01*
X104021714Y-56592380D01*
X103026476Y-58492380D02*
X104926476Y-58492380D01*
X104926476Y-58944761D01*
X104836000Y-59216190D01*
X104655047Y-59397142D01*
X104474095Y-59487619D01*
X104112190Y-59578095D01*
X103840761Y-59578095D01*
X103478857Y-59487619D01*
X103297904Y-59397142D01*
X103116952Y-59216190D01*
X103026476Y-58944761D01*
X103026476Y-58492380D01*
X104745523Y-60301904D02*
X104836000Y-60392380D01*
X104926476Y-60573333D01*
X104926476Y-61025714D01*
X104836000Y-61206666D01*
X104745523Y-61297142D01*
X104564571Y-61387619D01*
X104383619Y-61387619D01*
X104112190Y-61297142D01*
X103026476Y-60211428D01*
X103026476Y-61387619D01*
X105016952Y-63559047D02*
X102574095Y-61930476D01*
X104926476Y-63920952D02*
X104926476Y-65006666D01*
X103026476Y-64463809D02*
X104926476Y-64463809D01*
X103026476Y-65640000D02*
X104926476Y-65640000D01*
X104926476Y-66092380D01*
X104836000Y-66363809D01*
X104655047Y-66544761D01*
X104474095Y-66635238D01*
X104112190Y-66725714D01*
X103840761Y-66725714D01*
X103478857Y-66635238D01*
X103297904Y-66544761D01*
X103116952Y-66363809D01*
X103026476Y-66092380D01*
X103026476Y-65640000D01*
X104926476Y-67901904D02*
X104926476Y-68263809D01*
X104836000Y-68444761D01*
X104655047Y-68625714D01*
X104293142Y-68716190D01*
X103659809Y-68716190D01*
X103297904Y-68625714D01*
X103116952Y-68444761D01*
X103026476Y-68263809D01*
X103026476Y-67901904D01*
X103116952Y-67720952D01*
X103297904Y-67540000D01*
X103659809Y-67449523D01*
X104293142Y-67449523D01*
X104655047Y-67540000D01*
X104836000Y-67720952D01*
X104926476Y-67901904D01*
X91321714Y-57225714D02*
X91231238Y-57497142D01*
X91140761Y-57587619D01*
X90959809Y-57678095D01*
X90688380Y-57678095D01*
X90507428Y-57587619D01*
X90416952Y-57497142D01*
X90326476Y-57316190D01*
X90326476Y-56592380D01*
X92226476Y-56592380D01*
X92226476Y-57225714D01*
X92136000Y-57406666D01*
X92045523Y-57497142D01*
X91864571Y-57587619D01*
X91683619Y-57587619D01*
X91502666Y-57497142D01*
X91412190Y-57406666D01*
X91321714Y-57225714D01*
X91321714Y-56592380D01*
X90326476Y-58492380D02*
X92226476Y-58492380D01*
X92226476Y-58944761D01*
X92136000Y-59216190D01*
X91955047Y-59397142D01*
X91774095Y-59487619D01*
X91412190Y-59578095D01*
X91140761Y-59578095D01*
X90778857Y-59487619D01*
X90597904Y-59397142D01*
X90416952Y-59216190D01*
X90326476Y-58944761D01*
X90326476Y-58492380D01*
X92226476Y-60211428D02*
X92226476Y-61478095D01*
X90326476Y-60663809D01*
X96401714Y-57225714D02*
X96311238Y-57497142D01*
X96220761Y-57587619D01*
X96039809Y-57678095D01*
X95768380Y-57678095D01*
X95587428Y-57587619D01*
X95496952Y-57497142D01*
X95406476Y-57316190D01*
X95406476Y-56592380D01*
X97306476Y-56592380D01*
X97306476Y-57225714D01*
X97216000Y-57406666D01*
X97125523Y-57497142D01*
X96944571Y-57587619D01*
X96763619Y-57587619D01*
X96582666Y-57497142D01*
X96492190Y-57406666D01*
X96401714Y-57225714D01*
X96401714Y-56592380D01*
X95406476Y-58492380D02*
X97306476Y-58492380D01*
X97306476Y-58944761D01*
X97216000Y-59216190D01*
X97035047Y-59397142D01*
X96854095Y-59487619D01*
X96492190Y-59578095D01*
X96220761Y-59578095D01*
X95858857Y-59487619D01*
X95677904Y-59397142D01*
X95496952Y-59216190D01*
X95406476Y-58944761D01*
X95406476Y-58492380D01*
X97306476Y-61297142D02*
X97306476Y-60392380D01*
X96401714Y-60301904D01*
X96492190Y-60392380D01*
X96582666Y-60573333D01*
X96582666Y-61025714D01*
X96492190Y-61206666D01*
X96401714Y-61297142D01*
X96220761Y-61387619D01*
X95768380Y-61387619D01*
X95587428Y-61297142D01*
X95496952Y-61206666D01*
X95406476Y-61025714D01*
X95406476Y-60573333D01*
X95496952Y-60392380D01*
X95587428Y-60301904D01*
X98941714Y-57225714D02*
X98851238Y-57497142D01*
X98760761Y-57587619D01*
X98579809Y-57678095D01*
X98308380Y-57678095D01*
X98127428Y-57587619D01*
X98036952Y-57497142D01*
X97946476Y-57316190D01*
X97946476Y-56592380D01*
X99846476Y-56592380D01*
X99846476Y-57225714D01*
X99756000Y-57406666D01*
X99665523Y-57497142D01*
X99484571Y-57587619D01*
X99303619Y-57587619D01*
X99122666Y-57497142D01*
X99032190Y-57406666D01*
X98941714Y-57225714D01*
X98941714Y-56592380D01*
X97946476Y-58492380D02*
X99846476Y-58492380D01*
X99846476Y-58944761D01*
X99756000Y-59216190D01*
X99575047Y-59397142D01*
X99394095Y-59487619D01*
X99032190Y-59578095D01*
X98760761Y-59578095D01*
X98398857Y-59487619D01*
X98217904Y-59397142D01*
X98036952Y-59216190D01*
X97946476Y-58944761D01*
X97946476Y-58492380D01*
X99213142Y-61206666D02*
X97946476Y-61206666D01*
X99936952Y-60754285D02*
X98579809Y-60301904D01*
X98579809Y-61478095D01*
X93861714Y-57225714D02*
X93771238Y-57497142D01*
X93680761Y-57587619D01*
X93499809Y-57678095D01*
X93228380Y-57678095D01*
X93047428Y-57587619D01*
X92956952Y-57497142D01*
X92866476Y-57316190D01*
X92866476Y-56592380D01*
X94766476Y-56592380D01*
X94766476Y-57225714D01*
X94676000Y-57406666D01*
X94585523Y-57497142D01*
X94404571Y-57587619D01*
X94223619Y-57587619D01*
X94042666Y-57497142D01*
X93952190Y-57406666D01*
X93861714Y-57225714D01*
X93861714Y-56592380D01*
X92866476Y-58492380D02*
X94766476Y-58492380D01*
X94766476Y-58944761D01*
X94676000Y-59216190D01*
X94495047Y-59397142D01*
X94314095Y-59487619D01*
X93952190Y-59578095D01*
X93680761Y-59578095D01*
X93318857Y-59487619D01*
X93137904Y-59397142D01*
X92956952Y-59216190D01*
X92866476Y-58944761D01*
X92866476Y-58492380D01*
X94766476Y-61206666D02*
X94766476Y-60844761D01*
X94676000Y-60663809D01*
X94585523Y-60573333D01*
X94314095Y-60392380D01*
X93952190Y-60301904D01*
X93228380Y-60301904D01*
X93047428Y-60392380D01*
X92956952Y-60482857D01*
X92866476Y-60663809D01*
X92866476Y-61025714D01*
X92956952Y-61206666D01*
X93047428Y-61297142D01*
X93228380Y-61387619D01*
X93680761Y-61387619D01*
X93861714Y-61297142D01*
X93952190Y-61206666D01*
X94042666Y-61025714D01*
X94042666Y-60663809D01*
X93952190Y-60482857D01*
X93861714Y-60392380D01*
X93680761Y-60301904D01*
X83701714Y-57225714D02*
X83611238Y-57497142D01*
X83520761Y-57587619D01*
X83339809Y-57678095D01*
X83068380Y-57678095D01*
X82887428Y-57587619D01*
X82796952Y-57497142D01*
X82706476Y-57316190D01*
X82706476Y-56592380D01*
X84606476Y-56592380D01*
X84606476Y-57225714D01*
X84516000Y-57406666D01*
X84425523Y-57497142D01*
X84244571Y-57587619D01*
X84063619Y-57587619D01*
X83882666Y-57497142D01*
X83792190Y-57406666D01*
X83701714Y-57225714D01*
X83701714Y-56592380D01*
X82887428Y-59578095D02*
X82796952Y-59487619D01*
X82706476Y-59216190D01*
X82706476Y-59035238D01*
X82796952Y-58763809D01*
X82977904Y-58582857D01*
X83158857Y-58492380D01*
X83520761Y-58401904D01*
X83792190Y-58401904D01*
X84154095Y-58492380D01*
X84335047Y-58582857D01*
X84516000Y-58763809D01*
X84606476Y-59035238D01*
X84606476Y-59216190D01*
X84516000Y-59487619D01*
X84425523Y-59578095D01*
X84425523Y-60301904D02*
X84516000Y-60392380D01*
X84606476Y-60573333D01*
X84606476Y-61025714D01*
X84516000Y-61206666D01*
X84425523Y-61297142D01*
X84244571Y-61387619D01*
X84063619Y-61387619D01*
X83792190Y-61297142D01*
X82706476Y-60211428D01*
X82706476Y-61387619D01*
X88781714Y-57225714D02*
X88691238Y-57497142D01*
X88600761Y-57587619D01*
X88419809Y-57678095D01*
X88148380Y-57678095D01*
X87967428Y-57587619D01*
X87876952Y-57497142D01*
X87786476Y-57316190D01*
X87786476Y-56592380D01*
X89686476Y-56592380D01*
X89686476Y-57225714D01*
X89596000Y-57406666D01*
X89505523Y-57497142D01*
X89324571Y-57587619D01*
X89143619Y-57587619D01*
X88962666Y-57497142D01*
X88872190Y-57406666D01*
X88781714Y-57225714D01*
X88781714Y-56592380D01*
X87967428Y-59578095D02*
X87876952Y-59487619D01*
X87786476Y-59216190D01*
X87786476Y-59035238D01*
X87876952Y-58763809D01*
X88057904Y-58582857D01*
X88238857Y-58492380D01*
X88600761Y-58401904D01*
X88872190Y-58401904D01*
X89234095Y-58492380D01*
X89415047Y-58582857D01*
X89596000Y-58763809D01*
X89686476Y-59035238D01*
X89686476Y-59216190D01*
X89596000Y-59487619D01*
X89505523Y-59578095D01*
X89686476Y-60754285D02*
X89686476Y-60935238D01*
X89596000Y-61116190D01*
X89505523Y-61206666D01*
X89324571Y-61297142D01*
X88962666Y-61387619D01*
X88510285Y-61387619D01*
X88148380Y-61297142D01*
X87967428Y-61206666D01*
X87876952Y-61116190D01*
X87786476Y-60935238D01*
X87786476Y-60754285D01*
X87876952Y-60573333D01*
X87967428Y-60482857D01*
X88148380Y-60392380D01*
X88510285Y-60301904D01*
X88962666Y-60301904D01*
X89324571Y-60392380D01*
X89505523Y-60482857D01*
X89596000Y-60573333D01*
X89686476Y-60754285D01*
X73541714Y-57225714D02*
X73451238Y-57497142D01*
X73360761Y-57587619D01*
X73179809Y-57678095D01*
X72908380Y-57678095D01*
X72727428Y-57587619D01*
X72636952Y-57497142D01*
X72546476Y-57316190D01*
X72546476Y-56592380D01*
X74446476Y-56592380D01*
X74446476Y-57225714D01*
X74356000Y-57406666D01*
X74265523Y-57497142D01*
X74084571Y-57587619D01*
X73903619Y-57587619D01*
X73722666Y-57497142D01*
X73632190Y-57406666D01*
X73541714Y-57225714D01*
X73541714Y-56592380D01*
X72727428Y-59578095D02*
X72636952Y-59487619D01*
X72546476Y-59216190D01*
X72546476Y-59035238D01*
X72636952Y-58763809D01*
X72817904Y-58582857D01*
X72998857Y-58492380D01*
X73360761Y-58401904D01*
X73632190Y-58401904D01*
X73994095Y-58492380D01*
X74175047Y-58582857D01*
X74356000Y-58763809D01*
X74446476Y-59035238D01*
X74446476Y-59216190D01*
X74356000Y-59487619D01*
X74265523Y-59578095D01*
X74446476Y-61206666D02*
X74446476Y-60844761D01*
X74356000Y-60663809D01*
X74265523Y-60573333D01*
X73994095Y-60392380D01*
X73632190Y-60301904D01*
X72908380Y-60301904D01*
X72727428Y-60392380D01*
X72636952Y-60482857D01*
X72546476Y-60663809D01*
X72546476Y-61025714D01*
X72636952Y-61206666D01*
X72727428Y-61297142D01*
X72908380Y-61387619D01*
X73360761Y-61387619D01*
X73541714Y-61297142D01*
X73632190Y-61206666D01*
X73722666Y-61025714D01*
X73722666Y-60663809D01*
X73632190Y-60482857D01*
X73541714Y-60392380D01*
X73360761Y-60301904D01*
X119442666Y-123330095D02*
X119442666Y-122425333D01*
X119985523Y-123511047D02*
X118085523Y-122877714D01*
X119985523Y-122244380D01*
X119804571Y-120525333D02*
X119895047Y-120615809D01*
X119985523Y-120887238D01*
X119985523Y-121068190D01*
X119895047Y-121339619D01*
X119714095Y-121520571D01*
X119533142Y-121611047D01*
X119171238Y-121701523D01*
X118899809Y-121701523D01*
X118537904Y-121611047D01*
X118356952Y-121520571D01*
X118176000Y-121339619D01*
X118085523Y-121068190D01*
X118085523Y-120887238D01*
X118176000Y-120615809D01*
X118266476Y-120525333D01*
X118085523Y-119892000D02*
X118085523Y-118625333D01*
X119985523Y-119439619D01*
X116902666Y-123330095D02*
X116902666Y-122425333D01*
X117445523Y-123511047D02*
X115545523Y-122877714D01*
X117445523Y-122244380D01*
X117264571Y-120525333D02*
X117355047Y-120615809D01*
X117445523Y-120887238D01*
X117445523Y-121068190D01*
X117355047Y-121339619D01*
X117174095Y-121520571D01*
X116993142Y-121611047D01*
X116631238Y-121701523D01*
X116359809Y-121701523D01*
X115997904Y-121611047D01*
X115816952Y-121520571D01*
X115636000Y-121339619D01*
X115545523Y-121068190D01*
X115545523Y-120887238D01*
X115636000Y-120615809D01*
X115726476Y-120525333D01*
X115545523Y-118896761D02*
X115545523Y-119258666D01*
X115636000Y-119439619D01*
X115726476Y-119530095D01*
X115997904Y-119711047D01*
X116359809Y-119801523D01*
X117083619Y-119801523D01*
X117264571Y-119711047D01*
X117355047Y-119620571D01*
X117445523Y-119439619D01*
X117445523Y-119077714D01*
X117355047Y-118896761D01*
X117264571Y-118806285D01*
X117083619Y-118715809D01*
X116631238Y-118715809D01*
X116450285Y-118806285D01*
X116359809Y-118896761D01*
X116269333Y-119077714D01*
X116269333Y-119439619D01*
X116359809Y-119620571D01*
X116450285Y-119711047D01*
X116631238Y-119801523D01*
X114362666Y-123330095D02*
X114362666Y-122425333D01*
X114905523Y-123511047D02*
X113005523Y-122877714D01*
X114905523Y-122244380D01*
X114724571Y-120525333D02*
X114815047Y-120615809D01*
X114905523Y-120887238D01*
X114905523Y-121068190D01*
X114815047Y-121339619D01*
X114634095Y-121520571D01*
X114453142Y-121611047D01*
X114091238Y-121701523D01*
X113819809Y-121701523D01*
X113457904Y-121611047D01*
X113276952Y-121520571D01*
X113096000Y-121339619D01*
X113005523Y-121068190D01*
X113005523Y-120887238D01*
X113096000Y-120615809D01*
X113186476Y-120525333D01*
X113005523Y-118806285D02*
X113005523Y-119711047D01*
X113910285Y-119801523D01*
X113819809Y-119711047D01*
X113729333Y-119530095D01*
X113729333Y-119077714D01*
X113819809Y-118896761D01*
X113910285Y-118806285D01*
X114091238Y-118715809D01*
X114543619Y-118715809D01*
X114724571Y-118806285D01*
X114815047Y-118896761D01*
X114905523Y-119077714D01*
X114905523Y-119530095D01*
X114815047Y-119711047D01*
X114724571Y-119801523D01*
X111822666Y-123330095D02*
X111822666Y-122425333D01*
X112365523Y-123511047D02*
X110465523Y-122877714D01*
X112365523Y-122244380D01*
X112184571Y-120525333D02*
X112275047Y-120615809D01*
X112365523Y-120887238D01*
X112365523Y-121068190D01*
X112275047Y-121339619D01*
X112094095Y-121520571D01*
X111913142Y-121611047D01*
X111551238Y-121701523D01*
X111279809Y-121701523D01*
X110917904Y-121611047D01*
X110736952Y-121520571D01*
X110556000Y-121339619D01*
X110465523Y-121068190D01*
X110465523Y-120887238D01*
X110556000Y-120615809D01*
X110646476Y-120525333D01*
X111098857Y-118896761D02*
X112365523Y-118896761D01*
X110375047Y-119349142D02*
X111732190Y-119801523D01*
X111732190Y-118625333D01*
X109282666Y-123330095D02*
X109282666Y-122425333D01*
X109825523Y-123511047D02*
X107925523Y-122877714D01*
X109825523Y-122244380D01*
X109644571Y-120525333D02*
X109735047Y-120615809D01*
X109825523Y-120887238D01*
X109825523Y-121068190D01*
X109735047Y-121339619D01*
X109554095Y-121520571D01*
X109373142Y-121611047D01*
X109011238Y-121701523D01*
X108739809Y-121701523D01*
X108377904Y-121611047D01*
X108196952Y-121520571D01*
X108016000Y-121339619D01*
X107925523Y-121068190D01*
X107925523Y-120887238D01*
X108016000Y-120615809D01*
X108106476Y-120525333D01*
X107925523Y-119892000D02*
X107925523Y-118715809D01*
X108649333Y-119349142D01*
X108649333Y-119077714D01*
X108739809Y-118896761D01*
X108830285Y-118806285D01*
X109011238Y-118715809D01*
X109463619Y-118715809D01*
X109644571Y-118806285D01*
X109735047Y-118896761D01*
X109825523Y-119077714D01*
X109825523Y-119620571D01*
X109735047Y-119801523D01*
X109644571Y-119892000D01*
X106742666Y-123330095D02*
X106742666Y-122425333D01*
X107285523Y-123511047D02*
X105385523Y-122877714D01*
X107285523Y-122244380D01*
X107104571Y-120525333D02*
X107195047Y-120615809D01*
X107285523Y-120887238D01*
X107285523Y-121068190D01*
X107195047Y-121339619D01*
X107014095Y-121520571D01*
X106833142Y-121611047D01*
X106471238Y-121701523D01*
X106199809Y-121701523D01*
X105837904Y-121611047D01*
X105656952Y-121520571D01*
X105476000Y-121339619D01*
X105385523Y-121068190D01*
X105385523Y-120887238D01*
X105476000Y-120615809D01*
X105566476Y-120525333D01*
X105566476Y-119801523D02*
X105476000Y-119711047D01*
X105385523Y-119530095D01*
X105385523Y-119077714D01*
X105476000Y-118896761D01*
X105566476Y-118806285D01*
X105747428Y-118715809D01*
X105928380Y-118715809D01*
X106199809Y-118806285D01*
X107285523Y-119892000D01*
X107285523Y-118715809D01*
X104202666Y-123330095D02*
X104202666Y-122425333D01*
X104745523Y-123511047D02*
X102845523Y-122877714D01*
X104745523Y-122244380D01*
X104564571Y-120525333D02*
X104655047Y-120615809D01*
X104745523Y-120887238D01*
X104745523Y-121068190D01*
X104655047Y-121339619D01*
X104474095Y-121520571D01*
X104293142Y-121611047D01*
X103931238Y-121701523D01*
X103659809Y-121701523D01*
X103297904Y-121611047D01*
X103116952Y-121520571D01*
X102936000Y-121339619D01*
X102845523Y-121068190D01*
X102845523Y-120887238D01*
X102936000Y-120615809D01*
X103026476Y-120525333D01*
X104745523Y-118715809D02*
X104745523Y-119801523D01*
X104745523Y-119258666D02*
X102845523Y-119258666D01*
X103116952Y-119439619D01*
X103297904Y-119620571D01*
X103388380Y-119801523D01*
X101662666Y-123330095D02*
X101662666Y-122425333D01*
X102205523Y-123511047D02*
X100305523Y-122877714D01*
X102205523Y-122244380D01*
X102024571Y-120525333D02*
X102115047Y-120615809D01*
X102205523Y-120887238D01*
X102205523Y-121068190D01*
X102115047Y-121339619D01*
X101934095Y-121520571D01*
X101753142Y-121611047D01*
X101391238Y-121701523D01*
X101119809Y-121701523D01*
X100757904Y-121611047D01*
X100576952Y-121520571D01*
X100396000Y-121339619D01*
X100305523Y-121068190D01*
X100305523Y-120887238D01*
X100396000Y-120615809D01*
X100486476Y-120525333D01*
X100305523Y-119349142D02*
X100305523Y-119168190D01*
X100396000Y-118987238D01*
X100486476Y-118896761D01*
X100667428Y-118806285D01*
X101029333Y-118715809D01*
X101481714Y-118715809D01*
X101843619Y-118806285D01*
X102024571Y-118896761D01*
X102115047Y-118987238D01*
X102205523Y-119168190D01*
X102205523Y-119349142D01*
X102115047Y-119530095D01*
X102024571Y-119620571D01*
X101843619Y-119711047D01*
X101481714Y-119801523D01*
X101029333Y-119801523D01*
X100667428Y-119711047D01*
X100486476Y-119620571D01*
X100396000Y-119530095D01*
X100305523Y-119349142D01*
X99122666Y-123330095D02*
X99122666Y-122425333D01*
X99665523Y-123511047D02*
X97765523Y-122877714D01*
X99665523Y-122244380D01*
X99665523Y-121611047D02*
X97765523Y-121611047D01*
X97765523Y-121158666D01*
X97856000Y-120887238D01*
X98036952Y-120706285D01*
X98217904Y-120615809D01*
X98579809Y-120525333D01*
X98851238Y-120525333D01*
X99213142Y-120615809D01*
X99394095Y-120706285D01*
X99575047Y-120887238D01*
X99665523Y-121158666D01*
X99665523Y-121611047D01*
X97765523Y-119892000D02*
X97765523Y-118625333D01*
X99665523Y-119439619D01*
X96582666Y-123330095D02*
X96582666Y-122425333D01*
X97125523Y-123511047D02*
X95225523Y-122877714D01*
X97125523Y-122244380D01*
X97125523Y-121611047D02*
X95225523Y-121611047D01*
X95225523Y-121158666D01*
X95316000Y-120887238D01*
X95496952Y-120706285D01*
X95677904Y-120615809D01*
X96039809Y-120525333D01*
X96311238Y-120525333D01*
X96673142Y-120615809D01*
X96854095Y-120706285D01*
X97035047Y-120887238D01*
X97125523Y-121158666D01*
X97125523Y-121611047D01*
X95225523Y-118896761D02*
X95225523Y-119258666D01*
X95316000Y-119439619D01*
X95406476Y-119530095D01*
X95677904Y-119711047D01*
X96039809Y-119801523D01*
X96763619Y-119801523D01*
X96944571Y-119711047D01*
X97035047Y-119620571D01*
X97125523Y-119439619D01*
X97125523Y-119077714D01*
X97035047Y-118896761D01*
X96944571Y-118806285D01*
X96763619Y-118715809D01*
X96311238Y-118715809D01*
X96130285Y-118806285D01*
X96039809Y-118896761D01*
X95949333Y-119077714D01*
X95949333Y-119439619D01*
X96039809Y-119620571D01*
X96130285Y-119711047D01*
X96311238Y-119801523D01*
X94042666Y-123330095D02*
X94042666Y-122425333D01*
X94585523Y-123511047D02*
X92685523Y-122877714D01*
X94585523Y-122244380D01*
X94585523Y-121611047D02*
X92685523Y-121611047D01*
X92685523Y-121158666D01*
X92776000Y-120887238D01*
X92956952Y-120706285D01*
X93137904Y-120615809D01*
X93499809Y-120525333D01*
X93771238Y-120525333D01*
X94133142Y-120615809D01*
X94314095Y-120706285D01*
X94495047Y-120887238D01*
X94585523Y-121158666D01*
X94585523Y-121611047D01*
X92685523Y-118806285D02*
X92685523Y-119711047D01*
X93590285Y-119801523D01*
X93499809Y-119711047D01*
X93409333Y-119530095D01*
X93409333Y-119077714D01*
X93499809Y-118896761D01*
X93590285Y-118806285D01*
X93771238Y-118715809D01*
X94223619Y-118715809D01*
X94404571Y-118806285D01*
X94495047Y-118896761D01*
X94585523Y-119077714D01*
X94585523Y-119530095D01*
X94495047Y-119711047D01*
X94404571Y-119801523D01*
X91502666Y-123330095D02*
X91502666Y-122425333D01*
X92045523Y-123511047D02*
X90145523Y-122877714D01*
X92045523Y-122244380D01*
X92045523Y-121611047D02*
X90145523Y-121611047D01*
X90145523Y-121158666D01*
X90236000Y-120887238D01*
X90416952Y-120706285D01*
X90597904Y-120615809D01*
X90959809Y-120525333D01*
X91231238Y-120525333D01*
X91593142Y-120615809D01*
X91774095Y-120706285D01*
X91955047Y-120887238D01*
X92045523Y-121158666D01*
X92045523Y-121611047D01*
X90778857Y-118896761D02*
X92045523Y-118896761D01*
X90055047Y-119349142D02*
X91412190Y-119801523D01*
X91412190Y-118625333D01*
X88962666Y-123330095D02*
X88962666Y-122425333D01*
X89505523Y-123511047D02*
X87605523Y-122877714D01*
X89505523Y-122244380D01*
X89505523Y-121611047D02*
X87605523Y-121611047D01*
X87605523Y-121158666D01*
X87696000Y-120887238D01*
X87876952Y-120706285D01*
X88057904Y-120615809D01*
X88419809Y-120525333D01*
X88691238Y-120525333D01*
X89053142Y-120615809D01*
X89234095Y-120706285D01*
X89415047Y-120887238D01*
X89505523Y-121158666D01*
X89505523Y-121611047D01*
X87605523Y-119892000D02*
X87605523Y-118715809D01*
X88329333Y-119349142D01*
X88329333Y-119077714D01*
X88419809Y-118896761D01*
X88510285Y-118806285D01*
X88691238Y-118715809D01*
X89143619Y-118715809D01*
X89324571Y-118806285D01*
X89415047Y-118896761D01*
X89505523Y-119077714D01*
X89505523Y-119620571D01*
X89415047Y-119801523D01*
X89324571Y-119892000D01*
X87515047Y-116544380D02*
X89957904Y-118172952D01*
X87605523Y-116182476D02*
X87605523Y-115096761D01*
X89505523Y-115639619D02*
X87605523Y-115639619D01*
X89505523Y-114463428D02*
X87605523Y-114463428D01*
X88962666Y-113830095D01*
X87605523Y-113196761D01*
X89505523Y-113196761D01*
X89415047Y-112382476D02*
X89505523Y-112111047D01*
X89505523Y-111658666D01*
X89415047Y-111477714D01*
X89324571Y-111387238D01*
X89143619Y-111296761D01*
X88962666Y-111296761D01*
X88781714Y-111387238D01*
X88691238Y-111477714D01*
X88600761Y-111658666D01*
X88510285Y-112020571D01*
X88419809Y-112201523D01*
X88329333Y-112292000D01*
X88148380Y-112382476D01*
X87967428Y-112382476D01*
X87786476Y-112292000D01*
X87696000Y-112201523D01*
X87605523Y-112020571D01*
X87605523Y-111568190D01*
X87696000Y-111296761D01*
X86422666Y-123330095D02*
X86422666Y-122425333D01*
X86965523Y-123511047D02*
X85065523Y-122877714D01*
X86965523Y-122244380D01*
X86965523Y-121611047D02*
X85065523Y-121611047D01*
X85065523Y-121158666D01*
X85156000Y-120887238D01*
X85336952Y-120706285D01*
X85517904Y-120615809D01*
X85879809Y-120525333D01*
X86151238Y-120525333D01*
X86513142Y-120615809D01*
X86694095Y-120706285D01*
X86875047Y-120887238D01*
X86965523Y-121158666D01*
X86965523Y-121611047D01*
X85246476Y-119801523D02*
X85156000Y-119711047D01*
X85065523Y-119530095D01*
X85065523Y-119077714D01*
X85156000Y-118896761D01*
X85246476Y-118806285D01*
X85427428Y-118715809D01*
X85608380Y-118715809D01*
X85879809Y-118806285D01*
X86965523Y-119892000D01*
X86965523Y-118715809D01*
X84975047Y-116544380D02*
X87417904Y-118172952D01*
X85065523Y-116182476D02*
X85065523Y-115096761D01*
X86965523Y-115639619D02*
X85065523Y-115639619D01*
X86965523Y-114463428D02*
X85065523Y-114463428D01*
X85065523Y-114011047D01*
X85156000Y-113739619D01*
X85336952Y-113558666D01*
X85517904Y-113468190D01*
X85879809Y-113377714D01*
X86151238Y-113377714D01*
X86513142Y-113468190D01*
X86694095Y-113558666D01*
X86875047Y-113739619D01*
X86965523Y-114011047D01*
X86965523Y-114463428D01*
X85065523Y-112201523D02*
X85065523Y-111839619D01*
X85156000Y-111658666D01*
X85336952Y-111477714D01*
X85698857Y-111387238D01*
X86332190Y-111387238D01*
X86694095Y-111477714D01*
X86875047Y-111658666D01*
X86965523Y-111839619D01*
X86965523Y-112201523D01*
X86875047Y-112382476D01*
X86694095Y-112563428D01*
X86332190Y-112653904D01*
X85698857Y-112653904D01*
X85336952Y-112563428D01*
X85156000Y-112382476D01*
X85065523Y-112201523D01*
X83882666Y-123330095D02*
X83882666Y-122425333D01*
X84425523Y-123511047D02*
X82525523Y-122877714D01*
X84425523Y-122244380D01*
X84425523Y-121611047D02*
X82525523Y-121611047D01*
X82525523Y-121158666D01*
X82616000Y-120887238D01*
X82796952Y-120706285D01*
X82977904Y-120615809D01*
X83339809Y-120525333D01*
X83611238Y-120525333D01*
X83973142Y-120615809D01*
X84154095Y-120706285D01*
X84335047Y-120887238D01*
X84425523Y-121158666D01*
X84425523Y-121611047D01*
X84425523Y-118715809D02*
X84425523Y-119801523D01*
X84425523Y-119258666D02*
X82525523Y-119258666D01*
X82796952Y-119439619D01*
X82977904Y-119620571D01*
X83068380Y-119801523D01*
X82435047Y-116544380D02*
X84877904Y-118172952D01*
X82525523Y-116182476D02*
X82525523Y-115096761D01*
X84425523Y-115639619D02*
X82525523Y-115639619D01*
X84425523Y-114463428D02*
X82525523Y-114463428D01*
X82525523Y-114011047D01*
X82616000Y-113739619D01*
X82796952Y-113558666D01*
X82977904Y-113468190D01*
X83339809Y-113377714D01*
X83611238Y-113377714D01*
X83973142Y-113468190D01*
X84154095Y-113558666D01*
X84335047Y-113739619D01*
X84425523Y-114011047D01*
X84425523Y-114463428D01*
X84425523Y-112563428D02*
X82525523Y-112563428D01*
X81342666Y-123330095D02*
X81342666Y-122425333D01*
X81885523Y-123511047D02*
X79985523Y-122877714D01*
X81885523Y-122244380D01*
X81885523Y-121611047D02*
X79985523Y-121611047D01*
X79985523Y-121158666D01*
X80076000Y-120887238D01*
X80256952Y-120706285D01*
X80437904Y-120615809D01*
X80799809Y-120525333D01*
X81071238Y-120525333D01*
X81433142Y-120615809D01*
X81614095Y-120706285D01*
X81795047Y-120887238D01*
X81885523Y-121158666D01*
X81885523Y-121611047D01*
X79985523Y-119349142D02*
X79985523Y-119168190D01*
X80076000Y-118987238D01*
X80166476Y-118896761D01*
X80347428Y-118806285D01*
X80709333Y-118715809D01*
X81161714Y-118715809D01*
X81523619Y-118806285D01*
X81704571Y-118896761D01*
X81795047Y-118987238D01*
X81885523Y-119168190D01*
X81885523Y-119349142D01*
X81795047Y-119530095D01*
X81704571Y-119620571D01*
X81523619Y-119711047D01*
X81161714Y-119801523D01*
X80709333Y-119801523D01*
X80347428Y-119711047D01*
X80166476Y-119620571D01*
X80076000Y-119530095D01*
X79985523Y-119349142D01*
X79895047Y-116544380D02*
X82337904Y-118172952D01*
X79985523Y-116182476D02*
X79985523Y-115096761D01*
X81885523Y-115639619D02*
X79985523Y-115639619D01*
X81704571Y-113377714D02*
X81795047Y-113468190D01*
X81885523Y-113739619D01*
X81885523Y-113920571D01*
X81795047Y-114192000D01*
X81614095Y-114372952D01*
X81433142Y-114463428D01*
X81071238Y-114553904D01*
X80799809Y-114553904D01*
X80437904Y-114463428D01*
X80256952Y-114372952D01*
X80076000Y-114192000D01*
X79985523Y-113920571D01*
X79985523Y-113739619D01*
X80076000Y-113468190D01*
X80166476Y-113377714D01*
X81885523Y-112563428D02*
X79985523Y-112563428D01*
X81885523Y-111477714D02*
X80799809Y-112292000D01*
X79985523Y-111477714D02*
X81071238Y-112563428D01*
D13*
G04 #@! TO.C,R10*
X60960914Y-112438571D02*
X60460914Y-111724285D01*
X60103771Y-112438571D02*
X60103771Y-110938571D01*
X60675200Y-110938571D01*
X60818057Y-111010000D01*
X60889485Y-111081428D01*
X60960914Y-111224285D01*
X60960914Y-111438571D01*
X60889485Y-111581428D01*
X60818057Y-111652857D01*
X60675200Y-111724285D01*
X60103771Y-111724285D01*
X62389485Y-112438571D02*
X61532342Y-112438571D01*
X61960914Y-112438571D02*
X61960914Y-110938571D01*
X61818057Y-111152857D01*
X61675200Y-111295714D01*
X61532342Y-111367142D01*
X63318057Y-110938571D02*
X63460914Y-110938571D01*
X63603771Y-111010000D01*
X63675200Y-111081428D01*
X63746628Y-111224285D01*
X63818057Y-111510000D01*
X63818057Y-111867142D01*
X63746628Y-112152857D01*
X63675200Y-112295714D01*
X63603771Y-112367142D01*
X63460914Y-112438571D01*
X63318057Y-112438571D01*
X63175200Y-112367142D01*
X63103771Y-112295714D01*
X63032342Y-112152857D01*
X62960914Y-111867142D01*
X62960914Y-111510000D01*
X63032342Y-111224285D01*
X63103771Y-111081428D01*
X63175200Y-111010000D01*
X63318057Y-110938571D01*
G04 #@! TO.C,J1*
X63596771Y-90500000D02*
X64668200Y-90500000D01*
X64882485Y-90571428D01*
X65025342Y-90714285D01*
X65096771Y-90928571D01*
X65096771Y-91071428D01*
X65096771Y-89000000D02*
X65096771Y-89857142D01*
X65096771Y-89428571D02*
X63596771Y-89428571D01*
X63811057Y-89571428D01*
X63953914Y-89714285D01*
X64025342Y-89857142D01*
G04 #@! TO.C,D1*
X57056457Y-66718571D02*
X57056457Y-65218571D01*
X57413600Y-65218571D01*
X57627885Y-65290000D01*
X57770742Y-65432857D01*
X57842171Y-65575714D01*
X57913600Y-65861428D01*
X57913600Y-66075714D01*
X57842171Y-66361428D01*
X57770742Y-66504285D01*
X57627885Y-66647142D01*
X57413600Y-66718571D01*
X57056457Y-66718571D01*
X59342171Y-66718571D02*
X58485028Y-66718571D01*
X58913600Y-66718571D02*
X58913600Y-65218571D01*
X58770742Y-65432857D01*
X58627885Y-65575714D01*
X58485028Y-65647142D01*
G04 #@! TO.C,R6*
X80576600Y-90086571D02*
X80076600Y-89372285D01*
X79719457Y-90086571D02*
X79719457Y-88586571D01*
X80290885Y-88586571D01*
X80433742Y-88658000D01*
X80505171Y-88729428D01*
X80576600Y-88872285D01*
X80576600Y-89086571D01*
X80505171Y-89229428D01*
X80433742Y-89300857D01*
X80290885Y-89372285D01*
X79719457Y-89372285D01*
X81862314Y-88586571D02*
X81576600Y-88586571D01*
X81433742Y-88658000D01*
X81362314Y-88729428D01*
X81219457Y-88943714D01*
X81148028Y-89229428D01*
X81148028Y-89800857D01*
X81219457Y-89943714D01*
X81290885Y-90015142D01*
X81433742Y-90086571D01*
X81719457Y-90086571D01*
X81862314Y-90015142D01*
X81933742Y-89943714D01*
X82005171Y-89800857D01*
X82005171Y-89443714D01*
X81933742Y-89300857D01*
X81862314Y-89229428D01*
X81719457Y-89158000D01*
X81433742Y-89158000D01*
X81290885Y-89229428D01*
X81219457Y-89300857D01*
X81148028Y-89443714D01*
G04 #@! TO.C,C13*
X103683714Y-95785714D02*
X103612285Y-95857142D01*
X103398000Y-95928571D01*
X103255142Y-95928571D01*
X103040857Y-95857142D01*
X102898000Y-95714285D01*
X102826571Y-95571428D01*
X102755142Y-95285714D01*
X102755142Y-95071428D01*
X102826571Y-94785714D01*
X102898000Y-94642857D01*
X103040857Y-94500000D01*
X103255142Y-94428571D01*
X103398000Y-94428571D01*
X103612285Y-94500000D01*
X103683714Y-94571428D01*
X105112285Y-95928571D02*
X104255142Y-95928571D01*
X104683714Y-95928571D02*
X104683714Y-94428571D01*
X104540857Y-94642857D01*
X104398000Y-94785714D01*
X104255142Y-94857142D01*
X105612285Y-94428571D02*
X106540857Y-94428571D01*
X106040857Y-95000000D01*
X106255142Y-95000000D01*
X106398000Y-95071428D01*
X106469428Y-95142857D01*
X106540857Y-95285714D01*
X106540857Y-95642857D01*
X106469428Y-95785714D01*
X106398000Y-95857142D01*
X106255142Y-95928571D01*
X105826571Y-95928571D01*
X105683714Y-95857142D01*
X105612285Y-95785714D01*
G04 #@! TO.C,C25*
X63480514Y-80599885D02*
X63551942Y-80671314D01*
X63623371Y-80885600D01*
X63623371Y-81028457D01*
X63551942Y-81242742D01*
X63409085Y-81385600D01*
X63266228Y-81457028D01*
X62980514Y-81528457D01*
X62766228Y-81528457D01*
X62480514Y-81457028D01*
X62337657Y-81385600D01*
X62194800Y-81242742D01*
X62123371Y-81028457D01*
X62123371Y-80885600D01*
X62194800Y-80671314D01*
X62266228Y-80599885D01*
X62266228Y-80028457D02*
X62194800Y-79957028D01*
X62123371Y-79814171D01*
X62123371Y-79457028D01*
X62194800Y-79314171D01*
X62266228Y-79242742D01*
X62409085Y-79171314D01*
X62551942Y-79171314D01*
X62766228Y-79242742D01*
X63623371Y-80099885D01*
X63623371Y-79171314D01*
X62123371Y-77814171D02*
X62123371Y-78528457D01*
X62837657Y-78599885D01*
X62766228Y-78528457D01*
X62694800Y-78385600D01*
X62694800Y-78028457D01*
X62766228Y-77885600D01*
X62837657Y-77814171D01*
X62980514Y-77742742D01*
X63337657Y-77742742D01*
X63480514Y-77814171D01*
X63551942Y-77885600D01*
X63623371Y-78028457D01*
X63623371Y-78385600D01*
X63551942Y-78528457D01*
X63480514Y-78599885D01*
G04 #@! TO.C,C10*
X103429714Y-80291714D02*
X103358285Y-80363142D01*
X103144000Y-80434571D01*
X103001142Y-80434571D01*
X102786857Y-80363142D01*
X102644000Y-80220285D01*
X102572571Y-80077428D01*
X102501142Y-79791714D01*
X102501142Y-79577428D01*
X102572571Y-79291714D01*
X102644000Y-79148857D01*
X102786857Y-79006000D01*
X103001142Y-78934571D01*
X103144000Y-78934571D01*
X103358285Y-79006000D01*
X103429714Y-79077428D01*
X104858285Y-80434571D02*
X104001142Y-80434571D01*
X104429714Y-80434571D02*
X104429714Y-78934571D01*
X104286857Y-79148857D01*
X104144000Y-79291714D01*
X104001142Y-79363142D01*
X105786857Y-78934571D02*
X105929714Y-78934571D01*
X106072571Y-79006000D01*
X106144000Y-79077428D01*
X106215428Y-79220285D01*
X106286857Y-79506000D01*
X106286857Y-79863142D01*
X106215428Y-80148857D01*
X106144000Y-80291714D01*
X106072571Y-80363142D01*
X105929714Y-80434571D01*
X105786857Y-80434571D01*
X105644000Y-80363142D01*
X105572571Y-80291714D01*
X105501142Y-80148857D01*
X105429714Y-79863142D01*
X105429714Y-79506000D01*
X105501142Y-79220285D01*
X105572571Y-79077428D01*
X105644000Y-79006000D01*
X105786857Y-78934571D01*
G04 #@! TO.C,C6*
X84332000Y-85625714D02*
X84260571Y-85697142D01*
X84046285Y-85768571D01*
X83903428Y-85768571D01*
X83689142Y-85697142D01*
X83546285Y-85554285D01*
X83474857Y-85411428D01*
X83403428Y-85125714D01*
X83403428Y-84911428D01*
X83474857Y-84625714D01*
X83546285Y-84482857D01*
X83689142Y-84340000D01*
X83903428Y-84268571D01*
X84046285Y-84268571D01*
X84260571Y-84340000D01*
X84332000Y-84411428D01*
X85617714Y-84268571D02*
X85332000Y-84268571D01*
X85189142Y-84340000D01*
X85117714Y-84411428D01*
X84974857Y-84625714D01*
X84903428Y-84911428D01*
X84903428Y-85482857D01*
X84974857Y-85625714D01*
X85046285Y-85697142D01*
X85189142Y-85768571D01*
X85474857Y-85768571D01*
X85617714Y-85697142D01*
X85689142Y-85625714D01*
X85760571Y-85482857D01*
X85760571Y-85125714D01*
X85689142Y-84982857D01*
X85617714Y-84911428D01*
X85474857Y-84840000D01*
X85189142Y-84840000D01*
X85046285Y-84911428D01*
X84974857Y-84982857D01*
X84903428Y-85125714D01*
G04 #@! TO.C,C23*
X87149714Y-79196285D02*
X87221142Y-79267714D01*
X87292571Y-79482000D01*
X87292571Y-79624857D01*
X87221142Y-79839142D01*
X87078285Y-79982000D01*
X86935428Y-80053428D01*
X86649714Y-80124857D01*
X86435428Y-80124857D01*
X86149714Y-80053428D01*
X86006857Y-79982000D01*
X85864000Y-79839142D01*
X85792571Y-79624857D01*
X85792571Y-79482000D01*
X85864000Y-79267714D01*
X85935428Y-79196285D01*
X85935428Y-78624857D02*
X85864000Y-78553428D01*
X85792571Y-78410571D01*
X85792571Y-78053428D01*
X85864000Y-77910571D01*
X85935428Y-77839142D01*
X86078285Y-77767714D01*
X86221142Y-77767714D01*
X86435428Y-77839142D01*
X87292571Y-78696285D01*
X87292571Y-77767714D01*
X85792571Y-77267714D02*
X85792571Y-76339142D01*
X86364000Y-76839142D01*
X86364000Y-76624857D01*
X86435428Y-76482000D01*
X86506857Y-76410571D01*
X86649714Y-76339142D01*
X87006857Y-76339142D01*
X87149714Y-76410571D01*
X87221142Y-76482000D01*
X87292571Y-76624857D01*
X87292571Y-77053428D01*
X87221142Y-77196285D01*
X87149714Y-77267714D01*
G04 #@! TO.C,R1*
X65956571Y-85086000D02*
X65242285Y-85586000D01*
X65956571Y-85943142D02*
X64456571Y-85943142D01*
X64456571Y-85371714D01*
X64528000Y-85228857D01*
X64599428Y-85157428D01*
X64742285Y-85086000D01*
X64956571Y-85086000D01*
X65099428Y-85157428D01*
X65170857Y-85228857D01*
X65242285Y-85371714D01*
X65242285Y-85943142D01*
X65956571Y-83657428D02*
X65956571Y-84514571D01*
X65956571Y-84086000D02*
X64456571Y-84086000D01*
X64670857Y-84228857D01*
X64813714Y-84371714D01*
X64885142Y-84514571D01*
G04 #@! TO.C,C5*
X84539000Y-89943714D02*
X84467571Y-90015142D01*
X84253285Y-90086571D01*
X84110428Y-90086571D01*
X83896142Y-90015142D01*
X83753285Y-89872285D01*
X83681857Y-89729428D01*
X83610428Y-89443714D01*
X83610428Y-89229428D01*
X83681857Y-88943714D01*
X83753285Y-88800857D01*
X83896142Y-88658000D01*
X84110428Y-88586571D01*
X84253285Y-88586571D01*
X84467571Y-88658000D01*
X84539000Y-88729428D01*
X85896142Y-88586571D02*
X85181857Y-88586571D01*
X85110428Y-89300857D01*
X85181857Y-89229428D01*
X85324714Y-89158000D01*
X85681857Y-89158000D01*
X85824714Y-89229428D01*
X85896142Y-89300857D01*
X85967571Y-89443714D01*
X85967571Y-89800857D01*
X85896142Y-89943714D01*
X85824714Y-90015142D01*
X85681857Y-90086571D01*
X85324714Y-90086571D01*
X85181857Y-90015142D01*
X85110428Y-89943714D01*
G04 #@! TO.C,U3*
X93857142Y-81778571D02*
X93857142Y-82992857D01*
X93928571Y-83135714D01*
X94000000Y-83207142D01*
X94142857Y-83278571D01*
X94428571Y-83278571D01*
X94571428Y-83207142D01*
X94642857Y-83135714D01*
X94714285Y-82992857D01*
X94714285Y-81778571D01*
X95285714Y-81778571D02*
X96214285Y-81778571D01*
X95714285Y-82350000D01*
X95928571Y-82350000D01*
X96071428Y-82421428D01*
X96142857Y-82492857D01*
X96214285Y-82635714D01*
X96214285Y-82992857D01*
X96142857Y-83135714D01*
X96071428Y-83207142D01*
X95928571Y-83278571D01*
X95500000Y-83278571D01*
X95357142Y-83207142D01*
X95285714Y-83135714D01*
G04 #@! TO.C,U4*
X66996571Y-71246857D02*
X68210857Y-71246857D01*
X68353714Y-71175428D01*
X68425142Y-71104000D01*
X68496571Y-70961142D01*
X68496571Y-70675428D01*
X68425142Y-70532571D01*
X68353714Y-70461142D01*
X68210857Y-70389714D01*
X66996571Y-70389714D01*
X67496571Y-69032571D02*
X68496571Y-69032571D01*
X66925142Y-69389714D02*
X67996571Y-69746857D01*
X67996571Y-68818285D01*
G04 #@! TO.C,C15*
X94007714Y-102564285D02*
X94079142Y-102635714D01*
X94150571Y-102850000D01*
X94150571Y-102992857D01*
X94079142Y-103207142D01*
X93936285Y-103350000D01*
X93793428Y-103421428D01*
X93507714Y-103492857D01*
X93293428Y-103492857D01*
X93007714Y-103421428D01*
X92864857Y-103350000D01*
X92722000Y-103207142D01*
X92650571Y-102992857D01*
X92650571Y-102850000D01*
X92722000Y-102635714D01*
X92793428Y-102564285D01*
X94150571Y-101135714D02*
X94150571Y-101992857D01*
X94150571Y-101564285D02*
X92650571Y-101564285D01*
X92864857Y-101707142D01*
X93007714Y-101850000D01*
X93079142Y-101992857D01*
X92650571Y-99778571D02*
X92650571Y-100492857D01*
X93364857Y-100564285D01*
X93293428Y-100492857D01*
X93222000Y-100350000D01*
X93222000Y-99992857D01*
X93293428Y-99850000D01*
X93364857Y-99778571D01*
X93507714Y-99707142D01*
X93864857Y-99707142D01*
X94007714Y-99778571D01*
X94079142Y-99850000D01*
X94150571Y-99992857D01*
X94150571Y-100350000D01*
X94079142Y-100492857D01*
X94007714Y-100564285D01*
G04 #@! TO.C,U2*
X73452571Y-105060857D02*
X74666857Y-105060857D01*
X74809714Y-104989428D01*
X74881142Y-104918000D01*
X74952571Y-104775142D01*
X74952571Y-104489428D01*
X74881142Y-104346571D01*
X74809714Y-104275142D01*
X74666857Y-104203714D01*
X73452571Y-104203714D01*
X73595428Y-103560857D02*
X73524000Y-103489428D01*
X73452571Y-103346571D01*
X73452571Y-102989428D01*
X73524000Y-102846571D01*
X73595428Y-102775142D01*
X73738285Y-102703714D01*
X73881142Y-102703714D01*
X74095428Y-102775142D01*
X74952571Y-103632285D01*
X74952571Y-102703714D01*
G04 #@! TO.C,R13*
X66566171Y-60654285D02*
X65851885Y-61154285D01*
X66566171Y-61511428D02*
X65066171Y-61511428D01*
X65066171Y-60940000D01*
X65137600Y-60797142D01*
X65209028Y-60725714D01*
X65351885Y-60654285D01*
X65566171Y-60654285D01*
X65709028Y-60725714D01*
X65780457Y-60797142D01*
X65851885Y-60940000D01*
X65851885Y-61511428D01*
X66566171Y-59225714D02*
X66566171Y-60082857D01*
X66566171Y-59654285D02*
X65066171Y-59654285D01*
X65280457Y-59797142D01*
X65423314Y-59940000D01*
X65494742Y-60082857D01*
X65066171Y-58725714D02*
X65066171Y-57797142D01*
X65637600Y-58297142D01*
X65637600Y-58082857D01*
X65709028Y-57940000D01*
X65780457Y-57868571D01*
X65923314Y-57797142D01*
X66280457Y-57797142D01*
X66423314Y-57868571D01*
X66494742Y-57940000D01*
X66566171Y-58082857D01*
X66566171Y-58511428D01*
X66494742Y-58654285D01*
X66423314Y-58725714D01*
G04 #@! TO.C,Y1*
X82499914Y-79469685D02*
X82499914Y-80183971D01*
X81999914Y-78683971D02*
X82499914Y-79469685D01*
X82999914Y-78683971D01*
X84285628Y-80183971D02*
X83428485Y-80183971D01*
X83857057Y-80183971D02*
X83857057Y-78683971D01*
X83714200Y-78898257D01*
X83571342Y-79041114D01*
X83428485Y-79112542D01*
G04 #@! TO.C,C8*
X87911714Y-92960000D02*
X87983142Y-93031428D01*
X88054571Y-93245714D01*
X88054571Y-93388571D01*
X87983142Y-93602857D01*
X87840285Y-93745714D01*
X87697428Y-93817142D01*
X87411714Y-93888571D01*
X87197428Y-93888571D01*
X86911714Y-93817142D01*
X86768857Y-93745714D01*
X86626000Y-93602857D01*
X86554571Y-93388571D01*
X86554571Y-93245714D01*
X86626000Y-93031428D01*
X86697428Y-92960000D01*
X87197428Y-92102857D02*
X87126000Y-92245714D01*
X87054571Y-92317142D01*
X86911714Y-92388571D01*
X86840285Y-92388571D01*
X86697428Y-92317142D01*
X86626000Y-92245714D01*
X86554571Y-92102857D01*
X86554571Y-91817142D01*
X86626000Y-91674285D01*
X86697428Y-91602857D01*
X86840285Y-91531428D01*
X86911714Y-91531428D01*
X87054571Y-91602857D01*
X87126000Y-91674285D01*
X87197428Y-91817142D01*
X87197428Y-92102857D01*
X87268857Y-92245714D01*
X87340285Y-92317142D01*
X87483142Y-92388571D01*
X87768857Y-92388571D01*
X87911714Y-92317142D01*
X87983142Y-92245714D01*
X88054571Y-92102857D01*
X88054571Y-91817142D01*
X87983142Y-91674285D01*
X87911714Y-91602857D01*
X87768857Y-91531428D01*
X87483142Y-91531428D01*
X87340285Y-91602857D01*
X87268857Y-91674285D01*
X87197428Y-91817142D01*
G04 #@! TO.C,R4*
X61573600Y-66718571D02*
X61073600Y-66004285D01*
X60716457Y-66718571D02*
X60716457Y-65218571D01*
X61287885Y-65218571D01*
X61430742Y-65290000D01*
X61502171Y-65361428D01*
X61573600Y-65504285D01*
X61573600Y-65718571D01*
X61502171Y-65861428D01*
X61430742Y-65932857D01*
X61287885Y-66004285D01*
X60716457Y-66004285D01*
X62859314Y-65718571D02*
X62859314Y-66718571D01*
X62502171Y-65147142D02*
X62145028Y-66218571D01*
X63073600Y-66218571D01*
G04 #@! TO.C,R14*
X75608571Y-68655285D02*
X74894285Y-69155285D01*
X75608571Y-69512428D02*
X74108571Y-69512428D01*
X74108571Y-68941000D01*
X74180000Y-68798142D01*
X74251428Y-68726714D01*
X74394285Y-68655285D01*
X74608571Y-68655285D01*
X74751428Y-68726714D01*
X74822857Y-68798142D01*
X74894285Y-68941000D01*
X74894285Y-69512428D01*
X75608571Y-67226714D02*
X75608571Y-68083857D01*
X75608571Y-67655285D02*
X74108571Y-67655285D01*
X74322857Y-67798142D01*
X74465714Y-67941000D01*
X74537142Y-68083857D01*
X74608571Y-65941000D02*
X75608571Y-65941000D01*
X74037142Y-66298142D02*
X75108571Y-66655285D01*
X75108571Y-65726714D01*
G04 #@! TO.C,FB1*
X76473857Y-83419000D02*
X76473857Y-83919000D01*
X77259571Y-83919000D02*
X75759571Y-83919000D01*
X75759571Y-83204714D01*
X76473857Y-82133285D02*
X76545285Y-81919000D01*
X76616714Y-81847571D01*
X76759571Y-81776142D01*
X76973857Y-81776142D01*
X77116714Y-81847571D01*
X77188142Y-81919000D01*
X77259571Y-82061857D01*
X77259571Y-82633285D01*
X75759571Y-82633285D01*
X75759571Y-82133285D01*
X75831000Y-81990428D01*
X75902428Y-81919000D01*
X76045285Y-81847571D01*
X76188142Y-81847571D01*
X76331000Y-81919000D01*
X76402428Y-81990428D01*
X76473857Y-82133285D01*
X76473857Y-82633285D01*
X77259571Y-80347571D02*
X77259571Y-81204714D01*
X77259571Y-80776142D02*
X75759571Y-80776142D01*
X75973857Y-80919000D01*
X76116714Y-81061857D01*
X76188142Y-81204714D01*
G04 #@! TO.C,R12*
X74854714Y-65067571D02*
X74354714Y-64353285D01*
X73997571Y-65067571D02*
X73997571Y-63567571D01*
X74569000Y-63567571D01*
X74711857Y-63639000D01*
X74783285Y-63710428D01*
X74854714Y-63853285D01*
X74854714Y-64067571D01*
X74783285Y-64210428D01*
X74711857Y-64281857D01*
X74569000Y-64353285D01*
X73997571Y-64353285D01*
X76283285Y-65067571D02*
X75426142Y-65067571D01*
X75854714Y-65067571D02*
X75854714Y-63567571D01*
X75711857Y-63781857D01*
X75569000Y-63924714D01*
X75426142Y-63996142D01*
X76854714Y-63710428D02*
X76926142Y-63639000D01*
X77069000Y-63567571D01*
X77426142Y-63567571D01*
X77569000Y-63639000D01*
X77640428Y-63710428D01*
X77711857Y-63853285D01*
X77711857Y-63996142D01*
X77640428Y-64210428D01*
X76783285Y-65067571D01*
X77711857Y-65067571D01*
G04 #@! TO.C,C9*
X103382000Y-82577714D02*
X103310571Y-82649142D01*
X103096285Y-82720571D01*
X102953428Y-82720571D01*
X102739142Y-82649142D01*
X102596285Y-82506285D01*
X102524857Y-82363428D01*
X102453428Y-82077714D01*
X102453428Y-81863428D01*
X102524857Y-81577714D01*
X102596285Y-81434857D01*
X102739142Y-81292000D01*
X102953428Y-81220571D01*
X103096285Y-81220571D01*
X103310571Y-81292000D01*
X103382000Y-81363428D01*
X104096285Y-82720571D02*
X104382000Y-82720571D01*
X104524857Y-82649142D01*
X104596285Y-82577714D01*
X104739142Y-82363428D01*
X104810571Y-82077714D01*
X104810571Y-81506285D01*
X104739142Y-81363428D01*
X104667714Y-81292000D01*
X104524857Y-81220571D01*
X104239142Y-81220571D01*
X104096285Y-81292000D01*
X104024857Y-81363428D01*
X103953428Y-81506285D01*
X103953428Y-81863428D01*
X104024857Y-82006285D01*
X104096285Y-82077714D01*
X104239142Y-82149142D01*
X104524857Y-82149142D01*
X104667714Y-82077714D01*
X104739142Y-82006285D01*
X104810571Y-81863428D01*
G04 #@! TO.C,R15*
X66548571Y-73354285D02*
X65834285Y-73854285D01*
X66548571Y-74211428D02*
X65048571Y-74211428D01*
X65048571Y-73640000D01*
X65120000Y-73497142D01*
X65191428Y-73425714D01*
X65334285Y-73354285D01*
X65548571Y-73354285D01*
X65691428Y-73425714D01*
X65762857Y-73497142D01*
X65834285Y-73640000D01*
X65834285Y-74211428D01*
X66548571Y-71925714D02*
X66548571Y-72782857D01*
X66548571Y-72354285D02*
X65048571Y-72354285D01*
X65262857Y-72497142D01*
X65405714Y-72640000D01*
X65477142Y-72782857D01*
X65048571Y-70568571D02*
X65048571Y-71282857D01*
X65762857Y-71354285D01*
X65691428Y-71282857D01*
X65620000Y-71140000D01*
X65620000Y-70782857D01*
X65691428Y-70640000D01*
X65762857Y-70568571D01*
X65905714Y-70497142D01*
X66262857Y-70497142D01*
X66405714Y-70568571D01*
X66477142Y-70640000D01*
X66548571Y-70782857D01*
X66548571Y-71140000D01*
X66477142Y-71282857D01*
X66405714Y-71354285D01*
G04 #@! TO.C,C20*
X115875714Y-113311714D02*
X115804285Y-113383142D01*
X115590000Y-113454571D01*
X115447142Y-113454571D01*
X115232857Y-113383142D01*
X115090000Y-113240285D01*
X115018571Y-113097428D01*
X114947142Y-112811714D01*
X114947142Y-112597428D01*
X115018571Y-112311714D01*
X115090000Y-112168857D01*
X115232857Y-112026000D01*
X115447142Y-111954571D01*
X115590000Y-111954571D01*
X115804285Y-112026000D01*
X115875714Y-112097428D01*
X116447142Y-112097428D02*
X116518571Y-112026000D01*
X116661428Y-111954571D01*
X117018571Y-111954571D01*
X117161428Y-112026000D01*
X117232857Y-112097428D01*
X117304285Y-112240285D01*
X117304285Y-112383142D01*
X117232857Y-112597428D01*
X116375714Y-113454571D01*
X117304285Y-113454571D01*
X118232857Y-111954571D02*
X118375714Y-111954571D01*
X118518571Y-112026000D01*
X118590000Y-112097428D01*
X118661428Y-112240285D01*
X118732857Y-112526000D01*
X118732857Y-112883142D01*
X118661428Y-113168857D01*
X118590000Y-113311714D01*
X118518571Y-113383142D01*
X118375714Y-113454571D01*
X118232857Y-113454571D01*
X118090000Y-113383142D01*
X118018571Y-113311714D01*
X117947142Y-113168857D01*
X117875714Y-112883142D01*
X117875714Y-112526000D01*
X117947142Y-112240285D01*
X118018571Y-112097428D01*
X118090000Y-112026000D01*
X118232857Y-111954571D01*
G04 #@! TO.C,C22*
X119280714Y-63956285D02*
X119352142Y-64027714D01*
X119423571Y-64242000D01*
X119423571Y-64384857D01*
X119352142Y-64599142D01*
X119209285Y-64742000D01*
X119066428Y-64813428D01*
X118780714Y-64884857D01*
X118566428Y-64884857D01*
X118280714Y-64813428D01*
X118137857Y-64742000D01*
X117995000Y-64599142D01*
X117923571Y-64384857D01*
X117923571Y-64242000D01*
X117995000Y-64027714D01*
X118066428Y-63956285D01*
X118066428Y-63384857D02*
X117995000Y-63313428D01*
X117923571Y-63170571D01*
X117923571Y-62813428D01*
X117995000Y-62670571D01*
X118066428Y-62599142D01*
X118209285Y-62527714D01*
X118352142Y-62527714D01*
X118566428Y-62599142D01*
X119423571Y-63456285D01*
X119423571Y-62527714D01*
X118066428Y-61956285D02*
X117995000Y-61884857D01*
X117923571Y-61742000D01*
X117923571Y-61384857D01*
X117995000Y-61242000D01*
X118066428Y-61170571D01*
X118209285Y-61099142D01*
X118352142Y-61099142D01*
X118566428Y-61170571D01*
X119423571Y-62027714D01*
X119423571Y-61099142D01*
G04 #@! TO.C,R2*
X65956571Y-95500000D02*
X65242285Y-96000000D01*
X65956571Y-96357142D02*
X64456571Y-96357142D01*
X64456571Y-95785714D01*
X64528000Y-95642857D01*
X64599428Y-95571428D01*
X64742285Y-95500000D01*
X64956571Y-95500000D01*
X65099428Y-95571428D01*
X65170857Y-95642857D01*
X65242285Y-95785714D01*
X65242285Y-96357142D01*
X64599428Y-94928571D02*
X64528000Y-94857142D01*
X64456571Y-94714285D01*
X64456571Y-94357142D01*
X64528000Y-94214285D01*
X64599428Y-94142857D01*
X64742285Y-94071428D01*
X64885142Y-94071428D01*
X65099428Y-94142857D01*
X65956571Y-95000000D01*
X65956571Y-94071428D01*
G04 #@! TO.C,C2*
X112399000Y-63400714D02*
X112327571Y-63472142D01*
X112113285Y-63543571D01*
X111970428Y-63543571D01*
X111756142Y-63472142D01*
X111613285Y-63329285D01*
X111541857Y-63186428D01*
X111470428Y-62900714D01*
X111470428Y-62686428D01*
X111541857Y-62400714D01*
X111613285Y-62257857D01*
X111756142Y-62115000D01*
X111970428Y-62043571D01*
X112113285Y-62043571D01*
X112327571Y-62115000D01*
X112399000Y-62186428D01*
X112970428Y-62186428D02*
X113041857Y-62115000D01*
X113184714Y-62043571D01*
X113541857Y-62043571D01*
X113684714Y-62115000D01*
X113756142Y-62186428D01*
X113827571Y-62329285D01*
X113827571Y-62472142D01*
X113756142Y-62686428D01*
X112899000Y-63543571D01*
X113827571Y-63543571D01*
G04 #@! TO.C,FB3*
X57296857Y-102088000D02*
X57296857Y-102588000D01*
X58082571Y-102588000D02*
X56582571Y-102588000D01*
X56582571Y-101873714D01*
X57296857Y-100802285D02*
X57368285Y-100588000D01*
X57439714Y-100516571D01*
X57582571Y-100445142D01*
X57796857Y-100445142D01*
X57939714Y-100516571D01*
X58011142Y-100588000D01*
X58082571Y-100730857D01*
X58082571Y-101302285D01*
X56582571Y-101302285D01*
X56582571Y-100802285D01*
X56654000Y-100659428D01*
X56725428Y-100588000D01*
X56868285Y-100516571D01*
X57011142Y-100516571D01*
X57154000Y-100588000D01*
X57225428Y-100659428D01*
X57296857Y-100802285D01*
X57296857Y-101302285D01*
X56582571Y-99945142D02*
X56582571Y-99016571D01*
X57154000Y-99516571D01*
X57154000Y-99302285D01*
X57225428Y-99159428D01*
X57296857Y-99088000D01*
X57439714Y-99016571D01*
X57796857Y-99016571D01*
X57939714Y-99088000D01*
X58011142Y-99159428D01*
X58082571Y-99302285D01*
X58082571Y-99730857D01*
X58011142Y-99873714D01*
X57939714Y-99945142D01*
G04 #@! TO.C,C21*
X115875714Y-80291714D02*
X115804285Y-80363142D01*
X115590000Y-80434571D01*
X115447142Y-80434571D01*
X115232857Y-80363142D01*
X115090000Y-80220285D01*
X115018571Y-80077428D01*
X114947142Y-79791714D01*
X114947142Y-79577428D01*
X115018571Y-79291714D01*
X115090000Y-79148857D01*
X115232857Y-79006000D01*
X115447142Y-78934571D01*
X115590000Y-78934571D01*
X115804285Y-79006000D01*
X115875714Y-79077428D01*
X116447142Y-79077428D02*
X116518571Y-79006000D01*
X116661428Y-78934571D01*
X117018571Y-78934571D01*
X117161428Y-79006000D01*
X117232857Y-79077428D01*
X117304285Y-79220285D01*
X117304285Y-79363142D01*
X117232857Y-79577428D01*
X116375714Y-80434571D01*
X117304285Y-80434571D01*
X118732857Y-80434571D02*
X117875714Y-80434571D01*
X118304285Y-80434571D02*
X118304285Y-78934571D01*
X118161428Y-79148857D01*
X118018571Y-79291714D01*
X117875714Y-79363142D01*
G04 #@! TO.C,D5*
X56449257Y-106088571D02*
X56449257Y-104588571D01*
X56806400Y-104588571D01*
X57020685Y-104660000D01*
X57163542Y-104802857D01*
X57234971Y-104945714D01*
X57306400Y-105231428D01*
X57306400Y-105445714D01*
X57234971Y-105731428D01*
X57163542Y-105874285D01*
X57020685Y-106017142D01*
X56806400Y-106088571D01*
X56449257Y-106088571D01*
X58663542Y-104588571D02*
X57949257Y-104588571D01*
X57877828Y-105302857D01*
X57949257Y-105231428D01*
X58092114Y-105160000D01*
X58449257Y-105160000D01*
X58592114Y-105231428D01*
X58663542Y-105302857D01*
X58734971Y-105445714D01*
X58734971Y-105802857D01*
X58663542Y-105945714D01*
X58592114Y-106017142D01*
X58449257Y-106088571D01*
X58092114Y-106088571D01*
X57949257Y-106017142D01*
X57877828Y-105945714D01*
G04 #@! TO.C,C19*
X115875714Y-98071714D02*
X115804285Y-98143142D01*
X115590000Y-98214571D01*
X115447142Y-98214571D01*
X115232857Y-98143142D01*
X115090000Y-98000285D01*
X115018571Y-97857428D01*
X114947142Y-97571714D01*
X114947142Y-97357428D01*
X115018571Y-97071714D01*
X115090000Y-96928857D01*
X115232857Y-96786000D01*
X115447142Y-96714571D01*
X115590000Y-96714571D01*
X115804285Y-96786000D01*
X115875714Y-96857428D01*
X117304285Y-98214571D02*
X116447142Y-98214571D01*
X116875714Y-98214571D02*
X116875714Y-96714571D01*
X116732857Y-96928857D01*
X116590000Y-97071714D01*
X116447142Y-97143142D01*
X118018571Y-98214571D02*
X118304285Y-98214571D01*
X118447142Y-98143142D01*
X118518571Y-98071714D01*
X118661428Y-97857428D01*
X118732857Y-97571714D01*
X118732857Y-97000285D01*
X118661428Y-96857428D01*
X118590000Y-96786000D01*
X118447142Y-96714571D01*
X118161428Y-96714571D01*
X118018571Y-96786000D01*
X117947142Y-96857428D01*
X117875714Y-97000285D01*
X117875714Y-97357428D01*
X117947142Y-97500285D01*
X118018571Y-97571714D01*
X118161428Y-97643142D01*
X118447142Y-97643142D01*
X118590000Y-97571714D01*
X118661428Y-97500285D01*
X118732857Y-97357428D01*
G04 #@! TO.C,C16*
X103429714Y-78259714D02*
X103358285Y-78331142D01*
X103144000Y-78402571D01*
X103001142Y-78402571D01*
X102786857Y-78331142D01*
X102644000Y-78188285D01*
X102572571Y-78045428D01*
X102501142Y-77759714D01*
X102501142Y-77545428D01*
X102572571Y-77259714D01*
X102644000Y-77116857D01*
X102786857Y-76974000D01*
X103001142Y-76902571D01*
X103144000Y-76902571D01*
X103358285Y-76974000D01*
X103429714Y-77045428D01*
X104858285Y-78402571D02*
X104001142Y-78402571D01*
X104429714Y-78402571D02*
X104429714Y-76902571D01*
X104286857Y-77116857D01*
X104144000Y-77259714D01*
X104001142Y-77331142D01*
X106144000Y-76902571D02*
X105858285Y-76902571D01*
X105715428Y-76974000D01*
X105644000Y-77045428D01*
X105501142Y-77259714D01*
X105429714Y-77545428D01*
X105429714Y-78116857D01*
X105501142Y-78259714D01*
X105572571Y-78331142D01*
X105715428Y-78402571D01*
X106001142Y-78402571D01*
X106144000Y-78331142D01*
X106215428Y-78259714D01*
X106286857Y-78116857D01*
X106286857Y-77759714D01*
X106215428Y-77616857D01*
X106144000Y-77545428D01*
X106001142Y-77474000D01*
X105715428Y-77474000D01*
X105572571Y-77545428D01*
X105501142Y-77616857D01*
X105429714Y-77759714D01*
G04 #@! TO.C,C18*
X68226714Y-61543285D02*
X68298142Y-61614714D01*
X68369571Y-61829000D01*
X68369571Y-61971857D01*
X68298142Y-62186142D01*
X68155285Y-62329000D01*
X68012428Y-62400428D01*
X67726714Y-62471857D01*
X67512428Y-62471857D01*
X67226714Y-62400428D01*
X67083857Y-62329000D01*
X66941000Y-62186142D01*
X66869571Y-61971857D01*
X66869571Y-61829000D01*
X66941000Y-61614714D01*
X67012428Y-61543285D01*
X68369571Y-60114714D02*
X68369571Y-60971857D01*
X68369571Y-60543285D02*
X66869571Y-60543285D01*
X67083857Y-60686142D01*
X67226714Y-60829000D01*
X67298142Y-60971857D01*
X67512428Y-59257571D02*
X67441000Y-59400428D01*
X67369571Y-59471857D01*
X67226714Y-59543285D01*
X67155285Y-59543285D01*
X67012428Y-59471857D01*
X66941000Y-59400428D01*
X66869571Y-59257571D01*
X66869571Y-58971857D01*
X66941000Y-58829000D01*
X67012428Y-58757571D01*
X67155285Y-58686142D01*
X67226714Y-58686142D01*
X67369571Y-58757571D01*
X67441000Y-58829000D01*
X67512428Y-58971857D01*
X67512428Y-59257571D01*
X67583857Y-59400428D01*
X67655285Y-59471857D01*
X67798142Y-59543285D01*
X68083857Y-59543285D01*
X68226714Y-59471857D01*
X68298142Y-59400428D01*
X68369571Y-59257571D01*
X68369571Y-58971857D01*
X68298142Y-58829000D01*
X68226714Y-58757571D01*
X68083857Y-58686142D01*
X67798142Y-58686142D01*
X67655285Y-58757571D01*
X67583857Y-58829000D01*
X67512428Y-58971857D01*
G04 #@! TO.C,C3*
X67337714Y-99056000D02*
X67409142Y-99127428D01*
X67480571Y-99341714D01*
X67480571Y-99484571D01*
X67409142Y-99698857D01*
X67266285Y-99841714D01*
X67123428Y-99913142D01*
X66837714Y-99984571D01*
X66623428Y-99984571D01*
X66337714Y-99913142D01*
X66194857Y-99841714D01*
X66052000Y-99698857D01*
X65980571Y-99484571D01*
X65980571Y-99341714D01*
X66052000Y-99127428D01*
X66123428Y-99056000D01*
X65980571Y-98556000D02*
X65980571Y-97627428D01*
X66552000Y-98127428D01*
X66552000Y-97913142D01*
X66623428Y-97770285D01*
X66694857Y-97698857D01*
X66837714Y-97627428D01*
X67194857Y-97627428D01*
X67337714Y-97698857D01*
X67409142Y-97770285D01*
X67480571Y-97913142D01*
X67480571Y-98341714D01*
X67409142Y-98484571D01*
X67337714Y-98556000D01*
G04 #@! TO.C,R11*
X61011714Y-106088571D02*
X60511714Y-105374285D01*
X60154571Y-106088571D02*
X60154571Y-104588571D01*
X60726000Y-104588571D01*
X60868857Y-104660000D01*
X60940285Y-104731428D01*
X61011714Y-104874285D01*
X61011714Y-105088571D01*
X60940285Y-105231428D01*
X60868857Y-105302857D01*
X60726000Y-105374285D01*
X60154571Y-105374285D01*
X62440285Y-106088571D02*
X61583142Y-106088571D01*
X62011714Y-106088571D02*
X62011714Y-104588571D01*
X61868857Y-104802857D01*
X61726000Y-104945714D01*
X61583142Y-105017142D01*
X63868857Y-106088571D02*
X63011714Y-106088571D01*
X63440285Y-106088571D02*
X63440285Y-104588571D01*
X63297428Y-104802857D01*
X63154571Y-104945714D01*
X63011714Y-105017142D01*
G04 #@! TO.C,R3*
X60191371Y-79885600D02*
X59477085Y-80385600D01*
X60191371Y-80742742D02*
X58691371Y-80742742D01*
X58691371Y-80171314D01*
X58762800Y-80028457D01*
X58834228Y-79957028D01*
X58977085Y-79885600D01*
X59191371Y-79885600D01*
X59334228Y-79957028D01*
X59405657Y-80028457D01*
X59477085Y-80171314D01*
X59477085Y-80742742D01*
X58691371Y-79385600D02*
X58691371Y-78457028D01*
X59262800Y-78957028D01*
X59262800Y-78742742D01*
X59334228Y-78599885D01*
X59405657Y-78528457D01*
X59548514Y-78457028D01*
X59905657Y-78457028D01*
X60048514Y-78528457D01*
X60119942Y-78599885D01*
X60191371Y-78742742D01*
X60191371Y-79171314D01*
X60119942Y-79314171D01*
X60048514Y-79385600D01*
G04 #@! TO.C,R7*
X85006571Y-99056000D02*
X84292285Y-99556000D01*
X85006571Y-99913142D02*
X83506571Y-99913142D01*
X83506571Y-99341714D01*
X83578000Y-99198857D01*
X83649428Y-99127428D01*
X83792285Y-99056000D01*
X84006571Y-99056000D01*
X84149428Y-99127428D01*
X84220857Y-99198857D01*
X84292285Y-99341714D01*
X84292285Y-99913142D01*
X83506571Y-98556000D02*
X83506571Y-97556000D01*
X85006571Y-98198857D01*
G04 #@! TO.C,C1*
X75211714Y-117852000D02*
X75283142Y-117923428D01*
X75354571Y-118137714D01*
X75354571Y-118280571D01*
X75283142Y-118494857D01*
X75140285Y-118637714D01*
X74997428Y-118709142D01*
X74711714Y-118780571D01*
X74497428Y-118780571D01*
X74211714Y-118709142D01*
X74068857Y-118637714D01*
X73926000Y-118494857D01*
X73854571Y-118280571D01*
X73854571Y-118137714D01*
X73926000Y-117923428D01*
X73997428Y-117852000D01*
X75354571Y-116423428D02*
X75354571Y-117280571D01*
X75354571Y-116852000D02*
X73854571Y-116852000D01*
X74068857Y-116994857D01*
X74211714Y-117137714D01*
X74283142Y-117280571D01*
G04 #@! TO.C,FB2*
X79013857Y-95611000D02*
X79013857Y-96111000D01*
X79799571Y-96111000D02*
X78299571Y-96111000D01*
X78299571Y-95396714D01*
X79013857Y-94325285D02*
X79085285Y-94111000D01*
X79156714Y-94039571D01*
X79299571Y-93968142D01*
X79513857Y-93968142D01*
X79656714Y-94039571D01*
X79728142Y-94111000D01*
X79799571Y-94253857D01*
X79799571Y-94825285D01*
X78299571Y-94825285D01*
X78299571Y-94325285D01*
X78371000Y-94182428D01*
X78442428Y-94111000D01*
X78585285Y-94039571D01*
X78728142Y-94039571D01*
X78871000Y-94111000D01*
X78942428Y-94182428D01*
X79013857Y-94325285D01*
X79013857Y-94825285D01*
X78442428Y-93396714D02*
X78371000Y-93325285D01*
X78299571Y-93182428D01*
X78299571Y-92825285D01*
X78371000Y-92682428D01*
X78442428Y-92611000D01*
X78585285Y-92539571D01*
X78728142Y-92539571D01*
X78942428Y-92611000D01*
X79799571Y-93468142D01*
X79799571Y-92539571D01*
G04 #@! TO.C,C26*
X64543714Y-99770285D02*
X64615142Y-99841714D01*
X64686571Y-100056000D01*
X64686571Y-100198857D01*
X64615142Y-100413142D01*
X64472285Y-100556000D01*
X64329428Y-100627428D01*
X64043714Y-100698857D01*
X63829428Y-100698857D01*
X63543714Y-100627428D01*
X63400857Y-100556000D01*
X63258000Y-100413142D01*
X63186571Y-100198857D01*
X63186571Y-100056000D01*
X63258000Y-99841714D01*
X63329428Y-99770285D01*
X63329428Y-99198857D02*
X63258000Y-99127428D01*
X63186571Y-98984571D01*
X63186571Y-98627428D01*
X63258000Y-98484571D01*
X63329428Y-98413142D01*
X63472285Y-98341714D01*
X63615142Y-98341714D01*
X63829428Y-98413142D01*
X64686571Y-99270285D01*
X64686571Y-98341714D01*
X63186571Y-97056000D02*
X63186571Y-97341714D01*
X63258000Y-97484571D01*
X63329428Y-97556000D01*
X63543714Y-97698857D01*
X63829428Y-97770285D01*
X64400857Y-97770285D01*
X64543714Y-97698857D01*
X64615142Y-97627428D01*
X64686571Y-97484571D01*
X64686571Y-97198857D01*
X64615142Y-97056000D01*
X64543714Y-96984571D01*
X64400857Y-96913142D01*
X64043714Y-96913142D01*
X63900857Y-96984571D01*
X63829428Y-97056000D01*
X63758000Y-97198857D01*
X63758000Y-97484571D01*
X63829428Y-97627428D01*
X63900857Y-97698857D01*
X64043714Y-97770285D01*
G04 #@! TO.C,C4*
X71124000Y-110517714D02*
X71052571Y-110589142D01*
X70838285Y-110660571D01*
X70695428Y-110660571D01*
X70481142Y-110589142D01*
X70338285Y-110446285D01*
X70266857Y-110303428D01*
X70195428Y-110017714D01*
X70195428Y-109803428D01*
X70266857Y-109517714D01*
X70338285Y-109374857D01*
X70481142Y-109232000D01*
X70695428Y-109160571D01*
X70838285Y-109160571D01*
X71052571Y-109232000D01*
X71124000Y-109303428D01*
X72409714Y-109660571D02*
X72409714Y-110660571D01*
X72052571Y-109089142D02*
X71695428Y-110160571D01*
X72624000Y-110160571D01*
G04 #@! TO.C,C14*
X109779714Y-89943714D02*
X109708285Y-90015142D01*
X109494000Y-90086571D01*
X109351142Y-90086571D01*
X109136857Y-90015142D01*
X108994000Y-89872285D01*
X108922571Y-89729428D01*
X108851142Y-89443714D01*
X108851142Y-89229428D01*
X108922571Y-88943714D01*
X108994000Y-88800857D01*
X109136857Y-88658000D01*
X109351142Y-88586571D01*
X109494000Y-88586571D01*
X109708285Y-88658000D01*
X109779714Y-88729428D01*
X111208285Y-90086571D02*
X110351142Y-90086571D01*
X110779714Y-90086571D02*
X110779714Y-88586571D01*
X110636857Y-88800857D01*
X110494000Y-88943714D01*
X110351142Y-89015142D01*
X112494000Y-89086571D02*
X112494000Y-90086571D01*
X112136857Y-88515142D02*
X111779714Y-89586571D01*
X112708285Y-89586571D01*
G04 #@! TO.C,C7*
X82323714Y-95500000D02*
X82395142Y-95571428D01*
X82466571Y-95785714D01*
X82466571Y-95928571D01*
X82395142Y-96142857D01*
X82252285Y-96285714D01*
X82109428Y-96357142D01*
X81823714Y-96428571D01*
X81609428Y-96428571D01*
X81323714Y-96357142D01*
X81180857Y-96285714D01*
X81038000Y-96142857D01*
X80966571Y-95928571D01*
X80966571Y-95785714D01*
X81038000Y-95571428D01*
X81109428Y-95500000D01*
X80966571Y-95000000D02*
X80966571Y-94000000D01*
X82466571Y-94642857D01*
G04 #@! TO.C,C11*
X88927714Y-97230285D02*
X88999142Y-97301714D01*
X89070571Y-97516000D01*
X89070571Y-97658857D01*
X88999142Y-97873142D01*
X88856285Y-98016000D01*
X88713428Y-98087428D01*
X88427714Y-98158857D01*
X88213428Y-98158857D01*
X87927714Y-98087428D01*
X87784857Y-98016000D01*
X87642000Y-97873142D01*
X87570571Y-97658857D01*
X87570571Y-97516000D01*
X87642000Y-97301714D01*
X87713428Y-97230285D01*
X89070571Y-95801714D02*
X89070571Y-96658857D01*
X89070571Y-96230285D02*
X87570571Y-96230285D01*
X87784857Y-96373142D01*
X87927714Y-96516000D01*
X87999142Y-96658857D01*
X89070571Y-94373142D02*
X89070571Y-95230285D01*
X89070571Y-94801714D02*
X87570571Y-94801714D01*
X87784857Y-94944571D01*
X87927714Y-95087428D01*
X87999142Y-95230285D01*
G04 #@! TO.C,C17*
X97309714Y-79958285D02*
X97381142Y-80029714D01*
X97452571Y-80244000D01*
X97452571Y-80386857D01*
X97381142Y-80601142D01*
X97238285Y-80744000D01*
X97095428Y-80815428D01*
X96809714Y-80886857D01*
X96595428Y-80886857D01*
X96309714Y-80815428D01*
X96166857Y-80744000D01*
X96024000Y-80601142D01*
X95952571Y-80386857D01*
X95952571Y-80244000D01*
X96024000Y-80029714D01*
X96095428Y-79958285D01*
X97452571Y-78529714D02*
X97452571Y-79386857D01*
X97452571Y-78958285D02*
X95952571Y-78958285D01*
X96166857Y-79101142D01*
X96309714Y-79244000D01*
X96381142Y-79386857D01*
X95952571Y-78029714D02*
X95952571Y-77029714D01*
X97452571Y-77672571D01*
G04 #@! TO.C,C12*
X89181714Y-80212285D02*
X89253142Y-80283714D01*
X89324571Y-80498000D01*
X89324571Y-80640857D01*
X89253142Y-80855142D01*
X89110285Y-80998000D01*
X88967428Y-81069428D01*
X88681714Y-81140857D01*
X88467428Y-81140857D01*
X88181714Y-81069428D01*
X88038857Y-80998000D01*
X87896000Y-80855142D01*
X87824571Y-80640857D01*
X87824571Y-80498000D01*
X87896000Y-80283714D01*
X87967428Y-80212285D01*
X89324571Y-78783714D02*
X89324571Y-79640857D01*
X89324571Y-79212285D02*
X87824571Y-79212285D01*
X88038857Y-79355142D01*
X88181714Y-79498000D01*
X88253142Y-79640857D01*
X87967428Y-78212285D02*
X87896000Y-78140857D01*
X87824571Y-77998000D01*
X87824571Y-77640857D01*
X87896000Y-77498000D01*
X87967428Y-77426571D01*
X88110285Y-77355142D01*
X88253142Y-77355142D01*
X88467428Y-77426571D01*
X89324571Y-78283714D01*
X89324571Y-77355142D01*
G04 #@! TO.C,C31*
X80037714Y-79196285D02*
X80109142Y-79267714D01*
X80180571Y-79482000D01*
X80180571Y-79624857D01*
X80109142Y-79839142D01*
X79966285Y-79982000D01*
X79823428Y-80053428D01*
X79537714Y-80124857D01*
X79323428Y-80124857D01*
X79037714Y-80053428D01*
X78894857Y-79982000D01*
X78752000Y-79839142D01*
X78680571Y-79624857D01*
X78680571Y-79482000D01*
X78752000Y-79267714D01*
X78823428Y-79196285D01*
X78680571Y-78696285D02*
X78680571Y-77767714D01*
X79252000Y-78267714D01*
X79252000Y-78053428D01*
X79323428Y-77910571D01*
X79394857Y-77839142D01*
X79537714Y-77767714D01*
X79894857Y-77767714D01*
X80037714Y-77839142D01*
X80109142Y-77910571D01*
X80180571Y-78053428D01*
X80180571Y-78482000D01*
X80109142Y-78624857D01*
X80037714Y-78696285D01*
X80180571Y-76339142D02*
X80180571Y-77196285D01*
X80180571Y-76767714D02*
X78680571Y-76767714D01*
X78894857Y-76910571D01*
X79037714Y-77053428D01*
X79109142Y-77196285D01*
D14*
G04 #@! TO.C,R10*
X62324822Y-109168000D02*
X61525578Y-109168000D01*
X62324822Y-110288000D02*
X61525578Y-110288000D01*
G04 #@! TO.C,J1*
X54873200Y-85300000D02*
X54873200Y-94700000D01*
X56773200Y-94700000D02*
X54873200Y-94700000D01*
X60673200Y-94700000D02*
X58673200Y-94700000D01*
X60673200Y-85300000D02*
X58673200Y-85300000D01*
X56773200Y-85300000D02*
X54873200Y-85300000D01*
G04 #@! TO.C,D1*
X56478600Y-68860800D02*
X59163600Y-68860800D01*
X56478600Y-66940800D02*
X56478600Y-68860800D01*
X59163600Y-66940800D02*
X56478600Y-66940800D01*
G04 #@! TO.C,R6*
X80426978Y-86816000D02*
X81226222Y-86816000D01*
X80426978Y-87936000D02*
X81226222Y-87936000D01*
G04 #@! TO.C,C13*
X104386748Y-92483000D02*
X104909252Y-92483000D01*
X104386748Y-93953000D02*
X104909252Y-93953000D01*
G04 #@! TO.C,C25*
X61999800Y-79374348D02*
X61999800Y-79896852D01*
X60529800Y-79374348D02*
X60529800Y-79896852D01*
G04 #@! TO.C,J6*
X131440000Y-91210000D02*
X131440000Y-106570000D01*
X134100000Y-104860000D02*
X140100000Y-104860000D01*
X131042929Y-102320000D02*
X131440000Y-102320000D01*
X131042929Y-104860000D02*
X131440000Y-104860000D01*
X134100000Y-91210000D02*
X131440000Y-91210000D01*
X140100000Y-104860000D02*
X140100000Y-105620000D01*
X131042929Y-97240000D02*
X131440000Y-97240000D01*
X140100000Y-100540000D02*
X134100000Y-100540000D01*
X131042929Y-100540000D02*
X131440000Y-100540000D01*
X140100000Y-99780000D02*
X140100000Y-100540000D01*
X131110000Y-92920000D02*
X131440000Y-92920000D01*
X140100000Y-92920000D02*
X134100000Y-92920000D01*
X134100000Y-99780000D02*
X140100000Y-99780000D01*
X128730000Y-92540000D02*
X128730000Y-91270000D01*
X131042929Y-95460000D02*
X131440000Y-95460000D01*
X140100000Y-97240000D02*
X140100000Y-98000000D01*
X131440000Y-106570000D02*
X134100000Y-106570000D01*
X131440000Y-96350000D02*
X134100000Y-96350000D01*
X131042929Y-99780000D02*
X131440000Y-99780000D01*
X131042929Y-103080000D02*
X131440000Y-103080000D01*
X134100000Y-102320000D02*
X140100000Y-102320000D01*
X134100000Y-92820000D02*
X140100000Y-92820000D01*
X134100000Y-94700000D02*
X140100000Y-94700000D01*
X134100000Y-92340000D02*
X140100000Y-92340000D01*
X140100000Y-103080000D02*
X134100000Y-103080000D01*
X134100000Y-92160000D02*
X140100000Y-92160000D01*
X131440000Y-101430000D02*
X134100000Y-101430000D01*
X134100000Y-92220000D02*
X140100000Y-92220000D01*
X131042929Y-98000000D02*
X131440000Y-98000000D01*
X131110000Y-92160000D02*
X131440000Y-92160000D01*
X131440000Y-103970000D02*
X134100000Y-103970000D01*
X140100000Y-95460000D02*
X134100000Y-95460000D01*
X140100000Y-94700000D02*
X140100000Y-95460000D01*
X140100000Y-105620000D02*
X134100000Y-105620000D01*
X131440000Y-93810000D02*
X134100000Y-93810000D01*
X140100000Y-98000000D02*
X134100000Y-98000000D01*
X134100000Y-106570000D02*
X134100000Y-91210000D01*
X131042929Y-105620000D02*
X131440000Y-105620000D01*
X134100000Y-97240000D02*
X140100000Y-97240000D01*
X134100000Y-92460000D02*
X140100000Y-92460000D01*
X134100000Y-92580000D02*
X140100000Y-92580000D01*
X128730000Y-91270000D02*
X130000000Y-91270000D01*
X134100000Y-92700000D02*
X140100000Y-92700000D01*
X131042929Y-94700000D02*
X131440000Y-94700000D01*
X140100000Y-102320000D02*
X140100000Y-103080000D01*
X131440000Y-98890000D02*
X134100000Y-98890000D01*
X140100000Y-92160000D02*
X140100000Y-92920000D01*
G04 #@! TO.C,C10*
X100083948Y-79173400D02*
X100606452Y-79173400D01*
X100083948Y-80643400D02*
X100606452Y-80643400D01*
G04 #@! TO.C,J4*
X131042929Y-122640000D02*
X131440000Y-122640000D01*
X131440000Y-111590000D02*
X134100000Y-111590000D01*
X131440000Y-124290000D02*
X134100000Y-124290000D01*
X140100000Y-120100000D02*
X140100000Y-120860000D01*
X140100000Y-120860000D02*
X134100000Y-120860000D01*
X140100000Y-113240000D02*
X134100000Y-113240000D01*
X134100000Y-125180000D02*
X140100000Y-125180000D01*
X131110000Y-109940000D02*
X131440000Y-109940000D01*
X131042929Y-123400000D02*
X131440000Y-123400000D01*
X140100000Y-117560000D02*
X140100000Y-118320000D01*
X131042929Y-125180000D02*
X131440000Y-125180000D01*
X131042929Y-118320000D02*
X131440000Y-118320000D01*
X131042929Y-112480000D02*
X131440000Y-112480000D01*
X140100000Y-123400000D02*
X134100000Y-123400000D01*
X134100000Y-110120000D02*
X140100000Y-110120000D01*
X131440000Y-121750000D02*
X134100000Y-121750000D01*
X134100000Y-122640000D02*
X140100000Y-122640000D01*
X134100000Y-110000000D02*
X140100000Y-110000000D01*
X134100000Y-110240000D02*
X140100000Y-110240000D01*
X131440000Y-119210000D02*
X134100000Y-119210000D01*
X134100000Y-115020000D02*
X140100000Y-115020000D01*
X131042929Y-113240000D02*
X131440000Y-113240000D01*
X140100000Y-109940000D02*
X140100000Y-110700000D01*
X134100000Y-117560000D02*
X140100000Y-117560000D01*
X131440000Y-126890000D02*
X134100000Y-126890000D01*
X131440000Y-114130000D02*
X134100000Y-114130000D01*
X134100000Y-110360000D02*
X140100000Y-110360000D01*
X131042929Y-117560000D02*
X131440000Y-117560000D01*
X131042929Y-115780000D02*
X131440000Y-115780000D01*
X131440000Y-116670000D02*
X134100000Y-116670000D01*
X140100000Y-118320000D02*
X134100000Y-118320000D01*
X134100000Y-108990000D02*
X131440000Y-108990000D01*
X140100000Y-125180000D02*
X140100000Y-125940000D01*
X140100000Y-110700000D02*
X134100000Y-110700000D01*
X134100000Y-126890000D02*
X134100000Y-108990000D01*
X128730000Y-109050000D02*
X130000000Y-109050000D01*
X131042929Y-115020000D02*
X131440000Y-115020000D01*
X134100000Y-110600000D02*
X140100000Y-110600000D01*
X131042929Y-120860000D02*
X131440000Y-120860000D01*
X140100000Y-125940000D02*
X134100000Y-125940000D01*
X140100000Y-115780000D02*
X134100000Y-115780000D01*
X131042929Y-125940000D02*
X131440000Y-125940000D01*
X140100000Y-112480000D02*
X140100000Y-113240000D01*
X140100000Y-122640000D02*
X140100000Y-123400000D01*
X128730000Y-110320000D02*
X128730000Y-109050000D01*
X131042929Y-120100000D02*
X131440000Y-120100000D01*
X131110000Y-110700000D02*
X131440000Y-110700000D01*
X134100000Y-109940000D02*
X140100000Y-109940000D01*
X131440000Y-108990000D02*
X131440000Y-126890000D01*
X140100000Y-115020000D02*
X140100000Y-115780000D01*
X134100000Y-120100000D02*
X140100000Y-120100000D01*
X134100000Y-110480000D02*
X140100000Y-110480000D01*
X134100000Y-112480000D02*
X140100000Y-112480000D01*
G04 #@! TO.C,C6*
X80539948Y-85763800D02*
X81062452Y-85763800D01*
X80539948Y-84293800D02*
X81062452Y-84293800D01*
G04 #@! TO.C,C23*
X87349000Y-81694148D02*
X87349000Y-82216652D01*
X85879000Y-81694148D02*
X85879000Y-82216652D01*
G04 #@! TO.C,R1*
X66445200Y-86722378D02*
X66445200Y-87521622D01*
X67565200Y-86722378D02*
X67565200Y-87521622D01*
G04 #@! TO.C,C5*
X85050252Y-88111000D02*
X84527748Y-88111000D01*
X85050252Y-86641000D02*
X84527748Y-86641000D01*
G04 #@! TO.C,U3*
X99160000Y-95110000D02*
X100110000Y-95110000D01*
X99160000Y-84890000D02*
X100110000Y-84890000D01*
X100110000Y-95110000D02*
X100110000Y-94160000D01*
X90840000Y-95110000D02*
X89890000Y-95110000D01*
X89890000Y-85840000D02*
X88550000Y-85840000D01*
X89890000Y-84890000D02*
X89890000Y-85840000D01*
X100110000Y-84890000D02*
X100110000Y-85840000D01*
X90840000Y-84890000D02*
X89890000Y-84890000D01*
X89890000Y-95110000D02*
X89890000Y-94160000D01*
G04 #@! TO.C,U4*
X68442000Y-68661700D02*
X70242000Y-68661700D01*
X70242000Y-65441700D02*
X67792000Y-65441700D01*
G04 #@! TO.C,C15*
X92175000Y-101338748D02*
X92175000Y-101861252D01*
X90705000Y-101338748D02*
X90705000Y-101861252D01*
G04 #@! TO.C,U2*
X69764000Y-103018000D02*
X69764000Y-104818000D01*
X72984000Y-104818000D02*
X72984000Y-102368000D01*
G04 #@! TO.C,R13*
X66447600Y-63197678D02*
X66447600Y-63996922D01*
X65327600Y-63197678D02*
X65327600Y-63996922D01*
G04 #@! TO.C,Y1*
X81214200Y-80305400D02*
X81214200Y-83605400D01*
X81214200Y-83605400D02*
X85214200Y-83605400D01*
G04 #@! TO.C,C8*
X86235200Y-92235148D02*
X86235200Y-92757652D01*
X84765200Y-92235148D02*
X84765200Y-92757652D01*
G04 #@! TO.C,R4*
X62223222Y-68460800D02*
X61423978Y-68460800D01*
X62223222Y-67340800D02*
X61423978Y-67340800D01*
G04 #@! TO.C,R14*
X73712000Y-67926378D02*
X73712000Y-68725622D01*
X72592000Y-67926378D02*
X72592000Y-68725622D01*
G04 #@! TO.C,FB1*
X76540778Y-85614200D02*
X77340022Y-85614200D01*
X76540778Y-84494200D02*
X77340022Y-84494200D01*
G04 #@! TO.C,J5*
X131042929Y-67520000D02*
X131440000Y-67520000D01*
X131042929Y-69300000D02*
X131440000Y-69300000D01*
X134100000Y-53110000D02*
X131440000Y-53110000D01*
X134100000Y-54600000D02*
X140100000Y-54600000D01*
X134100000Y-69300000D02*
X140100000Y-69300000D01*
X140100000Y-70060000D02*
X134100000Y-70060000D01*
X131440000Y-65870000D02*
X134100000Y-65870000D01*
X128730000Y-54440000D02*
X128730000Y-53170000D01*
X131042929Y-70060000D02*
X131440000Y-70060000D01*
X131042929Y-62440000D02*
X131440000Y-62440000D01*
X140100000Y-54820000D02*
X134100000Y-54820000D01*
X140100000Y-59140000D02*
X140100000Y-59900000D01*
X134100000Y-54240000D02*
X140100000Y-54240000D01*
X140100000Y-62440000D02*
X134100000Y-62440000D01*
X134100000Y-56600000D02*
X140100000Y-56600000D01*
X140100000Y-67520000D02*
X134100000Y-67520000D01*
X134100000Y-54720000D02*
X140100000Y-54720000D01*
X131440000Y-68410000D02*
X134100000Y-68410000D01*
X131042929Y-59900000D02*
X131440000Y-59900000D01*
X134100000Y-61680000D02*
X140100000Y-61680000D01*
X131042929Y-56600000D02*
X131440000Y-56600000D01*
X131042929Y-59140000D02*
X131440000Y-59140000D01*
X134100000Y-71010000D02*
X134100000Y-53110000D01*
X131042929Y-64980000D02*
X131440000Y-64980000D01*
X140100000Y-66760000D02*
X140100000Y-67520000D01*
X140100000Y-57360000D02*
X134100000Y-57360000D01*
X131440000Y-53110000D02*
X131440000Y-71010000D01*
X131440000Y-60790000D02*
X134100000Y-60790000D01*
X131110000Y-54820000D02*
X131440000Y-54820000D01*
X140100000Y-64980000D02*
X134100000Y-64980000D01*
X134100000Y-66760000D02*
X140100000Y-66760000D01*
X134100000Y-54120000D02*
X140100000Y-54120000D01*
X140100000Y-56600000D02*
X140100000Y-57360000D01*
X131440000Y-63330000D02*
X134100000Y-63330000D01*
X131440000Y-71010000D02*
X134100000Y-71010000D01*
X140100000Y-54060000D02*
X140100000Y-54820000D01*
X131042929Y-57360000D02*
X131440000Y-57360000D01*
X131042929Y-64220000D02*
X131440000Y-64220000D01*
X134100000Y-64220000D02*
X140100000Y-64220000D01*
X140100000Y-64220000D02*
X140100000Y-64980000D01*
X140100000Y-69300000D02*
X140100000Y-70060000D01*
X131042929Y-61680000D02*
X131440000Y-61680000D01*
X131440000Y-55710000D02*
X134100000Y-55710000D01*
X140100000Y-59900000D02*
X134100000Y-59900000D01*
X131110000Y-54060000D02*
X131440000Y-54060000D01*
X128730000Y-53170000D02*
X130000000Y-53170000D01*
X134100000Y-54360000D02*
X140100000Y-54360000D01*
X131440000Y-58250000D02*
X134100000Y-58250000D01*
X131042929Y-66760000D02*
X131440000Y-66760000D01*
X134100000Y-54060000D02*
X140100000Y-54060000D01*
X134100000Y-59140000D02*
X140100000Y-59140000D01*
X140100000Y-61680000D02*
X140100000Y-62440000D01*
X134100000Y-54480000D02*
X140100000Y-54480000D01*
G04 #@! TO.C,R12*
X73305600Y-63989378D02*
X73305600Y-64788622D01*
X72185600Y-63989378D02*
X72185600Y-64788622D01*
G04 #@! TO.C,LOGO1*
G36*
X61137687Y-114459002D02*
G01*
X61177160Y-114459114D01*
X61215144Y-114459293D01*
X61250966Y-114459539D01*
X61283955Y-114459850D01*
X61313436Y-114460228D01*
X61338738Y-114460671D01*
X61359186Y-114461181D01*
X61374109Y-114461757D01*
X61382834Y-114462399D01*
X61384783Y-114462798D01*
X61392200Y-114468880D01*
X61395164Y-114472946D01*
X61396353Y-114477449D01*
X61398752Y-114488540D01*
X61402253Y-114505667D01*
X61406750Y-114528279D01*
X61412135Y-114555825D01*
X61418302Y-114587754D01*
X61425145Y-114623514D01*
X61432555Y-114662553D01*
X61440427Y-114704322D01*
X61448653Y-114748268D01*
X61451610Y-114764139D01*
X61459912Y-114808695D01*
X61467859Y-114851255D01*
X61475346Y-114891268D01*
X61482271Y-114928185D01*
X61488530Y-114961456D01*
X61494018Y-114990532D01*
X61498633Y-115014864D01*
X61502272Y-115033903D01*
X61504829Y-115047098D01*
X61506203Y-115053900D01*
X61506386Y-115054675D01*
X61510218Y-115061244D01*
X61516385Y-115068180D01*
X61521706Y-115071387D01*
X61533043Y-115076924D01*
X61549656Y-115084489D01*
X61570807Y-115093782D01*
X61595757Y-115104502D01*
X61623766Y-115116348D01*
X61654095Y-115129017D01*
X61686005Y-115142210D01*
X61718757Y-115155624D01*
X61751611Y-115168960D01*
X61783828Y-115181915D01*
X61814670Y-115194188D01*
X61843397Y-115205479D01*
X61869270Y-115215486D01*
X61891549Y-115223909D01*
X61909496Y-115230445D01*
X61922372Y-115234794D01*
X61929436Y-115236654D01*
X61930021Y-115236701D01*
X61940723Y-115235203D01*
X61952604Y-115229956D01*
X61964502Y-115222378D01*
X61971781Y-115217357D01*
X61984341Y-115208721D01*
X62001471Y-115196956D01*
X62022463Y-115182551D01*
X62046606Y-115165990D01*
X62073193Y-115147761D01*
X62101512Y-115128351D01*
X62125068Y-115112210D01*
X62157357Y-115090085D01*
X62191069Y-115066975D01*
X62225044Y-115043677D01*
X62258123Y-115020985D01*
X62289145Y-114999697D01*
X62316952Y-114980607D01*
X62340384Y-114964510D01*
X62348128Y-114959187D01*
X62374962Y-114940885D01*
X62396511Y-114926546D01*
X62413334Y-114915830D01*
X62425992Y-114908395D01*
X62435045Y-114903902D01*
X62441053Y-114902009D01*
X62442423Y-114901898D01*
X62444894Y-114902356D01*
X62448238Y-114903945D01*
X62452795Y-114906986D01*
X62458904Y-114911801D01*
X62466904Y-114918712D01*
X62477133Y-114928041D01*
X62489931Y-114940108D01*
X62505637Y-114955237D01*
X62524590Y-114973748D01*
X62547129Y-114995962D01*
X62573592Y-115022203D01*
X62604320Y-115052791D01*
X62639650Y-115088049D01*
X62659327Y-115107709D01*
X62701787Y-115150225D01*
X62739141Y-115187803D01*
X62771498Y-115220553D01*
X62798964Y-115248588D01*
X62821648Y-115272020D01*
X62839659Y-115290961D01*
X62853103Y-115305523D01*
X62862090Y-115315817D01*
X62866727Y-115321956D01*
X62867438Y-115323457D01*
X62867737Y-115333538D01*
X62865751Y-115340627D01*
X62863123Y-115344705D01*
X62856704Y-115354293D01*
X62846816Y-115368917D01*
X62833781Y-115388106D01*
X62817920Y-115411388D01*
X62799556Y-115438290D01*
X62779011Y-115468340D01*
X62756608Y-115501066D01*
X62732667Y-115535996D01*
X62707512Y-115572657D01*
X62701639Y-115581211D01*
X62671506Y-115625133D01*
X62645261Y-115663488D01*
X62622649Y-115696668D01*
X62603413Y-115725067D01*
X62587297Y-115749077D01*
X62574045Y-115769091D01*
X62563402Y-115785502D01*
X62555110Y-115798703D01*
X62548915Y-115809086D01*
X62544560Y-115817044D01*
X62541789Y-115822970D01*
X62540346Y-115827256D01*
X62540014Y-115829172D01*
X62540034Y-115832941D01*
X62540853Y-115838013D01*
X62542673Y-115844898D01*
X62545694Y-115854104D01*
X62550119Y-115866139D01*
X62556149Y-115881513D01*
X62563987Y-115900733D01*
X62573834Y-115924309D01*
X62585892Y-115952747D01*
X62600362Y-115986558D01*
X62617447Y-116026249D01*
X62627169Y-116048771D01*
X62647473Y-116095624D01*
X62665131Y-116136030D01*
X62680267Y-116170252D01*
X62692999Y-116198554D01*
X62703451Y-116221199D01*
X62711742Y-116238453D01*
X62717995Y-116250577D01*
X62722330Y-116257837D01*
X62724375Y-116260233D01*
X62729559Y-116262485D01*
X62740301Y-116265559D01*
X62756857Y-116269510D01*
X62779482Y-116274393D01*
X62808432Y-116280261D01*
X62843961Y-116287171D01*
X62886327Y-116295175D01*
X62899997Y-116297722D01*
X62961571Y-116309159D01*
X63016408Y-116319347D01*
X63064904Y-116328366D01*
X63107460Y-116336301D01*
X63144473Y-116343231D01*
X63176342Y-116349241D01*
X63203464Y-116354411D01*
X63226237Y-116358824D01*
X63245062Y-116362563D01*
X63260334Y-116365709D01*
X63272454Y-116368345D01*
X63281818Y-116370552D01*
X63288826Y-116372413D01*
X63293876Y-116374011D01*
X63297365Y-116375426D01*
X63299692Y-116376743D01*
X63301256Y-116378041D01*
X63302455Y-116379405D01*
X63303686Y-116380915D01*
X63303783Y-116381028D01*
X63311950Y-116390442D01*
X63311950Y-116971333D01*
X63301968Y-116981044D01*
X63299789Y-116982934D01*
X63296957Y-116984743D01*
X63292975Y-116986578D01*
X63287346Y-116988544D01*
X63279571Y-116990747D01*
X63269153Y-116993293D01*
X63255594Y-116996288D01*
X63238397Y-116999836D01*
X63217063Y-117004045D01*
X63191096Y-117009020D01*
X63159997Y-117014867D01*
X63123269Y-117021690D01*
X63080413Y-117029597D01*
X63030933Y-117038692D01*
X63028840Y-117039077D01*
X62985721Y-117047030D01*
X62944394Y-117054720D01*
X62905460Y-117062031D01*
X62869520Y-117068848D01*
X62837173Y-117075054D01*
X62809020Y-117080533D01*
X62785663Y-117085170D01*
X62767700Y-117088849D01*
X62755734Y-117091454D01*
X62750562Y-117092792D01*
X62739924Y-117097957D01*
X62731817Y-117104275D01*
X62730319Y-117106165D01*
X62728109Y-117110859D01*
X62723459Y-117121707D01*
X62716610Y-117138119D01*
X62707804Y-117159502D01*
X62697283Y-117185266D01*
X62685286Y-117214818D01*
X62672056Y-117247568D01*
X62657834Y-117282924D01*
X62642861Y-117320294D01*
X62638653Y-117330823D01*
X62621258Y-117374386D01*
X62606379Y-117411726D01*
X62593829Y-117443362D01*
X62583425Y-117469809D01*
X62574982Y-117491584D01*
X62568317Y-117509204D01*
X62563244Y-117523186D01*
X62559578Y-117534048D01*
X62557137Y-117542304D01*
X62555735Y-117548473D01*
X62555188Y-117553072D01*
X62555311Y-117556616D01*
X62555921Y-117559623D01*
X62556418Y-117561303D01*
X62559149Y-117566504D01*
X62565678Y-117577167D01*
X62575667Y-117592785D01*
X62588781Y-117612854D01*
X62604683Y-117636867D01*
X62623037Y-117664320D01*
X62643506Y-117694705D01*
X62665755Y-117727519D01*
X62689445Y-117762254D01*
X62711577Y-117794529D01*
X62736200Y-117830368D01*
X62759670Y-117864567D01*
X62781654Y-117896640D01*
X62801821Y-117926100D01*
X62819839Y-117952462D01*
X62835375Y-117975238D01*
X62848096Y-117993941D01*
X62857671Y-118008087D01*
X62863767Y-118017187D01*
X62866018Y-118020685D01*
X62867985Y-118029233D01*
X62867438Y-118037354D01*
X62864849Y-118041539D01*
X62857963Y-118049824D01*
X62846672Y-118062322D01*
X62830868Y-118079144D01*
X62810444Y-118100403D01*
X62785291Y-118126211D01*
X62755301Y-118156679D01*
X62720367Y-118191919D01*
X62680380Y-118232043D01*
X62658884Y-118253546D01*
X62621488Y-118290911D01*
X62588872Y-118323468D01*
X62560684Y-118351543D01*
X62536576Y-118375466D01*
X62516196Y-118395563D01*
X62499195Y-118412163D01*
X62485223Y-118425594D01*
X62473929Y-118436185D01*
X62464964Y-118444261D01*
X62457977Y-118450153D01*
X62452619Y-118454187D01*
X62448539Y-118456692D01*
X62445387Y-118457996D01*
X62442814Y-118458426D01*
X62440468Y-118458311D01*
X62440326Y-118458294D01*
X62435204Y-118456428D01*
X62425982Y-118451501D01*
X62412410Y-118443352D01*
X62394240Y-118431820D01*
X62371222Y-118416741D01*
X62343107Y-118397955D01*
X62309644Y-118375300D01*
X62270586Y-118348615D01*
X62261178Y-118342160D01*
X62227944Y-118319343D01*
X62194778Y-118296572D01*
X62162483Y-118274399D01*
X62131866Y-118253378D01*
X62103731Y-118234061D01*
X62078885Y-118217001D01*
X62058132Y-118202752D01*
X62042278Y-118191866D01*
X62038053Y-118188965D01*
X62016644Y-118174469D01*
X62000190Y-118163859D01*
X61987845Y-118156655D01*
X61978763Y-118152378D01*
X61972098Y-118150550D01*
X61969881Y-118150397D01*
X61963698Y-118151684D01*
X61953232Y-118155669D01*
X61938095Y-118162536D01*
X61917899Y-118172471D01*
X61892256Y-118185661D01*
X61860780Y-118202289D01*
X61855998Y-118204841D01*
X61830875Y-118218166D01*
X61807616Y-118230310D01*
X61787038Y-118240861D01*
X61769960Y-118249406D01*
X61757201Y-118255532D01*
X61749581Y-118258828D01*
X61747920Y-118259286D01*
X61739878Y-118257206D01*
X61735531Y-118254749D01*
X61733582Y-118251031D01*
X61729057Y-118241060D01*
X61722147Y-118225293D01*
X61713043Y-118204190D01*
X61701936Y-118178208D01*
X61689016Y-118147805D01*
X61674474Y-118113440D01*
X61658501Y-118075569D01*
X61641288Y-118034653D01*
X61623025Y-117991148D01*
X61603904Y-117945513D01*
X61584115Y-117898206D01*
X61563848Y-117849685D01*
X61543296Y-117800408D01*
X61522648Y-117750834D01*
X61502095Y-117701420D01*
X61481828Y-117652625D01*
X61462037Y-117604906D01*
X61442915Y-117558722D01*
X61424651Y-117514531D01*
X61407435Y-117472791D01*
X61391460Y-117433960D01*
X61376916Y-117398497D01*
X61363993Y-117366859D01*
X61352882Y-117339504D01*
X61343774Y-117316891D01*
X61336861Y-117299478D01*
X61332331Y-117287723D01*
X61330377Y-117282084D01*
X61330312Y-117281703D01*
X61332719Y-117273414D01*
X61339883Y-117264363D01*
X61352461Y-117253903D01*
X61371111Y-117241385D01*
X61371257Y-117241294D01*
X61434287Y-117198467D01*
X61490501Y-117153367D01*
X61540024Y-117105846D01*
X61582982Y-117055757D01*
X61619499Y-117002950D01*
X61649700Y-116947277D01*
X61673711Y-116888591D01*
X61676743Y-116879652D01*
X61685441Y-116852521D01*
X61692214Y-116829001D01*
X61697296Y-116807490D01*
X61700919Y-116786389D01*
X61703316Y-116764097D01*
X61704720Y-116739014D01*
X61705364Y-116709538D01*
X61705489Y-116682221D01*
X61705418Y-116653467D01*
X61705149Y-116630681D01*
X61704598Y-116612570D01*
X61703680Y-116597844D01*
X61702312Y-116585210D01*
X61700410Y-116573379D01*
X61697889Y-116561057D01*
X61697476Y-116559197D01*
X61679154Y-116492237D01*
X61654957Y-116429473D01*
X61624762Y-116370671D01*
X61588444Y-116315599D01*
X61545881Y-116264023D01*
X61535257Y-116252694D01*
X61486575Y-116207130D01*
X61433668Y-116167299D01*
X61377042Y-116133455D01*
X61317206Y-116105854D01*
X61254667Y-116084750D01*
X61189932Y-116070400D01*
X61165676Y-116066873D01*
X61140089Y-116064692D01*
X61109882Y-116063759D01*
X61077100Y-116063998D01*
X61043789Y-116065333D01*
X61011993Y-116067691D01*
X60983759Y-116070996D01*
X60965408Y-116074208D01*
X60900376Y-116091625D01*
X60838403Y-116115353D01*
X60779869Y-116145050D01*
X60725157Y-116180374D01*
X60674648Y-116220982D01*
X60628724Y-116266532D01*
X60587766Y-116316683D01*
X60552157Y-116371090D01*
X60522278Y-116429414D01*
X60498510Y-116491310D01*
X60497811Y-116493481D01*
X60481453Y-116556270D01*
X60471773Y-116620806D01*
X60468770Y-116686158D01*
X60472439Y-116751395D01*
X60482777Y-116815588D01*
X60499315Y-116876405D01*
X60521996Y-116935061D01*
X60550182Y-116990279D01*
X60584124Y-117042358D01*
X60624072Y-117091594D01*
X60670274Y-117138284D01*
X60722982Y-117182726D01*
X60782446Y-117225218D01*
X60804591Y-117239490D01*
X60820957Y-117250120D01*
X60832041Y-117258305D01*
X60838963Y-117265018D01*
X60842844Y-117271231D01*
X60843668Y-117273399D01*
X60844088Y-117275314D01*
X60844130Y-117277857D01*
X60843666Y-117281357D01*
X60842564Y-117286145D01*
X60840694Y-117292549D01*
X60837926Y-117300899D01*
X60834130Y-117311522D01*
X60829175Y-117324749D01*
X60822930Y-117340908D01*
X60815266Y-117360329D01*
X60806051Y-117383340D01*
X60795156Y-117410272D01*
X60782451Y-117441452D01*
X60767804Y-117477210D01*
X60751086Y-117517875D01*
X60732165Y-117563776D01*
X60710913Y-117615243D01*
X60687198Y-117672603D01*
X60660889Y-117736188D01*
X60647843Y-117767709D01*
X60624458Y-117824134D01*
X60601767Y-117878749D01*
X60579930Y-117931173D01*
X60559108Y-117981028D01*
X60539460Y-118027934D01*
X60521148Y-118071511D01*
X60504332Y-118111380D01*
X60489172Y-118147162D01*
X60475828Y-118178477D01*
X60464461Y-118204946D01*
X60455231Y-118226189D01*
X60448298Y-118241827D01*
X60443823Y-118251480D01*
X60442017Y-118254749D01*
X60433876Y-118258575D01*
X60429470Y-118259286D01*
X60424786Y-118257617D01*
X60414551Y-118252889D01*
X60399587Y-118245517D01*
X60380717Y-118235917D01*
X60358762Y-118224504D01*
X60334546Y-118211693D01*
X60321749Y-118204841D01*
X60290212Y-118188026D01*
X60264478Y-118174622D01*
X60244070Y-118164403D01*
X60228510Y-118157140D01*
X60217322Y-118152603D01*
X60210029Y-118150564D01*
X60208142Y-118150397D01*
X60204976Y-118150949D01*
X60200267Y-118152773D01*
X60193620Y-118156126D01*
X60184644Y-118161263D01*
X60172945Y-118168440D01*
X60158130Y-118177912D01*
X60139807Y-118189935D01*
X60117583Y-118204765D01*
X60091065Y-118222658D01*
X60059860Y-118243868D01*
X60023574Y-118268652D01*
X59981816Y-118297265D01*
X59971045Y-118304656D01*
X59926783Y-118334990D01*
X59888124Y-118361386D01*
X59854724Y-118384070D01*
X59826239Y-118403267D01*
X59802325Y-118419201D01*
X59782637Y-118432098D01*
X59766832Y-118442182D01*
X59754565Y-118449680D01*
X59745493Y-118454815D01*
X59739271Y-118457814D01*
X59735555Y-118458901D01*
X59735253Y-118458914D01*
X59732784Y-118458464D01*
X59729457Y-118456899D01*
X59724933Y-118453898D01*
X59718873Y-118449138D01*
X59710938Y-118442298D01*
X59700788Y-118433056D01*
X59688084Y-118421090D01*
X59672487Y-118406078D01*
X59653656Y-118387699D01*
X59631254Y-118365630D01*
X59604940Y-118339550D01*
X59574375Y-118309137D01*
X59539219Y-118274069D01*
X59518058Y-118252934D01*
X59485902Y-118220731D01*
X59455230Y-118189867D01*
X59426435Y-118160742D01*
X59399906Y-118133760D01*
X59376035Y-118109323D01*
X59355213Y-118087834D01*
X59337830Y-118069695D01*
X59324278Y-118055307D01*
X59314948Y-118045075D01*
X59310230Y-118039399D01*
X59309727Y-118038519D01*
X59309529Y-118028553D01*
X59311445Y-118021581D01*
X59314092Y-118017262D01*
X59320525Y-118007455D01*
X59330411Y-117992651D01*
X59343418Y-117973338D01*
X59359214Y-117950007D01*
X59377466Y-117923149D01*
X59397843Y-117893252D01*
X59420010Y-117860808D01*
X59443637Y-117826306D01*
X59466860Y-117792464D01*
X59492040Y-117755700D01*
X59515924Y-117720620D01*
X59538192Y-117687707D01*
X59558522Y-117657445D01*
X59576592Y-117630320D01*
X59592082Y-117606816D01*
X59604669Y-117587416D01*
X59614034Y-117572605D01*
X59619854Y-117562868D01*
X59621770Y-117558959D01*
X59622304Y-117555931D01*
X59622296Y-117552184D01*
X59621557Y-117547197D01*
X59619900Y-117540451D01*
X59617136Y-117531426D01*
X59613077Y-117519602D01*
X59607536Y-117504460D01*
X59600324Y-117485481D01*
X59591253Y-117462143D01*
X59580134Y-117433928D01*
X59566781Y-117400316D01*
X59551004Y-117360787D01*
X59540912Y-117335550D01*
X59522843Y-117290384D01*
X59507270Y-117251474D01*
X59493985Y-117218340D01*
X59482780Y-117190501D01*
X59473446Y-117167476D01*
X59465777Y-117148786D01*
X59459564Y-117133949D01*
X59454599Y-117122484D01*
X59450673Y-117113913D01*
X59447580Y-117107753D01*
X59445111Y-117103524D01*
X59443057Y-117100746D01*
X59441212Y-117098938D01*
X59439366Y-117097619D01*
X59437382Y-117096355D01*
X59432414Y-117094758D01*
X59420792Y-117091969D01*
X59403006Y-117088084D01*
X59379543Y-117083203D01*
X59350894Y-117077421D01*
X59317548Y-117070839D01*
X59279995Y-117063552D01*
X59238723Y-117055660D01*
X59194222Y-117047259D01*
X59155493Y-117040027D01*
X59104747Y-117030590D01*
X59060657Y-117022364D01*
X59022737Y-117015247D01*
X58990505Y-117009134D01*
X58963475Y-117003922D01*
X58941165Y-116999508D01*
X58923089Y-116995788D01*
X58908764Y-116992658D01*
X58897706Y-116990016D01*
X58889431Y-116987757D01*
X58883455Y-116985778D01*
X58879293Y-116983976D01*
X58876462Y-116982247D01*
X58874478Y-116980487D01*
X58873846Y-116979790D01*
X58865680Y-116970370D01*
X58865680Y-116390442D01*
X58873936Y-116380843D01*
X58875690Y-116379038D01*
X58878035Y-116377316D01*
X58881450Y-116375574D01*
X58886413Y-116373711D01*
X58893404Y-116371623D01*
X58902901Y-116369209D01*
X58915383Y-116366367D01*
X58931329Y-116362994D01*
X58951216Y-116358987D01*
X58975524Y-116354246D01*
X59004732Y-116348666D01*
X59039318Y-116342147D01*
X59079761Y-116334585D01*
X59126540Y-116325879D01*
X59162106Y-116319272D01*
X59217744Y-116308886D01*
X59267997Y-116299391D01*
X59312650Y-116290830D01*
X59351484Y-116283245D01*
X59384285Y-116276682D01*
X59410833Y-116271184D01*
X59430914Y-116266793D01*
X59444308Y-116263553D01*
X59450801Y-116261509D01*
X59451165Y-116261309D01*
X59453232Y-116260042D01*
X59455028Y-116258902D01*
X59456779Y-116257402D01*
X59458709Y-116255056D01*
X59461044Y-116251377D01*
X59464008Y-116245878D01*
X59467828Y-116238073D01*
X59472728Y-116227474D01*
X59478934Y-116213597D01*
X59486670Y-116195953D01*
X59496162Y-116174056D01*
X59507635Y-116147420D01*
X59521314Y-116115558D01*
X59537424Y-116077984D01*
X59555396Y-116036064D01*
X59573450Y-115993885D01*
X59588791Y-115957851D01*
X59601619Y-115927456D01*
X59612133Y-115902196D01*
X59620531Y-115881565D01*
X59627012Y-115865059D01*
X59631777Y-115852172D01*
X59635023Y-115842399D01*
X59636949Y-115835235D01*
X59637755Y-115830175D01*
X59637712Y-115827174D01*
X59636267Y-115822991D01*
X59632519Y-115815716D01*
X59626272Y-115805053D01*
X59617332Y-115790707D01*
X59605506Y-115772381D01*
X59590598Y-115749781D01*
X59572415Y-115722611D01*
X59550761Y-115690575D01*
X59525443Y-115653378D01*
X59496267Y-115610724D01*
X59475848Y-115580963D01*
X59450468Y-115543984D01*
X59426229Y-115508631D01*
X59403455Y-115475375D01*
X59382467Y-115444689D01*
X59363587Y-115417045D01*
X59347138Y-115392915D01*
X59333442Y-115372770D01*
X59322820Y-115357084D01*
X59315594Y-115346328D01*
X59312088Y-115340975D01*
X59311844Y-115340562D01*
X59309699Y-115331642D01*
X59310191Y-115323457D01*
X59312782Y-115319270D01*
X59319671Y-115310980D01*
X59330966Y-115298477D01*
X59346775Y-115281649D01*
X59367207Y-115260382D01*
X59392369Y-115234566D01*
X59422369Y-115204089D01*
X59457315Y-115168838D01*
X59497316Y-115128702D01*
X59518302Y-115107709D01*
X59556050Y-115070007D01*
X59589023Y-115037134D01*
X59617563Y-115008769D01*
X59642010Y-114984589D01*
X59662704Y-114964270D01*
X59679985Y-114947491D01*
X59694193Y-114933928D01*
X59705668Y-114923260D01*
X59714751Y-114915163D01*
X59721781Y-114909315D01*
X59727099Y-114905393D01*
X59731045Y-114903075D01*
X59733959Y-114902039D01*
X59735315Y-114901898D01*
X59738637Y-114902735D01*
X59744346Y-114905392D01*
X59752778Y-114910091D01*
X59764268Y-114917051D01*
X59779151Y-114926492D01*
X59797764Y-114938635D01*
X59820442Y-114953700D01*
X59847519Y-114971907D01*
X59879332Y-114993477D01*
X59916217Y-115018630D01*
X59958507Y-115047586D01*
X59987499Y-115067483D01*
X60025164Y-115093311D01*
X60061269Y-115117991D01*
X60095343Y-115141206D01*
X60126915Y-115162638D01*
X60155516Y-115181972D01*
X60180675Y-115198891D01*
X60201923Y-115213078D01*
X60218788Y-115224216D01*
X60230802Y-115231988D01*
X60237494Y-115236079D01*
X60238559Y-115236608D01*
X60241040Y-115237511D01*
X60243424Y-115238179D01*
X60246221Y-115238421D01*
X60249944Y-115238051D01*
X60255102Y-115236880D01*
X60262207Y-115234721D01*
X60271771Y-115231384D01*
X60284303Y-115226683D01*
X60300315Y-115220428D01*
X60320319Y-115212433D01*
X60344824Y-115202508D01*
X60374343Y-115190466D01*
X60409386Y-115176120D01*
X60450464Y-115159280D01*
X60465901Y-115152950D01*
X60500950Y-115138502D01*
X60534156Y-115124659D01*
X60564878Y-115111699D01*
X60592473Y-115099902D01*
X60616297Y-115089544D01*
X60635710Y-115080905D01*
X60650067Y-115074263D01*
X60658727Y-115069896D01*
X60660931Y-115068475D01*
X60667524Y-115061048D01*
X60671225Y-115054675D01*
X60672150Y-115050277D01*
X60674295Y-115039291D01*
X60677558Y-115022267D01*
X60681834Y-114999754D01*
X60687020Y-114972302D01*
X60693013Y-114940460D01*
X60699709Y-114904778D01*
X60707004Y-114865805D01*
X60714796Y-114824091D01*
X60722979Y-114780185D01*
X60725948Y-114764238D01*
X60734270Y-114719661D01*
X60742277Y-114677067D01*
X60749862Y-114637005D01*
X60756917Y-114600028D01*
X60763335Y-114566688D01*
X60769010Y-114537536D01*
X60773835Y-114513123D01*
X60777703Y-114494002D01*
X60780506Y-114480724D01*
X60782138Y-114473840D01*
X60782412Y-114473045D01*
X60788555Y-114465834D01*
X60792846Y-114462798D01*
X60797696Y-114462118D01*
X60809131Y-114461504D01*
X60826480Y-114460957D01*
X60849069Y-114460475D01*
X60876226Y-114460059D01*
X60907277Y-114459710D01*
X60941549Y-114459427D01*
X60978371Y-114459209D01*
X61017068Y-114459059D01*
X61056969Y-114458974D01*
X61097399Y-114458955D01*
X61137687Y-114459002D01*
G37*
D15*
X61137687Y-114459002D02*
X61177160Y-114459114D01*
X61215144Y-114459293D01*
X61250966Y-114459539D01*
X61283955Y-114459850D01*
X61313436Y-114460228D01*
X61338738Y-114460671D01*
X61359186Y-114461181D01*
X61374109Y-114461757D01*
X61382834Y-114462399D01*
X61384783Y-114462798D01*
X61392200Y-114468880D01*
X61395164Y-114472946D01*
X61396353Y-114477449D01*
X61398752Y-114488540D01*
X61402253Y-114505667D01*
X61406750Y-114528279D01*
X61412135Y-114555825D01*
X61418302Y-114587754D01*
X61425145Y-114623514D01*
X61432555Y-114662553D01*
X61440427Y-114704322D01*
X61448653Y-114748268D01*
X61451610Y-114764139D01*
X61459912Y-114808695D01*
X61467859Y-114851255D01*
X61475346Y-114891268D01*
X61482271Y-114928185D01*
X61488530Y-114961456D01*
X61494018Y-114990532D01*
X61498633Y-115014864D01*
X61502272Y-115033903D01*
X61504829Y-115047098D01*
X61506203Y-115053900D01*
X61506386Y-115054675D01*
X61510218Y-115061244D01*
X61516385Y-115068180D01*
X61521706Y-115071387D01*
X61533043Y-115076924D01*
X61549656Y-115084489D01*
X61570807Y-115093782D01*
X61595757Y-115104502D01*
X61623766Y-115116348D01*
X61654095Y-115129017D01*
X61686005Y-115142210D01*
X61718757Y-115155624D01*
X61751611Y-115168960D01*
X61783828Y-115181915D01*
X61814670Y-115194188D01*
X61843397Y-115205479D01*
X61869270Y-115215486D01*
X61891549Y-115223909D01*
X61909496Y-115230445D01*
X61922372Y-115234794D01*
X61929436Y-115236654D01*
X61930021Y-115236701D01*
X61940723Y-115235203D01*
X61952604Y-115229956D01*
X61964502Y-115222378D01*
X61971781Y-115217357D01*
X61984341Y-115208721D01*
X62001471Y-115196956D01*
X62022463Y-115182551D01*
X62046606Y-115165990D01*
X62073193Y-115147761D01*
X62101512Y-115128351D01*
X62125068Y-115112210D01*
X62157357Y-115090085D01*
X62191069Y-115066975D01*
X62225044Y-115043677D01*
X62258123Y-115020985D01*
X62289145Y-114999697D01*
X62316952Y-114980607D01*
X62340384Y-114964510D01*
X62348128Y-114959187D01*
X62374962Y-114940885D01*
X62396511Y-114926546D01*
X62413334Y-114915830D01*
X62425992Y-114908395D01*
X62435045Y-114903902D01*
X62441053Y-114902009D01*
X62442423Y-114901898D01*
X62444894Y-114902356D01*
X62448238Y-114903945D01*
X62452795Y-114906986D01*
X62458904Y-114911801D01*
X62466904Y-114918712D01*
X62477133Y-114928041D01*
X62489931Y-114940108D01*
X62505637Y-114955237D01*
X62524590Y-114973748D01*
X62547129Y-114995962D01*
X62573592Y-115022203D01*
X62604320Y-115052791D01*
X62639650Y-115088049D01*
X62659327Y-115107709D01*
X62701787Y-115150225D01*
X62739141Y-115187803D01*
X62771498Y-115220553D01*
X62798964Y-115248588D01*
X62821648Y-115272020D01*
X62839659Y-115290961D01*
X62853103Y-115305523D01*
X62862090Y-115315817D01*
X62866727Y-115321956D01*
X62867438Y-115323457D01*
X62867737Y-115333538D01*
X62865751Y-115340627D01*
X62863123Y-115344705D01*
X62856704Y-115354293D01*
X62846816Y-115368917D01*
X62833781Y-115388106D01*
X62817920Y-115411388D01*
X62799556Y-115438290D01*
X62779011Y-115468340D01*
X62756608Y-115501066D01*
X62732667Y-115535996D01*
X62707512Y-115572657D01*
X62701639Y-115581211D01*
X62671506Y-115625133D01*
X62645261Y-115663488D01*
X62622649Y-115696668D01*
X62603413Y-115725067D01*
X62587297Y-115749077D01*
X62574045Y-115769091D01*
X62563402Y-115785502D01*
X62555110Y-115798703D01*
X62548915Y-115809086D01*
X62544560Y-115817044D01*
X62541789Y-115822970D01*
X62540346Y-115827256D01*
X62540014Y-115829172D01*
X62540034Y-115832941D01*
X62540853Y-115838013D01*
X62542673Y-115844898D01*
X62545694Y-115854104D01*
X62550119Y-115866139D01*
X62556149Y-115881513D01*
X62563987Y-115900733D01*
X62573834Y-115924309D01*
X62585892Y-115952747D01*
X62600362Y-115986558D01*
X62617447Y-116026249D01*
X62627169Y-116048771D01*
X62647473Y-116095624D01*
X62665131Y-116136030D01*
X62680267Y-116170252D01*
X62692999Y-116198554D01*
X62703451Y-116221199D01*
X62711742Y-116238453D01*
X62717995Y-116250577D01*
X62722330Y-116257837D01*
X62724375Y-116260233D01*
X62729559Y-116262485D01*
X62740301Y-116265559D01*
X62756857Y-116269510D01*
X62779482Y-116274393D01*
X62808432Y-116280261D01*
X62843961Y-116287171D01*
X62886327Y-116295175D01*
X62899997Y-116297722D01*
X62961571Y-116309159D01*
X63016408Y-116319347D01*
X63064904Y-116328366D01*
X63107460Y-116336301D01*
X63144473Y-116343231D01*
X63176342Y-116349241D01*
X63203464Y-116354411D01*
X63226237Y-116358824D01*
X63245062Y-116362563D01*
X63260334Y-116365709D01*
X63272454Y-116368345D01*
X63281818Y-116370552D01*
X63288826Y-116372413D01*
X63293876Y-116374011D01*
X63297365Y-116375426D01*
X63299692Y-116376743D01*
X63301256Y-116378041D01*
X63302455Y-116379405D01*
X63303686Y-116380915D01*
X63303783Y-116381028D01*
X63311950Y-116390442D01*
X63311950Y-116971333D01*
X63301968Y-116981044D01*
X63299789Y-116982934D01*
X63296957Y-116984743D01*
X63292975Y-116986578D01*
X63287346Y-116988544D01*
X63279571Y-116990747D01*
X63269153Y-116993293D01*
X63255594Y-116996288D01*
X63238397Y-116999836D01*
X63217063Y-117004045D01*
X63191096Y-117009020D01*
X63159997Y-117014867D01*
X63123269Y-117021690D01*
X63080413Y-117029597D01*
X63030933Y-117038692D01*
X63028840Y-117039077D01*
X62985721Y-117047030D01*
X62944394Y-117054720D01*
X62905460Y-117062031D01*
X62869520Y-117068848D01*
X62837173Y-117075054D01*
X62809020Y-117080533D01*
X62785663Y-117085170D01*
X62767700Y-117088849D01*
X62755734Y-117091454D01*
X62750562Y-117092792D01*
X62739924Y-117097957D01*
X62731817Y-117104275D01*
X62730319Y-117106165D01*
X62728109Y-117110859D01*
X62723459Y-117121707D01*
X62716610Y-117138119D01*
X62707804Y-117159502D01*
X62697283Y-117185266D01*
X62685286Y-117214818D01*
X62672056Y-117247568D01*
X62657834Y-117282924D01*
X62642861Y-117320294D01*
X62638653Y-117330823D01*
X62621258Y-117374386D01*
X62606379Y-117411726D01*
X62593829Y-117443362D01*
X62583425Y-117469809D01*
X62574982Y-117491584D01*
X62568317Y-117509204D01*
X62563244Y-117523186D01*
X62559578Y-117534048D01*
X62557137Y-117542304D01*
X62555735Y-117548473D01*
X62555188Y-117553072D01*
X62555311Y-117556616D01*
X62555921Y-117559623D01*
X62556418Y-117561303D01*
X62559149Y-117566504D01*
X62565678Y-117577167D01*
X62575667Y-117592785D01*
X62588781Y-117612854D01*
X62604683Y-117636867D01*
X62623037Y-117664320D01*
X62643506Y-117694705D01*
X62665755Y-117727519D01*
X62689445Y-117762254D01*
X62711577Y-117794529D01*
X62736200Y-117830368D01*
X62759670Y-117864567D01*
X62781654Y-117896640D01*
X62801821Y-117926100D01*
X62819839Y-117952462D01*
X62835375Y-117975238D01*
X62848096Y-117993941D01*
X62857671Y-118008087D01*
X62863767Y-118017187D01*
X62866018Y-118020685D01*
X62867985Y-118029233D01*
X62867438Y-118037354D01*
X62864849Y-118041539D01*
X62857963Y-118049824D01*
X62846672Y-118062322D01*
X62830868Y-118079144D01*
X62810444Y-118100403D01*
X62785291Y-118126211D01*
X62755301Y-118156679D01*
X62720367Y-118191919D01*
X62680380Y-118232043D01*
X62658884Y-118253546D01*
X62621488Y-118290911D01*
X62588872Y-118323468D01*
X62560684Y-118351543D01*
X62536576Y-118375466D01*
X62516196Y-118395563D01*
X62499195Y-118412163D01*
X62485223Y-118425594D01*
X62473929Y-118436185D01*
X62464964Y-118444261D01*
X62457977Y-118450153D01*
X62452619Y-118454187D01*
X62448539Y-118456692D01*
X62445387Y-118457996D01*
X62442814Y-118458426D01*
X62440468Y-118458311D01*
X62440326Y-118458294D01*
X62435204Y-118456428D01*
X62425982Y-118451501D01*
X62412410Y-118443352D01*
X62394240Y-118431820D01*
X62371222Y-118416741D01*
X62343107Y-118397955D01*
X62309644Y-118375300D01*
X62270586Y-118348615D01*
X62261178Y-118342160D01*
X62227944Y-118319343D01*
X62194778Y-118296572D01*
X62162483Y-118274399D01*
X62131866Y-118253378D01*
X62103731Y-118234061D01*
X62078885Y-118217001D01*
X62058132Y-118202752D01*
X62042278Y-118191866D01*
X62038053Y-118188965D01*
X62016644Y-118174469D01*
X62000190Y-118163859D01*
X61987845Y-118156655D01*
X61978763Y-118152378D01*
X61972098Y-118150550D01*
X61969881Y-118150397D01*
X61963698Y-118151684D01*
X61953232Y-118155669D01*
X61938095Y-118162536D01*
X61917899Y-118172471D01*
X61892256Y-118185661D01*
X61860780Y-118202289D01*
X61855998Y-118204841D01*
X61830875Y-118218166D01*
X61807616Y-118230310D01*
X61787038Y-118240861D01*
X61769960Y-118249406D01*
X61757201Y-118255532D01*
X61749581Y-118258828D01*
X61747920Y-118259286D01*
X61739878Y-118257206D01*
X61735531Y-118254749D01*
X61733582Y-118251031D01*
X61729057Y-118241060D01*
X61722147Y-118225293D01*
X61713043Y-118204190D01*
X61701936Y-118178208D01*
X61689016Y-118147805D01*
X61674474Y-118113440D01*
X61658501Y-118075569D01*
X61641288Y-118034653D01*
X61623025Y-117991148D01*
X61603904Y-117945513D01*
X61584115Y-117898206D01*
X61563848Y-117849685D01*
X61543296Y-117800408D01*
X61522648Y-117750834D01*
X61502095Y-117701420D01*
X61481828Y-117652625D01*
X61462037Y-117604906D01*
X61442915Y-117558722D01*
X61424651Y-117514531D01*
X61407435Y-117472791D01*
X61391460Y-117433960D01*
X61376916Y-117398497D01*
X61363993Y-117366859D01*
X61352882Y-117339504D01*
X61343774Y-117316891D01*
X61336861Y-117299478D01*
X61332331Y-117287723D01*
X61330377Y-117282084D01*
X61330312Y-117281703D01*
X61332719Y-117273414D01*
X61339883Y-117264363D01*
X61352461Y-117253903D01*
X61371111Y-117241385D01*
X61371257Y-117241294D01*
X61434287Y-117198467D01*
X61490501Y-117153367D01*
X61540024Y-117105846D01*
X61582982Y-117055757D01*
X61619499Y-117002950D01*
X61649700Y-116947277D01*
X61673711Y-116888591D01*
X61676743Y-116879652D01*
X61685441Y-116852521D01*
X61692214Y-116829001D01*
X61697296Y-116807490D01*
X61700919Y-116786389D01*
X61703316Y-116764097D01*
X61704720Y-116739014D01*
X61705364Y-116709538D01*
X61705489Y-116682221D01*
X61705418Y-116653467D01*
X61705149Y-116630681D01*
X61704598Y-116612570D01*
X61703680Y-116597844D01*
X61702312Y-116585210D01*
X61700410Y-116573379D01*
X61697889Y-116561057D01*
X61697476Y-116559197D01*
X61679154Y-116492237D01*
X61654957Y-116429473D01*
X61624762Y-116370671D01*
X61588444Y-116315599D01*
X61545881Y-116264023D01*
X61535257Y-116252694D01*
X61486575Y-116207130D01*
X61433668Y-116167299D01*
X61377042Y-116133455D01*
X61317206Y-116105854D01*
X61254667Y-116084750D01*
X61189932Y-116070400D01*
X61165676Y-116066873D01*
X61140089Y-116064692D01*
X61109882Y-116063759D01*
X61077100Y-116063998D01*
X61043789Y-116065333D01*
X61011993Y-116067691D01*
X60983759Y-116070996D01*
X60965408Y-116074208D01*
X60900376Y-116091625D01*
X60838403Y-116115353D01*
X60779869Y-116145050D01*
X60725157Y-116180374D01*
X60674648Y-116220982D01*
X60628724Y-116266532D01*
X60587766Y-116316683D01*
X60552157Y-116371090D01*
X60522278Y-116429414D01*
X60498510Y-116491310D01*
X60497811Y-116493481D01*
X60481453Y-116556270D01*
X60471773Y-116620806D01*
X60468770Y-116686158D01*
X60472439Y-116751395D01*
X60482777Y-116815588D01*
X60499315Y-116876405D01*
X60521996Y-116935061D01*
X60550182Y-116990279D01*
X60584124Y-117042358D01*
X60624072Y-117091594D01*
X60670274Y-117138284D01*
X60722982Y-117182726D01*
X60782446Y-117225218D01*
X60804591Y-117239490D01*
X60820957Y-117250120D01*
X60832041Y-117258305D01*
X60838963Y-117265018D01*
X60842844Y-117271231D01*
X60843668Y-117273399D01*
X60844088Y-117275314D01*
X60844130Y-117277857D01*
X60843666Y-117281357D01*
X60842564Y-117286145D01*
X60840694Y-117292549D01*
X60837926Y-117300899D01*
X60834130Y-117311522D01*
X60829175Y-117324749D01*
X60822930Y-117340908D01*
X60815266Y-117360329D01*
X60806051Y-117383340D01*
X60795156Y-117410272D01*
X60782451Y-117441452D01*
X60767804Y-117477210D01*
X60751086Y-117517875D01*
X60732165Y-117563776D01*
X60710913Y-117615243D01*
X60687198Y-117672603D01*
X60660889Y-117736188D01*
X60647843Y-117767709D01*
X60624458Y-117824134D01*
X60601767Y-117878749D01*
X60579930Y-117931173D01*
X60559108Y-117981028D01*
X60539460Y-118027934D01*
X60521148Y-118071511D01*
X60504332Y-118111380D01*
X60489172Y-118147162D01*
X60475828Y-118178477D01*
X60464461Y-118204946D01*
X60455231Y-118226189D01*
X60448298Y-118241827D01*
X60443823Y-118251480D01*
X60442017Y-118254749D01*
X60433876Y-118258575D01*
X60429470Y-118259286D01*
X60424786Y-118257617D01*
X60414551Y-118252889D01*
X60399587Y-118245517D01*
X60380717Y-118235917D01*
X60358762Y-118224504D01*
X60334546Y-118211693D01*
X60321749Y-118204841D01*
X60290212Y-118188026D01*
X60264478Y-118174622D01*
X60244070Y-118164403D01*
X60228510Y-118157140D01*
X60217322Y-118152603D01*
X60210029Y-118150564D01*
X60208142Y-118150397D01*
X60204976Y-118150949D01*
X60200267Y-118152773D01*
X60193620Y-118156126D01*
X60184644Y-118161263D01*
X60172945Y-118168440D01*
X60158130Y-118177912D01*
X60139807Y-118189935D01*
X60117583Y-118204765D01*
X60091065Y-118222658D01*
X60059860Y-118243868D01*
X60023574Y-118268652D01*
X59981816Y-118297265D01*
X59971045Y-118304656D01*
X59926783Y-118334990D01*
X59888124Y-118361386D01*
X59854724Y-118384070D01*
X59826239Y-118403267D01*
X59802325Y-118419201D01*
X59782637Y-118432098D01*
X59766832Y-118442182D01*
X59754565Y-118449680D01*
X59745493Y-118454815D01*
X59739271Y-118457814D01*
X59735555Y-118458901D01*
X59735253Y-118458914D01*
X59732784Y-118458464D01*
X59729457Y-118456899D01*
X59724933Y-118453898D01*
X59718873Y-118449138D01*
X59710938Y-118442298D01*
X59700788Y-118433056D01*
X59688084Y-118421090D01*
X59672487Y-118406078D01*
X59653656Y-118387699D01*
X59631254Y-118365630D01*
X59604940Y-118339550D01*
X59574375Y-118309137D01*
X59539219Y-118274069D01*
X59518058Y-118252934D01*
X59485902Y-118220731D01*
X59455230Y-118189867D01*
X59426435Y-118160742D01*
X59399906Y-118133760D01*
X59376035Y-118109323D01*
X59355213Y-118087834D01*
X59337830Y-118069695D01*
X59324278Y-118055307D01*
X59314948Y-118045075D01*
X59310230Y-118039399D01*
X59309727Y-118038519D01*
X59309529Y-118028553D01*
X59311445Y-118021581D01*
X59314092Y-118017262D01*
X59320525Y-118007455D01*
X59330411Y-117992651D01*
X59343418Y-117973338D01*
X59359214Y-117950007D01*
X59377466Y-117923149D01*
X59397843Y-117893252D01*
X59420010Y-117860808D01*
X59443637Y-117826306D01*
X59466860Y-117792464D01*
X59492040Y-117755700D01*
X59515924Y-117720620D01*
X59538192Y-117687707D01*
X59558522Y-117657445D01*
X59576592Y-117630320D01*
X59592082Y-117606816D01*
X59604669Y-117587416D01*
X59614034Y-117572605D01*
X59619854Y-117562868D01*
X59621770Y-117558959D01*
X59622304Y-117555931D01*
X59622296Y-117552184D01*
X59621557Y-117547197D01*
X59619900Y-117540451D01*
X59617136Y-117531426D01*
X59613077Y-117519602D01*
X59607536Y-117504460D01*
X59600324Y-117485481D01*
X59591253Y-117462143D01*
X59580134Y-117433928D01*
X59566781Y-117400316D01*
X59551004Y-117360787D01*
X59540912Y-117335550D01*
X59522843Y-117290384D01*
X59507270Y-117251474D01*
X59493985Y-117218340D01*
X59482780Y-117190501D01*
X59473446Y-117167476D01*
X59465777Y-117148786D01*
X59459564Y-117133949D01*
X59454599Y-117122484D01*
X59450673Y-117113913D01*
X59447580Y-117107753D01*
X59445111Y-117103524D01*
X59443057Y-117100746D01*
X59441212Y-117098938D01*
X59439366Y-117097619D01*
X59437382Y-117096355D01*
X59432414Y-117094758D01*
X59420792Y-117091969D01*
X59403006Y-117088084D01*
X59379543Y-117083203D01*
X59350894Y-117077421D01*
X59317548Y-117070839D01*
X59279995Y-117063552D01*
X59238723Y-117055660D01*
X59194222Y-117047259D01*
X59155493Y-117040027D01*
X59104747Y-117030590D01*
X59060657Y-117022364D01*
X59022737Y-117015247D01*
X58990505Y-117009134D01*
X58963475Y-117003922D01*
X58941165Y-116999508D01*
X58923089Y-116995788D01*
X58908764Y-116992658D01*
X58897706Y-116990016D01*
X58889431Y-116987757D01*
X58883455Y-116985778D01*
X58879293Y-116983976D01*
X58876462Y-116982247D01*
X58874478Y-116980487D01*
X58873846Y-116979790D01*
X58865680Y-116970370D01*
X58865680Y-116390442D01*
X58873936Y-116380843D01*
X58875690Y-116379038D01*
X58878035Y-116377316D01*
X58881450Y-116375574D01*
X58886413Y-116373711D01*
X58893404Y-116371623D01*
X58902901Y-116369209D01*
X58915383Y-116366367D01*
X58931329Y-116362994D01*
X58951216Y-116358987D01*
X58975524Y-116354246D01*
X59004732Y-116348666D01*
X59039318Y-116342147D01*
X59079761Y-116334585D01*
X59126540Y-116325879D01*
X59162106Y-116319272D01*
X59217744Y-116308886D01*
X59267997Y-116299391D01*
X59312650Y-116290830D01*
X59351484Y-116283245D01*
X59384285Y-116276682D01*
X59410833Y-116271184D01*
X59430914Y-116266793D01*
X59444308Y-116263553D01*
X59450801Y-116261509D01*
X59451165Y-116261309D01*
X59453232Y-116260042D01*
X59455028Y-116258902D01*
X59456779Y-116257402D01*
X59458709Y-116255056D01*
X59461044Y-116251377D01*
X59464008Y-116245878D01*
X59467828Y-116238073D01*
X59472728Y-116227474D01*
X59478934Y-116213597D01*
X59486670Y-116195953D01*
X59496162Y-116174056D01*
X59507635Y-116147420D01*
X59521314Y-116115558D01*
X59537424Y-116077984D01*
X59555396Y-116036064D01*
X59573450Y-115993885D01*
X59588791Y-115957851D01*
X59601619Y-115927456D01*
X59612133Y-115902196D01*
X59620531Y-115881565D01*
X59627012Y-115865059D01*
X59631777Y-115852172D01*
X59635023Y-115842399D01*
X59636949Y-115835235D01*
X59637755Y-115830175D01*
X59637712Y-115827174D01*
X59636267Y-115822991D01*
X59632519Y-115815716D01*
X59626272Y-115805053D01*
X59617332Y-115790707D01*
X59605506Y-115772381D01*
X59590598Y-115749781D01*
X59572415Y-115722611D01*
X59550761Y-115690575D01*
X59525443Y-115653378D01*
X59496267Y-115610724D01*
X59475848Y-115580963D01*
X59450468Y-115543984D01*
X59426229Y-115508631D01*
X59403455Y-115475375D01*
X59382467Y-115444689D01*
X59363587Y-115417045D01*
X59347138Y-115392915D01*
X59333442Y-115372770D01*
X59322820Y-115357084D01*
X59315594Y-115346328D01*
X59312088Y-115340975D01*
X59311844Y-115340562D01*
X59309699Y-115331642D01*
X59310191Y-115323457D01*
X59312782Y-115319270D01*
X59319671Y-115310980D01*
X59330966Y-115298477D01*
X59346775Y-115281649D01*
X59367207Y-115260382D01*
X59392369Y-115234566D01*
X59422369Y-115204089D01*
X59457315Y-115168838D01*
X59497316Y-115128702D01*
X59518302Y-115107709D01*
X59556050Y-115070007D01*
X59589023Y-115037134D01*
X59617563Y-115008769D01*
X59642010Y-114984589D01*
X59662704Y-114964270D01*
X59679985Y-114947491D01*
X59694193Y-114933928D01*
X59705668Y-114923260D01*
X59714751Y-114915163D01*
X59721781Y-114909315D01*
X59727099Y-114905393D01*
X59731045Y-114903075D01*
X59733959Y-114902039D01*
X59735315Y-114901898D01*
X59738637Y-114902735D01*
X59744346Y-114905392D01*
X59752778Y-114910091D01*
X59764268Y-114917051D01*
X59779151Y-114926492D01*
X59797764Y-114938635D01*
X59820442Y-114953700D01*
X59847519Y-114971907D01*
X59879332Y-114993477D01*
X59916217Y-115018630D01*
X59958507Y-115047586D01*
X59987499Y-115067483D01*
X60025164Y-115093311D01*
X60061269Y-115117991D01*
X60095343Y-115141206D01*
X60126915Y-115162638D01*
X60155516Y-115181972D01*
X60180675Y-115198891D01*
X60201923Y-115213078D01*
X60218788Y-115224216D01*
X60230802Y-115231988D01*
X60237494Y-115236079D01*
X60238559Y-115236608D01*
X60241040Y-115237511D01*
X60243424Y-115238179D01*
X60246221Y-115238421D01*
X60249944Y-115238051D01*
X60255102Y-115236880D01*
X60262207Y-115234721D01*
X60271771Y-115231384D01*
X60284303Y-115226683D01*
X60300315Y-115220428D01*
X60320319Y-115212433D01*
X60344824Y-115202508D01*
X60374343Y-115190466D01*
X60409386Y-115176120D01*
X60450464Y-115159280D01*
X60465901Y-115152950D01*
X60500950Y-115138502D01*
X60534156Y-115124659D01*
X60564878Y-115111699D01*
X60592473Y-115099902D01*
X60616297Y-115089544D01*
X60635710Y-115080905D01*
X60650067Y-115074263D01*
X60658727Y-115069896D01*
X60660931Y-115068475D01*
X60667524Y-115061048D01*
X60671225Y-115054675D01*
X60672150Y-115050277D01*
X60674295Y-115039291D01*
X60677558Y-115022267D01*
X60681834Y-114999754D01*
X60687020Y-114972302D01*
X60693013Y-114940460D01*
X60699709Y-114904778D01*
X60707004Y-114865805D01*
X60714796Y-114824091D01*
X60722979Y-114780185D01*
X60725948Y-114764238D01*
X60734270Y-114719661D01*
X60742277Y-114677067D01*
X60749862Y-114637005D01*
X60756917Y-114600028D01*
X60763335Y-114566688D01*
X60769010Y-114537536D01*
X60773835Y-114513123D01*
X60777703Y-114494002D01*
X60780506Y-114480724D01*
X60782138Y-114473840D01*
X60782412Y-114473045D01*
X60788555Y-114465834D01*
X60792846Y-114462798D01*
X60797696Y-114462118D01*
X60809131Y-114461504D01*
X60826480Y-114460957D01*
X60849069Y-114460475D01*
X60876226Y-114460059D01*
X60907277Y-114459710D01*
X60941549Y-114459427D01*
X60978371Y-114459209D01*
X61017068Y-114459059D01*
X61056969Y-114458974D01*
X61097399Y-114458955D01*
X61137687Y-114459002D01*
D14*
G04 #@! TO.C,C9*
X100068748Y-81307000D02*
X100591252Y-81307000D01*
X100068748Y-82777000D02*
X100591252Y-82777000D01*
G04 #@! TO.C,R15*
X66447600Y-68721322D02*
X66447600Y-67922078D01*
X65327600Y-68721322D02*
X65327600Y-67922078D01*
G04 #@! TO.C,C20*
X120911252Y-113511000D02*
X120388748Y-113511000D01*
X120911252Y-112041000D02*
X120388748Y-112041000D01*
G04 #@! TO.C,C22*
X120911252Y-60679000D02*
X120388748Y-60679000D01*
X120911252Y-59209000D02*
X120388748Y-59209000D01*
G04 #@! TO.C,R2*
X66445200Y-92564378D02*
X66445200Y-93363622D01*
X67565200Y-92564378D02*
X67565200Y-93363622D01*
G04 #@! TO.C,C2*
X112041000Y-59936748D02*
X112041000Y-60459252D01*
X113511000Y-59936748D02*
X113511000Y-60459252D01*
G04 #@! TO.C,J3*
X100970000Y-44900000D02*
X101730000Y-44900000D01*
X119510000Y-53957071D02*
X119510000Y-53560000D01*
X83950000Y-44900000D02*
X83950000Y-50900000D01*
X94110000Y-44900000D02*
X94110000Y-50900000D01*
X104270000Y-53957071D02*
X104270000Y-53560000D01*
X111890000Y-44900000D02*
X111890000Y-50900000D01*
X108590000Y-50900000D02*
X108590000Y-44900000D01*
X70790000Y-50900000D02*
X70790000Y-44900000D01*
X72140000Y-53560000D02*
X72140000Y-50900000D01*
X95890000Y-53957071D02*
X95890000Y-53560000D01*
X85730000Y-50900000D02*
X85730000Y-44900000D01*
X109350000Y-44900000D02*
X109350000Y-50900000D01*
X114430000Y-53957071D02*
X114430000Y-53560000D01*
X76330000Y-53957071D02*
X76330000Y-53560000D01*
X108590000Y-53957071D02*
X108590000Y-53560000D01*
X109350000Y-53957071D02*
X109350000Y-53560000D01*
X120460000Y-53560000D02*
X120460000Y-50900000D01*
X78110000Y-53957071D02*
X78110000Y-53560000D01*
X71250000Y-44900000D02*
X71250000Y-50900000D01*
X100970000Y-53957071D02*
X100970000Y-53560000D01*
X88270000Y-50900000D02*
X88270000Y-44900000D01*
X70490000Y-53890000D02*
X70490000Y-53560000D01*
X101730000Y-44900000D02*
X101730000Y-50900000D01*
X103510000Y-44900000D02*
X104270000Y-44900000D01*
X108590000Y-44900000D02*
X109350000Y-44900000D01*
X113670000Y-44900000D02*
X114430000Y-44900000D01*
X99190000Y-53957071D02*
X99190000Y-53560000D01*
X85730000Y-44900000D02*
X86490000Y-44900000D01*
X104270000Y-44900000D02*
X104270000Y-50900000D01*
X83950000Y-53957071D02*
X83950000Y-53560000D01*
X94110000Y-53957071D02*
X94110000Y-53560000D01*
X80650000Y-50900000D02*
X80650000Y-44900000D01*
X96650000Y-53957071D02*
X96650000Y-53560000D01*
X82300000Y-53560000D02*
X82300000Y-50900000D01*
X80650000Y-44900000D02*
X81410000Y-44900000D01*
X74680000Y-53560000D02*
X74680000Y-50900000D01*
X70490000Y-50900000D02*
X70490000Y-44900000D01*
X100080000Y-53560000D02*
X100080000Y-50900000D01*
X112780000Y-53560000D02*
X112780000Y-50900000D01*
X93350000Y-50900000D02*
X93350000Y-44900000D01*
X111130000Y-50900000D02*
X111130000Y-44900000D01*
X75570000Y-53957071D02*
X75570000Y-53560000D01*
X70670000Y-50900000D02*
X70670000Y-44900000D01*
X116970000Y-53957071D02*
X116970000Y-53560000D01*
X92460000Y-53560000D02*
X92460000Y-50900000D01*
X73790000Y-53957071D02*
X73790000Y-53560000D01*
X90810000Y-44900000D02*
X91570000Y-44900000D01*
X70870000Y-56270000D02*
X69600000Y-56270000D01*
X76330000Y-44900000D02*
X76330000Y-50900000D01*
X119510000Y-44900000D02*
X119510000Y-50900000D01*
X90810000Y-53957071D02*
X90810000Y-53560000D01*
X111130000Y-44900000D02*
X111890000Y-44900000D01*
X96650000Y-44900000D02*
X96650000Y-50900000D01*
X71250000Y-53890000D02*
X71250000Y-53560000D01*
X116970000Y-44900000D02*
X116970000Y-50900000D01*
X90810000Y-50900000D02*
X90810000Y-44900000D01*
X118750000Y-53957071D02*
X118750000Y-53560000D01*
X71030000Y-50900000D02*
X71030000Y-44900000D01*
X83190000Y-44900000D02*
X83950000Y-44900000D01*
X113670000Y-50900000D02*
X113670000Y-44900000D01*
X88270000Y-44900000D02*
X89030000Y-44900000D01*
X69540000Y-50900000D02*
X69540000Y-53560000D01*
X83190000Y-53957071D02*
X83190000Y-53560000D01*
X91570000Y-53957071D02*
X91570000Y-53560000D01*
X80650000Y-53957071D02*
X80650000Y-53560000D01*
X78870000Y-44900000D02*
X78870000Y-50900000D01*
X70490000Y-44900000D02*
X71250000Y-44900000D01*
X89920000Y-53560000D02*
X89920000Y-50900000D01*
X106810000Y-53957071D02*
X106810000Y-53560000D01*
X69600000Y-56270000D02*
X69600000Y-55000000D01*
X99190000Y-44900000D02*
X99190000Y-50900000D01*
X102620000Y-53560000D02*
X102620000Y-50900000D01*
X107700000Y-53560000D02*
X107700000Y-50900000D01*
X73790000Y-44900000D02*
X73790000Y-50900000D01*
X86490000Y-44900000D02*
X86490000Y-50900000D01*
X116210000Y-50900000D02*
X116210000Y-44900000D01*
X81410000Y-53957071D02*
X81410000Y-53560000D01*
X100970000Y-50900000D02*
X100970000Y-44900000D01*
X81410000Y-44900000D02*
X81410000Y-50900000D01*
X83190000Y-50900000D02*
X83190000Y-44900000D01*
X105160000Y-53560000D02*
X105160000Y-50900000D01*
X79760000Y-53560000D02*
X79760000Y-50900000D01*
X87380000Y-53560000D02*
X87380000Y-50900000D01*
X98430000Y-44900000D02*
X99190000Y-44900000D01*
X103510000Y-50900000D02*
X103510000Y-44900000D01*
X118750000Y-44900000D02*
X119510000Y-44900000D01*
X85730000Y-53957071D02*
X85730000Y-53560000D01*
X75570000Y-50900000D02*
X75570000Y-44900000D01*
X78870000Y-53957071D02*
X78870000Y-53560000D01*
X95890000Y-44900000D02*
X96650000Y-44900000D01*
X73030000Y-53957071D02*
X73030000Y-53560000D01*
X75570000Y-44900000D02*
X76330000Y-44900000D01*
X89030000Y-53957071D02*
X89030000Y-53560000D01*
X91570000Y-44900000D02*
X91570000Y-50900000D01*
X69540000Y-53560000D02*
X120460000Y-53560000D01*
X70910000Y-50900000D02*
X70910000Y-44900000D01*
X97540000Y-53560000D02*
X97540000Y-50900000D01*
X78110000Y-44900000D02*
X78870000Y-44900000D01*
X111890000Y-53957071D02*
X111890000Y-53560000D01*
X106810000Y-44900000D02*
X106810000Y-50900000D01*
X70550000Y-50900000D02*
X70550000Y-44900000D01*
X114430000Y-44900000D02*
X114430000Y-50900000D01*
X78110000Y-50900000D02*
X78110000Y-44900000D01*
X93350000Y-53957071D02*
X93350000Y-53560000D01*
X98430000Y-50900000D02*
X98430000Y-44900000D01*
X111130000Y-53957071D02*
X111130000Y-53560000D01*
X116210000Y-53957071D02*
X116210000Y-53560000D01*
X103510000Y-53957071D02*
X103510000Y-53560000D01*
X106050000Y-50900000D02*
X106050000Y-44900000D01*
X95890000Y-50900000D02*
X95890000Y-44900000D01*
X106050000Y-53957071D02*
X106050000Y-53560000D01*
X101730000Y-53957071D02*
X101730000Y-53560000D01*
X93350000Y-44900000D02*
X94110000Y-44900000D01*
X110240000Y-53560000D02*
X110240000Y-50900000D01*
X106050000Y-44900000D02*
X106810000Y-44900000D01*
X84840000Y-53560000D02*
X84840000Y-50900000D01*
X73030000Y-44900000D02*
X73790000Y-44900000D01*
X113670000Y-53957071D02*
X113670000Y-53560000D01*
X77220000Y-53560000D02*
X77220000Y-50900000D01*
X116210000Y-44900000D02*
X116970000Y-44900000D01*
X88270000Y-53957071D02*
X88270000Y-53560000D01*
X115320000Y-53560000D02*
X115320000Y-50900000D01*
X89030000Y-44900000D02*
X89030000Y-50900000D01*
X117860000Y-53560000D02*
X117860000Y-50900000D01*
X118750000Y-50900000D02*
X118750000Y-44900000D01*
X98430000Y-53957071D02*
X98430000Y-53560000D01*
X86490000Y-53957071D02*
X86490000Y-53560000D01*
X71150000Y-50900000D02*
X71150000Y-44900000D01*
X120460000Y-50900000D02*
X69540000Y-50900000D01*
X73030000Y-50900000D02*
X73030000Y-44900000D01*
X95000000Y-53560000D02*
X95000000Y-50900000D01*
G04 #@! TO.C,FB3*
X58926800Y-101237622D02*
X58926800Y-100438378D01*
X60046800Y-101237622D02*
X60046800Y-100438378D01*
G04 #@! TO.C,C21*
X120911252Y-79021000D02*
X120388748Y-79021000D01*
X120911252Y-80491000D02*
X120388748Y-80491000D01*
G04 #@! TO.C,D5*
X55871400Y-106431200D02*
X55871400Y-108351200D01*
X55871400Y-108351200D02*
X58556400Y-108351200D01*
X58556400Y-106431200D02*
X55871400Y-106431200D01*
G04 #@! TO.C,C19*
X120911252Y-96801000D02*
X120388748Y-96801000D01*
X120911252Y-98271000D02*
X120388748Y-98271000D01*
G04 #@! TO.C,C16*
X100083948Y-76887400D02*
X100606452Y-76887400D01*
X100083948Y-78357400D02*
X100606452Y-78357400D01*
G04 #@! TO.C,C18*
X69603252Y-62892000D02*
X69080748Y-62892000D01*
X69603252Y-64362000D02*
X69080748Y-64362000D01*
G04 #@! TO.C,C3*
X67537000Y-102369252D02*
X67537000Y-101846748D01*
X66067000Y-102369252D02*
X66067000Y-101846748D01*
G04 #@! TO.C,R11*
X61525578Y-107951200D02*
X62324822Y-107951200D01*
X61525578Y-106831200D02*
X62324822Y-106831200D01*
G04 #@! TO.C,R3*
X58522800Y-79235978D02*
X58522800Y-80035222D01*
X57402800Y-79235978D02*
X57402800Y-80035222D01*
G04 #@! TO.C,R7*
X85676800Y-99246022D02*
X85676800Y-98446778D01*
X86796800Y-99246022D02*
X86796800Y-98446778D01*
G04 #@! TO.C,C1*
X74937252Y-120735000D02*
X74414748Y-120735000D01*
X74937252Y-119265000D02*
X74414748Y-119265000D01*
G04 #@! TO.C,FB2*
X79563378Y-90971200D02*
X80362622Y-90971200D01*
X79563378Y-92091200D02*
X80362622Y-92091200D01*
G04 #@! TO.C,J7*
X131440000Y-73430000D02*
X131440000Y-88790000D01*
X131042929Y-80220000D02*
X131440000Y-80220000D01*
X140100000Y-74380000D02*
X140100000Y-75140000D01*
X134100000Y-75040000D02*
X140100000Y-75040000D01*
X140100000Y-79460000D02*
X140100000Y-80220000D01*
X134100000Y-74380000D02*
X140100000Y-74380000D01*
X140100000Y-84540000D02*
X140100000Y-85300000D01*
X131042929Y-82760000D02*
X131440000Y-82760000D01*
X131110000Y-75140000D02*
X131440000Y-75140000D01*
X128730000Y-74760000D02*
X128730000Y-73490000D01*
X131042929Y-84540000D02*
X131440000Y-84540000D01*
X134100000Y-74680000D02*
X140100000Y-74680000D01*
X131440000Y-76030000D02*
X134100000Y-76030000D01*
X131042929Y-85300000D02*
X131440000Y-85300000D01*
X131440000Y-81110000D02*
X134100000Y-81110000D01*
X134100000Y-74560000D02*
X140100000Y-74560000D01*
X128730000Y-73490000D02*
X130000000Y-73490000D01*
X134100000Y-74920000D02*
X140100000Y-74920000D01*
X131440000Y-86190000D02*
X134100000Y-86190000D01*
X131042929Y-87840000D02*
X131440000Y-87840000D01*
X131440000Y-78570000D02*
X134100000Y-78570000D01*
X134100000Y-73430000D02*
X131440000Y-73430000D01*
X140100000Y-87080000D02*
X140100000Y-87840000D01*
X131110000Y-74380000D02*
X131440000Y-74380000D01*
X134100000Y-88790000D02*
X134100000Y-73430000D01*
X134100000Y-74800000D02*
X140100000Y-74800000D01*
X134100000Y-87080000D02*
X140100000Y-87080000D01*
X131042929Y-87080000D02*
X131440000Y-87080000D01*
X140100000Y-85300000D02*
X134100000Y-85300000D01*
X134100000Y-82000000D02*
X140100000Y-82000000D01*
X134100000Y-79460000D02*
X140100000Y-79460000D01*
X140100000Y-75140000D02*
X134100000Y-75140000D01*
X140100000Y-87840000D02*
X134100000Y-87840000D01*
X131042929Y-77680000D02*
X131440000Y-77680000D01*
X140100000Y-82000000D02*
X140100000Y-82760000D01*
X134100000Y-74440000D02*
X140100000Y-74440000D01*
X131440000Y-83650000D02*
X134100000Y-83650000D01*
X131042929Y-82000000D02*
X131440000Y-82000000D01*
X131042929Y-79460000D02*
X131440000Y-79460000D01*
X140100000Y-77680000D02*
X134100000Y-77680000D01*
X134100000Y-84540000D02*
X140100000Y-84540000D01*
X140100000Y-76920000D02*
X140100000Y-77680000D01*
X131440000Y-88790000D02*
X134100000Y-88790000D01*
X134100000Y-76920000D02*
X140100000Y-76920000D01*
X140100000Y-80220000D02*
X134100000Y-80220000D01*
X140100000Y-82760000D02*
X134100000Y-82760000D01*
X131042929Y-76920000D02*
X131440000Y-76920000D01*
G04 #@! TO.C,J2*
X118750000Y-126110000D02*
X118750000Y-126440000D01*
X89030000Y-135100000D02*
X88270000Y-135100000D01*
X118750000Y-135100000D02*
X118750000Y-129100000D01*
X96650000Y-126042929D02*
X96650000Y-126440000D01*
X95890000Y-126042929D02*
X95890000Y-126440000D01*
X95890000Y-135100000D02*
X95890000Y-129100000D01*
X81410000Y-126042929D02*
X81410000Y-126440000D01*
X120460000Y-126440000D02*
X69540000Y-126440000D01*
X95000000Y-126440000D02*
X95000000Y-129100000D01*
X119330000Y-129100000D02*
X119330000Y-135100000D01*
X89920000Y-126440000D02*
X89920000Y-129100000D01*
X109350000Y-129100000D02*
X109350000Y-135100000D01*
X76330000Y-126042929D02*
X76330000Y-126440000D01*
X99190000Y-135100000D02*
X98430000Y-135100000D01*
X114430000Y-126042929D02*
X114430000Y-126440000D01*
X79760000Y-126440000D02*
X79760000Y-129100000D01*
X93350000Y-126042929D02*
X93350000Y-126440000D01*
X111130000Y-135100000D02*
X111130000Y-129100000D01*
X85730000Y-126042929D02*
X85730000Y-126440000D01*
X116970000Y-129100000D02*
X116970000Y-135100000D01*
X116970000Y-135100000D02*
X116210000Y-135100000D01*
X73790000Y-129100000D02*
X73790000Y-135100000D01*
X99190000Y-129100000D02*
X99190000Y-135100000D01*
X100080000Y-126440000D02*
X100080000Y-129100000D01*
X118970000Y-129100000D02*
X118970000Y-135100000D01*
X116970000Y-126042929D02*
X116970000Y-126440000D01*
X73790000Y-135100000D02*
X73030000Y-135100000D01*
X78870000Y-126042929D02*
X78870000Y-126440000D01*
X87380000Y-126440000D02*
X87380000Y-129100000D01*
X83950000Y-129100000D02*
X83950000Y-135100000D01*
X101730000Y-126042929D02*
X101730000Y-126440000D01*
X94110000Y-129100000D02*
X94110000Y-135100000D01*
X106810000Y-129100000D02*
X106810000Y-135100000D01*
X88270000Y-126042929D02*
X88270000Y-126440000D01*
X120400000Y-123730000D02*
X120400000Y-125000000D01*
X83950000Y-126042929D02*
X83950000Y-126440000D01*
X80650000Y-126042929D02*
X80650000Y-126440000D01*
X114430000Y-129100000D02*
X114430000Y-135100000D01*
X74680000Y-126440000D02*
X74680000Y-129100000D01*
X110240000Y-126440000D02*
X110240000Y-129100000D01*
X91570000Y-129100000D02*
X91570000Y-135100000D01*
X111890000Y-129100000D02*
X111890000Y-135100000D01*
X86490000Y-129100000D02*
X86490000Y-135100000D01*
X71250000Y-126042929D02*
X71250000Y-126440000D01*
X119510000Y-126110000D02*
X119510000Y-126440000D01*
X78870000Y-135100000D02*
X78110000Y-135100000D01*
X106810000Y-126042929D02*
X106810000Y-126440000D01*
X97540000Y-126440000D02*
X97540000Y-129100000D01*
X83190000Y-126042929D02*
X83190000Y-126440000D01*
X75570000Y-126042929D02*
X75570000Y-126440000D01*
X91570000Y-135100000D02*
X90810000Y-135100000D01*
X94110000Y-126042929D02*
X94110000Y-126440000D01*
X106810000Y-135100000D02*
X106050000Y-135100000D01*
X92460000Y-126440000D02*
X92460000Y-129100000D01*
X76330000Y-129100000D02*
X76330000Y-135100000D01*
X89030000Y-129100000D02*
X89030000Y-135100000D01*
X96650000Y-135100000D02*
X95890000Y-135100000D01*
X78110000Y-126042929D02*
X78110000Y-126440000D01*
X72140000Y-126440000D02*
X72140000Y-129100000D01*
X114430000Y-135100000D02*
X113670000Y-135100000D01*
X111890000Y-135100000D02*
X111130000Y-135100000D01*
X116210000Y-135100000D02*
X116210000Y-129100000D01*
X111890000Y-126042929D02*
X111890000Y-126440000D01*
X82300000Y-126440000D02*
X82300000Y-129100000D01*
X113670000Y-126042929D02*
X113670000Y-126440000D01*
X100970000Y-126042929D02*
X100970000Y-126440000D01*
X71250000Y-129100000D02*
X71250000Y-135100000D01*
X81410000Y-129100000D02*
X81410000Y-135100000D01*
X106050000Y-135100000D02*
X106050000Y-129100000D01*
X76330000Y-135100000D02*
X75570000Y-135100000D01*
X83190000Y-135100000D02*
X83190000Y-129100000D01*
X117860000Y-126440000D02*
X117860000Y-129100000D01*
X100970000Y-135100000D02*
X100970000Y-129100000D01*
X115320000Y-126440000D02*
X115320000Y-129100000D01*
X86490000Y-126042929D02*
X86490000Y-126440000D01*
X69540000Y-129100000D02*
X120460000Y-129100000D01*
X78870000Y-129100000D02*
X78870000Y-135100000D01*
X119130000Y-123730000D02*
X120400000Y-123730000D01*
X86490000Y-135100000D02*
X85730000Y-135100000D01*
X83950000Y-135100000D02*
X83190000Y-135100000D01*
X77220000Y-126440000D02*
X77220000Y-129100000D01*
X111130000Y-126042929D02*
X111130000Y-126440000D01*
X70490000Y-135100000D02*
X70490000Y-129100000D01*
X96650000Y-129100000D02*
X96650000Y-135100000D01*
X106050000Y-126042929D02*
X106050000Y-126440000D01*
X101730000Y-135100000D02*
X100970000Y-135100000D01*
X101730000Y-129100000D02*
X101730000Y-135100000D01*
X90810000Y-126042929D02*
X90810000Y-126440000D01*
X109350000Y-126042929D02*
X109350000Y-126440000D01*
X119450000Y-129100000D02*
X119450000Y-135100000D01*
X71250000Y-135100000D02*
X70490000Y-135100000D01*
X99190000Y-126042929D02*
X99190000Y-126440000D01*
X94110000Y-135100000D02*
X93350000Y-135100000D01*
X73790000Y-126042929D02*
X73790000Y-126440000D01*
X98430000Y-126042929D02*
X98430000Y-126440000D01*
X73030000Y-126042929D02*
X73030000Y-126440000D01*
X90810000Y-135100000D02*
X90810000Y-129100000D01*
X103510000Y-126042929D02*
X103510000Y-126440000D01*
X102620000Y-126440000D02*
X102620000Y-129100000D01*
X118850000Y-129100000D02*
X118850000Y-135100000D01*
X104270000Y-135100000D02*
X103510000Y-135100000D01*
X104270000Y-126042929D02*
X104270000Y-126440000D01*
X103510000Y-135100000D02*
X103510000Y-129100000D01*
X112780000Y-126440000D02*
X112780000Y-129100000D01*
X84840000Y-126440000D02*
X84840000Y-129100000D01*
X93350000Y-135100000D02*
X93350000Y-129100000D01*
X119090000Y-129100000D02*
X119090000Y-135100000D01*
X105160000Y-126440000D02*
X105160000Y-129100000D01*
X108590000Y-126042929D02*
X108590000Y-126440000D01*
X108590000Y-135100000D02*
X108590000Y-129100000D01*
X113670000Y-135100000D02*
X113670000Y-129100000D01*
X75570000Y-135100000D02*
X75570000Y-129100000D01*
X119510000Y-129100000D02*
X119510000Y-135100000D01*
X78110000Y-135100000D02*
X78110000Y-129100000D01*
X88270000Y-135100000D02*
X88270000Y-129100000D01*
X69540000Y-126440000D02*
X69540000Y-129100000D01*
X91570000Y-126042929D02*
X91570000Y-126440000D01*
X119210000Y-129100000D02*
X119210000Y-135100000D01*
X85730000Y-135100000D02*
X85730000Y-129100000D01*
X81410000Y-135100000D02*
X80650000Y-135100000D01*
X119510000Y-135100000D02*
X118750000Y-135100000D01*
X98430000Y-135100000D02*
X98430000Y-129100000D01*
X109350000Y-135100000D02*
X108590000Y-135100000D01*
X73030000Y-135100000D02*
X73030000Y-129100000D01*
X107700000Y-126440000D02*
X107700000Y-129100000D01*
X120460000Y-129100000D02*
X120460000Y-126440000D01*
X70490000Y-126042929D02*
X70490000Y-126440000D01*
X80650000Y-135100000D02*
X80650000Y-129100000D01*
X116210000Y-126042929D02*
X116210000Y-126440000D01*
X104270000Y-129100000D02*
X104270000Y-135100000D01*
X89030000Y-126042929D02*
X89030000Y-126440000D01*
G04 #@! TO.C,C26*
X61241000Y-101099252D02*
X61241000Y-100576748D01*
X62711000Y-101099252D02*
X62711000Y-100576748D01*
G04 #@! TO.C,C4*
X71635252Y-108463000D02*
X71112748Y-108463000D01*
X71635252Y-106993000D02*
X71112748Y-106993000D01*
G04 #@! TO.C,C14*
X106418748Y-90143000D02*
X106941252Y-90143000D01*
X106418748Y-88673000D02*
X106941252Y-88673000D01*
G04 #@! TO.C,C7*
X83796800Y-92235148D02*
X83796800Y-92757652D01*
X82326800Y-92235148D02*
X82326800Y-92757652D01*
G04 #@! TO.C,C11*
X85837652Y-94707800D02*
X85315148Y-94707800D01*
X85837652Y-96177800D02*
X85315148Y-96177800D01*
G04 #@! TO.C,C17*
X93883800Y-80525252D02*
X93883800Y-80002748D01*
X95353800Y-80525252D02*
X95353800Y-80002748D01*
G04 #@! TO.C,C12*
X87911000Y-83319252D02*
X87911000Y-82796748D01*
X89381000Y-83319252D02*
X89381000Y-82796748D01*
G04 #@! TO.C,C31*
X78767000Y-82303252D02*
X78767000Y-81780748D01*
X80237000Y-82303252D02*
X80237000Y-81780748D01*
G04 #@! TD*
M02*
